CSLSans-Regular.ufo
<glyph name="exclam" format="2">
  <advance width="284"/>
  <unicode hex="0021"/>
  <outline>
    <contour>
      <point x="162" y="185" type="line"/>
      <point x="186" y="495" type="line"/>
      <point x="186" y="698" type="line"/>
      <point x="98" y="698" type="line"/>
      <point x="98" y="495" type="line"/>
      <point x="122" y="185" type="line"/>
    </contour>
    <contour>
      <point x="142" y="-12" type="qcurve"/>
      <point x="203" y="-12"/>
      <point x="203" y="46" type="qcurve"/>
      <point x="203" y="59" type="line"/>
      <point x="203" y="117"/>
      <point x="142" y="117" type="qcurve"/>
      <point x="81" y="117"/>
      <point x="81" y="59" type="qcurve"/>
      <point x="81" y="46" type="line"/>
      <point x="81" y="-12"/>
    </contour>
  </outline>
</glyph>
<glyph name="dollar" format="2">
  <advance width="598"/>
  <unicode hex="0024"/>
  <outline>
    <contour>
      <point x="332" y="-82" type="line"/>
      <point x="332" y="0" type="line"/>
      <point x="429" y="10"/>
      <point x="539" y="114"/>
      <point x="539" y="200" type="qcurve"/>
      <point x="539" y="279"/>
      <point x="444" y="369"/>
      <point x="340" y="391" type="qcurve"/>
      <point x="331" y="393" type="line"/>
      <point x="331" y="627" type="line"/>
      <point x="426" y="612"/>
      <point x="474" y="540" type="qcurve"/>
      <point x="535" y="586" type="line"/>
      <point x="466" y="687"/>
      <point x="332" y="699" type="qcurve"/>
      <point x="332" y="780" type="line"/>
      <point x="270" y="780" type="line"/>
      <point x="270" y="698" type="line"/>
      <point x="181" y="691"/>
      <point x="73" y="598"/>
      <point x="73" y="518" type="qcurve"/>
      <point x="73" y="440"/>
      <point x="169" y="350"/>
      <point x="271" y="328" type="qcurve"/>
      <point x="271" y="71" type="line"/>
      <point x="172" y="86"/>
      <point x="111" y="172" type="qcurve"/>
      <point x="52" y="119" type="line"/>
      <point x="131" y="11"/>
      <point x="270" y="0" type="qcurve"/>
      <point x="270" y="-82" type="line"/>
    </contour>
    <contour>
      <point x="331" y="71" type="qcurve"/>
      <point x="331" y="317" type="line"/>
      <point x="400" y="301"/>
      <point x="460" y="246"/>
      <point x="460" y="195" type="qcurve"/>
      <point x="460" y="93"/>
    </contour>
    <contour>
      <point x="271" y="406" type="line"/>
      <point x="211" y="421"/>
      <point x="152" y="473"/>
      <point x="152" y="524" type="qcurve"/>
      <point x="152" y="568"/>
      <point x="216" y="620"/>
      <point x="271" y="627" type="qcurve"/>
    </contour>
  </outline>
</glyph>
<glyph name="percent" format="2">
  <advance width="927"/>
  <unicode hex="0025"/>
  <outline>
    <contour>
      <point x="260" y="0" type="line"/>
      <point x="744" y="698" type="line"/>
      <point x="667" y="698" type="line"/>
      <point x="183" y="0" type="line"/>
    </contour>
    <contour>
      <point x="223" y="314" type="qcurve"/>
      <point x="299" y="314"/>
      <point x="381" y="415"/>
      <point x="381" y="512" type="qcurve"/>
      <point x="381" y="706"/>
      <point x="223" y="710" type="qcurve"/>
      <point x="147" y="710"/>
      <point x="65" y="609"/>
      <point x="65" y="512" type="qcurve"/>
      <point x="65" y="319"/>
    </contour>
    <contour>
      <point x="223" y="366" type="qcurve"/>
      <point x="138" y="366"/>
      <point x="137" y="482" type="qcurve"/>
      <point x="137" y="542" type="line"/>
      <point x="137" y="658"/>
      <point x="223" y="658" type="qcurve"/>
      <point x="309" y="658"/>
      <point x="309" y="542" type="qcurve"/>
      <point x="309" y="482" type="line"/>
      <point x="309" y="367"/>
    </contour>
    <contour>
      <point x="704" y="-12" type="qcurve"/>
      <point x="780" y="-12"/>
      <point x="862" y="89"/>
      <point x="862" y="186" type="qcurve"/>
      <point x="862" y="380"/>
      <point x="704" y="384" type="qcurve"/>
      <point x="628" y="384"/>
      <point x="546" y="283"/>
      <point x="546" y="186" type="qcurve"/>
      <point x="546" y="-7"/>
    </contour>
    <contour>
      <point x="704" y="40" type="qcurve"/>
      <point x="619" y="40"/>
      <point x="618" y="156" type="qcurve"/>
      <point x="618" y="216" type="line"/>
      <point x="618" y="332"/>
      <point x="704" y="332" type="qcurve"/>
      <point x="790" y="332"/>
      <point x="790" y="216" type="qcurve"/>
      <point x="790" y="156" type="line"/>
      <point x="790" y="41"/>
    </contour>
  </outline>
</glyph>
<glyph name="ampersand" format="2">
  <advance width="694"/>
  <unicode hex="0026"/>
  <outline>
    <contour>
      <point x="286" y="-12" type="qcurve"/>
      <point x="362" y="-12"/>
      <point x="420" y="22" type="qcurve"/>
      <point x="467" y="54"/>
      <point x="489" y="82" type="qcurve"/>
      <point x="564" y="0" type="line"/>
      <point x="668" y="0" type="line"/>
      <point x="532" y="145" type="line"/>
      <point x="567" y="211"/>
      <point x="580" y="299" type="qcurve"/>
      <point x="651" y="299" type="line"/>
      <point x="651" y="367" type="line"/>
      <point x="515" y="367" type="line"/>
      <point x="511" y="276"/>
      <point x="482" y="198" type="qcurve"/>
      <point x="325" y="367" type="line"/>
      <point x="393" y="402"/>
      <point x="438" y="447" type="qcurve"/>
      <point x="485" y="496"/>
      <point x="485" y="560" type="qcurve"/>
      <point x="485" y="626"/>
      <point x="391" y="710"/>
      <point x="317" y="710" type="qcurve"/>
      <point x="235" y="710"/>
      <point x="136" y="613"/>
      <point x="136" y="542" type="qcurve"/>
      <point x="136" y="495"/>
      <point x="179" y="416"/>
      <point x="215" y="378" type="qcurve"/>
      <point x="159" y="349"/>
      <point x="117" y="304" type="qcurve"/>
      <point x="72" y="253"/>
      <point x="72" y="181" type="qcurve"/>
      <point x="72" y="102"/>
      <point x="183" y="-12"/>
    </contour>
    <contour>
      <point x="282" y="412" type="qcurve"/>
      <point x="252" y="446"/>
      <point x="215" y="507"/>
      <point x="215" y="537" type="qcurve"/>
      <point x="215" y="549" type="line"/>
      <point x="215" y="589"/>
      <point x="270" y="643"/>
      <point x="313" y="643" type="qcurve"/>
      <point x="351" y="643"/>
      <point x="408" y="599"/>
      <point x="408" y="558" type="qcurve"/>
      <point x="408" y="546" type="line"/>
      <point x="408" y="525"/>
      <point x="397" y="507" type="qcurve"/>
      <point x="367" y="455"/>
    </contour>
    <contour>
      <point x="293" y="58" type="qcurve"/>
      <point x="230" y="58"/>
      <point x="155" y="122"/>
      <point x="155" y="177" type="qcurve"/>
      <point x="155" y="192" type="line"/>
      <point x="155" y="251"/>
      <point x="216" y="312"/>
      <point x="257" y="332" type="qcurve"/>
      <point x="444" y="130" type="line"/>
      <point x="388" y="58"/>
    </contour>
  </outline>
</glyph>
<glyph name="parenleft" format="2">
  <advance width="335"/>
  <unicode hex="0028"/>
  <outline>
    <contour>
      <point x="264" y="-137" type="line"/>
      <point x="188" y="-72"/>
      <point x="137" y="46" type="qcurve"/>
      <point x="83" y="167"/>
      <point x="83" y="312" type="qcurve" smooth="yes"/>
      <point x="83" y="456"/>
      <point x="136" y="576" type="qcurve" smooth="yes"/>
      <point x="186" y="692"/>
      <point x="264" y="760" type="qcurve"/>
      <point x="340" y="760" type="line"/>
      <point x="255" y="682"/>
      <point x="208" y="572" type="qcurve" smooth="yes"/>
      <point x="158" y="458"/>
      <point x="158" y="354" type="qcurve" smooth="yes"/>
      <point x="158" y="268" type="line" smooth="yes"/>
      <point x="158" y="162"/>
      <point x="257" y="-62"/>
      <point x="340" y="-137" type="qcurve"/>
    </contour>
  </outline>
</glyph>
<glyph name="parenright" format="2">
  <advance width="335"/>
  <unicode hex="0029"/>
  <outline>
    <contour>
      <point x="71" y="-137" type="line"/>
      <point x="147" y="-72"/>
      <point x="199" y="46" type="qcurve"/>
      <point x="252" y="173"/>
      <point x="252" y="312" type="qcurve"/>
      <point x="252" y="456"/>
      <point x="200" y="576" type="qcurve"/>
      <point x="149" y="692"/>
      <point x="71" y="760" type="qcurve"/>
      <point x="-5" y="760" type="line"/>
      <point x="80" y="682"/>
      <point x="128" y="572" type="qcurve"/>
      <point x="177" y="458"/>
      <point x="177" y="354" type="qcurve"/>
      <point x="177" y="268" type="line"/>
      <point x="177" y="162"/>
      <point x="76" y="-62"/>
      <point x="-5" y="-137" type="qcurve"/>
    </contour>
  </outline>
</glyph>
<glyph name="comma" format="2">
  <advance width="272"/>
  <unicode hex="002C"/>
  <outline>
    <contour>
      <point x="39" y="-133" type="line"/>
      <point x="98" y="-74"/>
      <point x="114" y="-9" type="qcurve"/>
      <point x="75" y="4"/>
      <point x="75" y="44" type="qcurve" smooth="yes"/>
      <point x="75" y="58" type="line" smooth="yes"/>
      <point x="75" y="117"/>
      <point x="136" y="117" type="qcurve" smooth="yes"/>
      <point x="197" y="117"/>
      <point x="197" y="58" type="qcurve" smooth="yes"/>
      <point x="197" y="44" type="line" smooth="yes"/>
      <point x="197" y="3"/>
      <point x="149" y="-95"/>
      <point x="106" y="-133" type="qcurve"/>
    </contour>
  </outline>
</glyph>
<glyph name="hyphenminus" format="2">
  <advance width="399"/>
  <unicode hex="002D"/>
  <outline>
    <contour>
      <point x="330" y="261" type="line"/>
      <point x="330" y="347" type="line"/>
      <point x="69" y="347" type="line"/>
      <point x="69" y="261" type="line"/>
    </contour>
  </outline>
</glyph>
<glyph name="zero" format="2">
  <advance width="600"/>
  <unicode hex="0030"/>
  <outline>
    <contour>
      <point x="300" y="-12" type="qcurve"/>
      <point x="540" y="-12"/>
      <point x="540" y="349" type="qcurve"/>
      <point x="540" y="710"/>
      <point x="300" y="710" type="qcurve"/>
      <point x="60" y="710"/>
      <point x="60" y="349" type="qcurve"/>
      <point x="60" y="-12"/>
    </contour>
    <contour>
      <point x="300" y="61" type="qcurve"/>
      <point x="221" y="61"/>
      <point x="148" y="190"/>
      <point x="148" y="292" type="qcurve"/>
      <point x="148" y="406" type="line"/>
      <point x="148" y="508"/>
      <point x="221" y="637"/>
      <point x="300" y="637" type="qcurve"/>
      <point x="379" y="637"/>
      <point x="452" y="508"/>
      <point x="452" y="406" type="qcurve"/>
      <point x="452" y="292" type="line"/>
      <point x="452" y="190"/>
      <point x="379" y="61"/>
    </contour>
  </outline>
</glyph>
<glyph name="one" format="2">
  <advance width="600"/>
  <unicode hex="0031"/>
  <outline>
    <contour>
      <point x="382" y="0" type="line"/>
      <point x="298" y="0" type="line"/>
      <point x="298" y="622" type="line"/>
      <point x="148" y="533" type="line"/>
      <point x="148" y="615" type="line"/>
      <point x="290" y="698" type="line"/>
      <point x="382" y="698" type="line"/>
    </contour>
  </outline>
</glyph>
<glyph name="two" format="2">
  <advance width="600"/>
  <unicode hex="0032"/>
  <outline>
    <contour>
      <point x="75" y="0" type="line"/>
      <point x="75" y="86" type="line"/>
      <point x="189" y="191"/>
      <point x="418" y="401"/>
      <point x="418" y="493" type="qcurve" smooth="yes"/>
      <point x="418" y="505" type="line" smooth="yes"/>
      <point x="418" y="563"/>
      <point x="354" y="635"/>
      <point x="289" y="635" type="qcurve" smooth="yes"/>
      <point x="225" y="635"/>
      <point x="192" y="601" type="qcurve"/>
      <point x="157" y="568"/>
      <point x="144" y="517" type="qcurve"/>
      <point x="69" y="546" type="line"/>
      <point x="88" y="610"/>
      <point x="198" y="710"/>
      <point x="293" y="710" type="qcurve" smooth="yes"/>
      <point x="395" y="710"/>
      <point x="507" y="597"/>
      <point x="507" y="507" type="qcurve" smooth="yes"/>
      <point x="507" y="431"/>
      <point x="422" y="303"/>
      <point x="354" y="243" type="qcurve" smooth="yes"/>
      <point x="166" y="74" type="line"/>
      <point x="533" y="74" type="line"/>
      <point x="533" y="0" type="line"/>
    </contour>
  </outline>
</glyph>
<glyph name="three" format="2">
  <advance width="600"/>
  <unicode hex="0033"/>
  <outline>
    <contour>
      <point x="268" y="-12" type="qcurve"/>
      <point x="375" y="-12"/>
      <point x="505" y="101"/>
      <point x="505" y="191" type="qcurve"/>
      <point x="505" y="265"/>
      <point x="460" y="313" type="qcurve"/>
      <point x="416" y="355"/>
      <point x="358" y="367" type="qcurve"/>
      <point x="358" y="371" type="line"/>
      <point x="415" y="385"/>
      <point x="492" y="467"/>
      <point x="492" y="534" type="qcurve"/>
      <point x="492" y="618"/>
      <point x="431" y="665" type="qcurve"/>
      <point x="369" y="710"/>
      <point x="280" y="710" type="qcurve"/>
      <point x="203" y="710"/>
      <point x="147" y="674" type="qcurve"/>
      <point x="98" y="640"/>
      <point x="72" y="596" type="qcurve"/>
      <point x="134" y="548" type="line"/>
      <point x="180" y="635"/>
      <point x="278" y="635" type="qcurve"/>
      <point x="334" y="635"/>
      <point x="403" y="580"/>
      <point x="403" y="525" type="qcurve"/>
      <point x="403" y="518" type="line"/>
      <point x="403" y="467"/>
      <point x="332" y="402"/>
      <point x="261" y="402" type="qcurve"/>
      <point x="185" y="402" type="line"/>
      <point x="185" y="329" type="line"/>
      <point x="267" y="329" type="line"/>
      <point x="416" y="329"/>
      <point x="417" y="200" type="qcurve"/>
      <point x="417" y="192" type="line"/>
      <point x="417" y="130"/>
      <point x="341" y="63"/>
      <point x="267" y="63" type="qcurve"/>
      <point x="203" y="63"/>
      <point x="168" y="88" type="qcurve"/>
      <point x="131" y="113"/>
      <point x="105" y="155" type="qcurve"/>
      <point x="42" y="107" type="line"/>
      <point x="120" y="-12"/>
    </contour>
  </outline>
</glyph>
<glyph name="six" format="2">
  <advance width="600"/>
  <unicode hex="0036"/>
  <outline>
    <contour>
      <point x="301" y="-12" type="qcurve"/>
      <point x="405" y="-12"/>
      <point x="533" y="117"/>
      <point x="533" y="219" type="qcurve"/>
      <point x="533" y="317"/>
      <point x="417" y="434"/>
      <point x="327" y="434" type="qcurve"/>
      <point x="214" y="434"/>
      <point x="159" y="334" type="qcurve"/>
      <point x="154" y="336" type="line"/>
      <point x="182" y="455"/>
      <point x="312" y="618"/>
      <point x="424" y="698" type="qcurve"/>
      <point x="316" y="698" type="line"/>
      <point x="227" y="642"/>
      <point x="150" y="528" type="qcurve"/>
      <point x="67" y="401"/>
      <point x="67" y="256" type="qcurve"/>
      <point x="67" y="132"/>
      <point x="193" y="-12"/>
    </contour>
    <contour>
      <point x="300" y="61" type="qcurve"/>
      <point x="231" y="61"/>
      <point x="154" y="137"/>
      <point x="154" y="208" type="qcurve"/>
      <point x="154" y="216" type="line"/>
      <point x="154" y="359"/>
      <point x="300" y="363" type="qcurve"/>
      <point x="369" y="363"/>
      <point x="446" y="287"/>
      <point x="446" y="216" type="qcurve"/>
      <point x="446" y="208" type="line"/>
      <point x="446" y="66"/>
    </contour>
  </outline>
</glyph>
<glyph name="eight" format="2">
  <advance width="600"/>
  <unicode hex="0038"/>
  <outline>
    <contour>
      <point x="300" y="-12" type="qcurve"/>
      <point x="416" y="-12"/>
      <point x="481" y="46" type="qcurve"/>
      <point x="542" y="105"/>
      <point x="542" y="190" type="qcurve"/>
      <point x="542" y="262"/>
      <point x="465" y="346"/>
      <point x="401" y="363" type="qcurve"/>
      <point x="401" y="371" type="line"/>
      <point x="456" y="390"/>
      <point x="521" y="475"/>
      <point x="521" y="535" type="qcurve"/>
      <point x="521" y="615"/>
      <point x="405" y="710"/>
      <point x="300" y="710" type="qcurve"/>
      <point x="195" y="710"/>
      <point x="79" y="615"/>
      <point x="79" y="535" type="qcurve"/>
      <point x="79" y="475"/>
      <point x="144" y="390"/>
      <point x="199" y="371" type="qcurve"/>
      <point x="199" y="363" type="line"/>
      <point x="135" y="346"/>
      <point x="58" y="262"/>
      <point x="58" y="190" type="qcurve"/>
      <point x="58" y="105"/>
      <point x="184" y="-12"/>
    </contour>
    <contour>
      <point x="300" y="61" type="qcurve"/>
      <point x="227" y="61"/>
      <point x="147" y="126"/>
      <point x="147" y="186" type="qcurve"/>
      <point x="147" y="207" type="line"/>
      <point x="147" y="327"/>
      <point x="300" y="332" type="qcurve"/>
      <point x="373" y="332"/>
      <point x="453" y="267"/>
      <point x="453" y="207" type="qcurve"/>
      <point x="453" y="186" type="line"/>
      <point x="453" y="66"/>
    </contour>
    <contour>
      <point x="300" y="402" type="qcurve"/>
      <point x="168" y="402"/>
      <point x="166" y="512" type="qcurve"/>
      <point x="166" y="527" type="line"/>
      <point x="166" y="635"/>
      <point x="300" y="637" type="qcurve"/>
      <point x="432" y="637"/>
      <point x="434" y="527" type="qcurve"/>
      <point x="434" y="512" type="line"/>
      <point x="434" y="404"/>
    </contour>
  </outline>
</glyph>
<glyph name="nine" format="2">
  <advance width="600"/>
  <unicode hex="0039"/>
  <outline>
    <contour>
      <point x="284" y="0" type="line"/>
      <point x="373" y="56"/>
      <point x="451" y="171" type="qcurve"/>
      <point x="533" y="297"/>
      <point x="533" y="442" type="qcurve"/>
      <point x="533" y="567"/>
      <point x="471" y="639" type="qcurve"/>
      <point x="407" y="710"/>
      <point x="299" y="710" type="qcurve"/>
      <point x="193" y="710"/>
      <point x="67" y="581"/>
      <point x="67" y="479" type="qcurve"/>
      <point x="67" y="379"/>
      <point x="183" y="264"/>
      <point x="273" y="264" type="qcurve"/>
      <point x="386" y="264"/>
      <point x="441" y="364" type="qcurve"/>
      <point x="446" y="362" type="line"/>
      <point x="418" y="243"/>
      <point x="288" y="80"/>
      <point x="176" y="0" type="qcurve"/>
    </contour>
    <contour>
      <point x="300" y="335" type="qcurve"/>
      <point x="231" y="335"/>
      <point x="154" y="411"/>
      <point x="154" y="482" type="qcurve"/>
      <point x="154" y="490" type="line"/>
      <point x="154" y="633"/>
      <point x="300" y="637" type="qcurve"/>
      <point x="369" y="637"/>
      <point x="446" y="561"/>
      <point x="446" y="490" type="qcurve"/>
      <point x="446" y="482" type="line"/>
      <point x="446" y="340"/>
    </contour>
  </outline>
</glyph>
<glyph name="colon" format="2">
  <advance width="292"/>
  <unicode hex="003A"/>
  <outline>
    <contour>
      <point x="146" y="-12" type="qcurve"/>
      <point x="207" y="-12"/>
      <point x="207" y="46" type="qcurve"/>
      <point x="207" y="59" type="line"/>
      <point x="207" y="117"/>
      <point x="146" y="117" type="qcurve"/>
      <point x="85" y="117"/>
      <point x="85" y="59" type="qcurve"/>
      <point x="85" y="46" type="line"/>
      <point x="85" y="-12"/>
    </contour>
    <contour>
      <point x="146" y="394" type="qcurve"/>
      <point x="207" y="394"/>
      <point x="207" y="452" type="qcurve"/>
      <point x="207" y="465" type="line"/>
      <point x="207" y="523"/>
      <point x="146" y="523" type="qcurve"/>
      <point x="85" y="523"/>
      <point x="85" y="465" type="qcurve"/>
      <point x="85" y="452" type="line"/>
      <point x="85" y="394"/>
    </contour>
  </outline>
</glyph>
<glyph name="semicolon" format="2">
  <advance width="292"/>
  <unicode hex="003B"/>
  <outline>
    <contour>
      <point x="116" y="-133" type="line"/>
      <point x="159" y="-95"/>
      <point x="207" y="3"/>
      <point x="207" y="44" type="qcurve"/>
      <point x="207" y="58" type="line"/>
      <point x="207" y="117"/>
      <point x="146" y="117" type="qcurve"/>
      <point x="85" y="117"/>
      <point x="85" y="58" type="qcurve"/>
      <point x="85" y="44" type="line"/>
      <point x="85" y="4"/>
      <point x="124" y="-9" type="qcurve"/>
      <point x="108" y="-74"/>
      <point x="49" y="-133" type="qcurve"/>
    </contour>
    <contour>
      <point x="146" y="394" type="qcurve"/>
      <point x="207" y="394"/>
      <point x="207" y="452" type="qcurve"/>
      <point x="207" y="465" type="line"/>
      <point x="207" y="523"/>
      <point x="146" y="523" type="qcurve"/>
      <point x="85" y="523"/>
      <point x="85" y="465" type="qcurve"/>
      <point x="85" y="452" type="line"/>
      <point x="85" y="394"/>
    </contour>
  </outline>
</glyph>
<glyph name="at" format="2">
  <advance width="891"/>
  <unicode hex="0040"/>
  <outline>
    <contour>
      <point x="679" y="-121" type="line"/>
      <point x="679" y="-60" type="line"/>
      <point x="448" y="-60" type="line"/>
      <point x="306" y="-60"/>
      <point x="220" y="30" type="qcurve"/>
      <point x="132" y="120"/>
      <point x="132" y="262" type="qcurve"/>
      <point x="132" y="321" type="line"/>
      <point x="132" y="459"/>
      <point x="311" y="648"/>
      <point x="455" y="648" type="qcurve"/>
      <point x="583" y="648"/>
      <point x="760" y="488"/>
      <point x="760" y="356" type="qcurve"/>
      <point x="760" y="310" type="line"/>
      <point x="760" y="226"/>
      <point x="712" y="130"/>
      <point x="665" y="130" type="qcurve"/>
      <point x="637" y="130"/>
      <point x="610" y="157"/>
      <point x="610" y="196" type="qcurve"/>
      <point x="610" y="500" type="line"/>
      <point x="541" y="500" type="line"/>
      <point x="541" y="432" type="line"/>
      <point x="537" y="432" type="line"/>
      <point x="505" y="509"/>
      <point x="423" y="509" type="qcurve"/>
      <point x="353" y="509"/>
      <point x="301" y="455" type="qcurve"/>
      <point x="249" y="397"/>
      <point x="249" y="289" type="qcurve"/>
      <point x="249" y="181"/>
      <point x="301" y="123" type="qcurve"/>
      <point x="353" y="69"/>
      <point x="423" y="69" type="qcurve"/>
      <point x="469" y="69"/>
      <point x="527" y="115"/>
      <point x="547" y="155" type="qcurve"/>
      <point x="551" y="155" type="line"/>
      <point x="562" y="69"/>
      <point x="652" y="69" type="qcurve"/>
      <point x="741" y="69"/>
      <point x="786" y="145" type="qcurve"/>
      <point x="826" y="212"/>
      <point x="826" y="323" type="qcurve"/>
      <point x="826" y="426"/>
      <point x="764" y="573"/>
      <point x="659" y="665"/>
      <point x="526" y="708"/>
      <point x="456" y="708" type="qcurve"/>
      <point x="367" y="708"/>
      <point x="223" y="647"/>
      <point x="172" y="591" type="qcurve"/>
      <point x="65" y="474"/>
      <point x="65" y="288" type="qcurve"/>
      <point x="65" y="102"/>
      <point x="275" y="-121"/>
      <point x="447" y="-121" type="qcurve"/>
    </contour>
    <contour>
      <point x="437" y="135" type="qcurve"/>
      <point x="383" y="135"/>
      <point x="333" y="197"/>
      <point x="333" y="249" type="qcurve"/>
      <point x="333" y="329" type="line"/>
      <point x="333" y="381"/>
      <point x="383" y="443"/>
      <point x="437" y="443" type="qcurve"/>
      <point x="491" y="443"/>
      <point x="541" y="391"/>
      <point x="541" y="353" type="qcurve"/>
      <point x="541" y="231" type="line"/>
      <point x="541" y="135"/>
    </contour>
  </outline>
</glyph>
<glyph name="D" format="2">
  <advance width="671"/>
  <unicode hex="0044"/>
  <outline>
    <contour>
      <point x="327" y="0" type="line"/>
      <point x="458" y="0"/>
      <point x="613" y="175"/>
      <point x="613" y="349" type="qcurve"/>
      <point x="613" y="523"/>
      <point x="458" y="698"/>
      <point x="327" y="698" type="qcurve"/>
      <point x="93" y="698" type="line"/>
      <point x="93" y="0" type="line"/>
    </contour>
    <contour>
      <point x="327" y="74" type="qcurve"/>
      <point x="177" y="74" type="line"/>
      <point x="177" y="624" type="line"/>
      <point x="327" y="624" type="line"/>
      <point x="413" y="624"/>
      <point x="523" y="510"/>
      <point x="523" y="406" type="qcurve"/>
      <point x="523" y="292" type="line"/>
      <point x="523" y="189"/>
      <point x="413" y="74"/>
    </contour>
  </outline>
</glyph>
<glyph name="F" format="2">
  <advance width="559"/>
  <unicode hex="0046"/>
  <outline>
    <contour>
      <point x="177" y="0" type="line"/>
      <point x="177" y="316" type="line"/>
      <point x="480" y="316" type="line"/>
      <point x="480" y="390" type="line"/>
      <point x="177" y="390" type="line"/>
      <point x="177" y="624" type="line"/>
      <point x="509" y="624" type="line"/>
      <point x="509" y="698" type="line"/>
      <point x="93" y="698" type="line"/>
      <point x="93" y="0" type="line"/>
    </contour>
  </outline>
</glyph>
<glyph name="G" format="2">
  <advance width="676"/>
  <unicode hex="0047"/>
  <outline>
    <contour>
      <point x="50" y="349" type="qcurve"/>
      <point x="50" y="469"/>
      <point x="119" y="630"/>
      <point x="250" y="710"/>
      <point x="342" y="710" type="qcurve"/>
      <point x="391" y="710"/>
      <point x="470" y="687"/>
      <point x="534" y="646"/>
      <point x="581" y="589"/>
      <point x="596" y="553" type="qcurve"/>
      <point x="526" y="510" type="line"/>
      <point x="514" y="544"/>
      <point x="468" y="601"/>
      <point x="395" y="634"/>
      <point x="342" y="634" type="qcurve"/>
      <point x="278" y="634"/>
      <point x="189" y="577"/>
      <point x="143" y="476"/>
      <point x="143" y="408" type="qcurve"/>
      <point x="143" y="291" type="line"/>
      <point x="143" y="241"/>
      <point x="168" y="158"/>
      <point x="220" y="97"/>
      <point x="297" y="64"/>
      <point x="348" y="64" type="qcurve"/>
      <point x="405" y="64"/>
      <point x="485" y="106"/>
      <point x="527" y="184"/>
      <point x="527" y="237" type="qcurve"/>
      <point x="527" y="281" type="line"/>
      <point x="337" y="281" type="line"/>
      <point x="337" y="359" type="line"/>
      <point x="612" y="359" type="line"/>
      <point x="612" y="257" type="line"/>
      <point x="612" y="177"/>
      <point x="559" y="73"/>
      <point x="475" y="13"/>
      <point x="379" y="-12"/>
      <point x="335" y="-12" type="qcurve"/>
      <point x="289" y="-12"/>
      <point x="203" y="13"/>
      <point x="133" y="66"/>
      <point x="79" y="152"/>
      <point x="50" y="271"/>
    </contour>
  </outline>
</glyph>
<glyph name="K" format="2">
  <advance width="634"/>
  <unicode hex="004B"/>
  <outline>
    <contour>
      <point x="612" y="0" type="line"/>
      <point x="334" y="399" type="line"/>
      <point x="594" y="698" type="line"/>
      <point x="491" y="698" type="line"/>
      <point x="335" y="513"/>
      <point x="180" y="327" type="qcurve"/>
      <point x="177" y="327" type="line"/>
      <point x="177" y="698" type="line"/>
      <point x="93" y="698" type="line"/>
      <point x="93" y="0" type="line"/>
      <point x="177" y="0" type="line"/>
      <point x="177" y="233" type="line"/>
      <point x="276" y="343" type="line"/>
      <point x="508" y="0" type="line"/>
    </contour>
  </outline>
</glyph>
<glyph name="L" format="2">
  <advance width="501"/>
  <unicode hex="004C"/>
  <outline>
    <contour>
      <point x="93" y="0" type="line"/>
      <point x="93" y="698" type="line"/>
      <point x="177" y="698" type="line"/>
      <point x="177" y="74" type="line"/>
      <point x="474" y="74" type="line"/>
      <point x="474" y="0" type="line"/>
    </contour>
  </outline>
</glyph>
<glyph name="O" format="2">
  <advance width="708"/>
  <unicode hex="004F"/>
  <outline>
    <contour>
      <point x="354" y="-12" type="qcurve"/>
      <point x="488" y="-12"/>
      <point x="650" y="174"/>
      <point x="650" y="349" type="qcurve"/>
      <point x="650" y="525"/>
      <point x="488" y="710"/>
      <point x="354" y="710" type="qcurve"/>
      <point x="218" y="710"/>
      <point x="139" y="617" type="qcurve"/>
      <point x="58" y="525"/>
      <point x="58" y="349" type="qcurve"/>
      <point x="58" y="174"/>
      <point x="139" y="81" type="qcurve"/>
      <point x="218" y="-12"/>
    </contour>
    <contour>
      <point x="354" y="63" type="qcurve"/>
      <point x="264" y="63"/>
      <point x="148" y="188"/>
      <point x="148" y="291" type="qcurve"/>
      <point x="148" y="407" type="line"/>
      <point x="148" y="511"/>
      <point x="264" y="635"/>
      <point x="354" y="635" type="qcurve"/>
      <point x="444" y="635"/>
      <point x="560" y="511"/>
      <point x="560" y="407" type="qcurve"/>
      <point x="560" y="291" type="line"/>
      <point x="560" y="188"/>
      <point x="444" y="63"/>
    </contour>
  </outline>
</glyph>
<glyph name="Q" format="2">
  <advance width="708"/>
  <unicode hex="0051"/>
  <outline>
    <contour>
      <point x="354" y="-12" type="qcurve" smooth="yes"/>
      <point x="218" y="-12"/>
      <point x="139" y="81" type="qcurve"/>
      <point x="58" y="174"/>
      <point x="58" y="349" type="qcurve" smooth="yes"/>
      <point x="58" y="525"/>
      <point x="139" y="617" type="qcurve"/>
      <point x="218" y="710"/>
      <point x="354" y="710" type="qcurve" smooth="yes"/>
      <point x="488" y="710"/>
      <point x="650" y="525"/>
      <point x="650" y="349" type="qcurve" smooth="yes"/>
      <point x="650" y="174"/>
      <point x="569" y="81" type="qcurve" smooth="yes"/>
      <point x="546" y="55"/>
      <point x="519" y="36" type="qcurve"/>
      <point x="552" y="-15"/>
      <point x="658" y="-15" type="qcurve"/>
      <point x="656" y="-90" type="line"/>
      <point x="541" y="-90"/>
      <point x="492" y="-47" type="qcurve" smooth="yes"/>
      <point x="467" y="-26"/>
      <point x="451" y="2" type="qcurve"/>
      <point x="407" y="-12"/>
    </contour>
    <contour>
      <point x="354" y="63" type="qcurve" smooth="yes"/>
      <point x="444" y="63"/>
      <point x="560" y="188"/>
      <point x="560" y="291" type="qcurve" smooth="yes"/>
      <point x="560" y="407" type="line" smooth="yes"/>
      <point x="560" y="511"/>
      <point x="444" y="635"/>
      <point x="354" y="635" type="qcurve" smooth="yes"/>
      <point x="264" y="635"/>
      <point x="148" y="511"/>
      <point x="148" y="407" type="qcurve" smooth="yes"/>
      <point x="148" y="291" type="line" smooth="yes"/>
      <point x="148" y="188"/>
      <point x="264" y="63"/>
    </contour>
  </outline>
</glyph>
<glyph name="S" format="2">
  <advance width="581"/>
  <unicode hex="0053"/>
  <outline>
    <contour>
      <point x="289" y="-12" type="qcurve"/>
      <point x="402" y="-12"/>
      <point x="529" y="102"/>
      <point x="529" y="198" type="qcurve"/>
      <point x="529" y="354"/>
      <point x="334" y="393" type="qcurve"/>
      <point x="277" y="406" type="line"/>
      <point x="211" y="420"/>
      <point x="146" y="472"/>
      <point x="146" y="522" type="qcurve"/>
      <point x="146" y="579"/>
      <point x="223" y="636"/>
      <point x="290" y="636" type="qcurve"/>
      <point x="351" y="636"/>
      <point x="433" y="590"/>
      <point x="462" y="550" type="qcurve"/>
      <point x="525" y="596" type="line"/>
      <point x="447" y="710"/>
      <point x="294" y="710" type="qcurve"/>
      <point x="192" y="710"/>
      <point x="63" y="611"/>
      <point x="63" y="519" type="qcurve"/>
      <point x="63" y="438"/>
      <point x="164" y="348"/>
      <point x="260" y="327" type="qcurve"/>
      <point x="317" y="314" type="line"/>
      <point x="385" y="299"/>
      <point x="446" y="244"/>
      <point x="446" y="194" type="qcurve"/>
      <point x="446" y="134"/>
      <point x="367" y="62"/>
      <point x="292" y="62" type="qcurve"/>
      <point x="231" y="62"/>
      <point x="140" y="113"/>
      <point x="104" y="162" type="qcurve"/>
      <point x="42" y="110" type="line"/>
      <point x="130" y="-12"/>
    </contour>
  </outline>
</glyph>
<glyph name="U" format="2">
  <advance width="678"/>
  <unicode hex="0055"/>
  <outline>
    <contour>
      <point x="336" y="-12" type="qcurve"/>
      <point x="476" y="-12"/>
      <point x="590" y="135"/>
      <point x="590" y="286" type="qcurve"/>
      <point x="590" y="698" type="line"/>
      <point x="506" y="698" type="line"/>
      <point x="506" y="266" type="line"/>
      <point x="506" y="166"/>
      <point x="432" y="63"/>
      <point x="339" y="63" type="qcurve"/>
      <point x="246" y="63"/>
      <point x="172" y="166"/>
      <point x="172" y="266" type="qcurve"/>
      <point x="172" y="698" type="line"/>
      <point x="88" y="698" type="line"/>
      <point x="88" y="286" type="line"/>
      <point x="88" y="130"/>
      <point x="142" y="61" type="qcurve"/>
      <point x="197" y="-12"/>
    </contour>
  </outline>
</glyph>
<glyph name="W" format="2">
  <advance width="891"/>
  <unicode hex="0057"/>
  <outline>
    <contour>
      <point x="692" y="0" type="line"/>
      <point x="871" y="698" type="line"/>
      <point x="785" y="698" type="line"/>
      <point x="646" y="102" type="line"/>
      <point x="643" y="102" type="line"/>
      <point x="493" y="698" type="line"/>
      <point x="397" y="698" type="line"/>
      <point x="309" y="362" type="line"/>
      <point x="244" y="101" type="line"/>
      <point x="242" y="101" type="line"/>
      <point x="109" y="698" type="line"/>
      <point x="20" y="698" type="line"/>
      <point x="190" y="0" type="line"/>
      <point x="283" y="0" type="line"/>
      <point x="364" y="302"/>
      <point x="442" y="604" type="qcurve"/>
      <point x="444" y="604" type="line"/>
      <point x="508" y="348" type="line"/>
      <point x="599" y="0" type="line"/>
    </contour>
  </outline>
</glyph>
<glyph name="d" format="2">
  <advance width="580"/>
  <unicode hex="0064"/>
  <outline>
    <contour>
      <point x="260" y="-12" type="qcurve"/>
      <point x="364" y="-12"/>
      <point x="411" y="84" type="qcurve"/>
      <point x="415" y="84" type="line"/>
      <point x="415" y="0" type="line"/>
      <point x="495" y="0" type="line"/>
      <point x="495" y="740" type="line"/>
      <point x="415" y="740" type="line"/>
      <point x="415" y="432" type="line"/>
      <point x="411" y="432" type="line"/>
      <point x="368" y="528"/>
      <point x="260" y="528" type="qcurve"/>
      <point x="164" y="528"/>
      <point x="50" y="383"/>
      <point x="50" y="258" type="qcurve"/>
      <point x="50" y="134"/>
      <point x="164" y="-12"/>
    </contour>
    <contour>
      <point x="282" y="60" type="qcurve"/>
      <point x="214" y="60"/>
      <point x="136" y="145"/>
      <point x="136" y="214" type="qcurve"/>
      <point x="136" y="302" type="line"/>
      <point x="136" y="371"/>
      <point x="214" y="456"/>
      <point x="282" y="456" type="qcurve"/>
      <point x="336" y="456"/>
      <point x="415" y="399"/>
      <point x="415" y="357" type="qcurve"/>
      <point x="415" y="165" type="line"/>
      <point x="415" y="116"/>
      <point x="336" y="60"/>
    </contour>
  </outline>
</glyph>
<glyph name="f" format="2">
  <advance width="324"/>
  <unicode hex="0066"/>
  <outline>
    <contour>
      <point x="113" y="0" type="line"/>
      <point x="113" y="446" type="line"/>
      <point x="29" y="446" type="line"/>
      <point x="29" y="516" type="line"/>
      <point x="113" y="516" type="line"/>
      <point x="113" y="620" type="line" smooth="yes"/>
      <point x="113" y="674"/>
      <point x="169" y="740"/>
      <point x="226" y="740" type="qcurve" smooth="yes"/>
      <point x="304" y="740" type="line"/>
      <point x="304" y="670" type="line"/>
      <point x="193" y="670" type="line"/>
      <point x="193" y="516" type="line"/>
      <point x="304" y="516" type="line"/>
      <point x="304" y="446" type="line"/>
      <point x="193" y="446" type="line"/>
      <point x="193" y="0" type="line"/>
    </contour>
  </outline>
</glyph>
<glyph name="g" format="2">
  <advance width="531"/>
  <unicode hex="0067"/>
  <outline>
    <contour>
      <point x="270" y="-212" type="qcurve" smooth="yes"/>
      <point x="149" y="-212"/>
      <point x="43" y="-146"/>
      <point x="43" y="-85" type="qcurve" smooth="yes"/>
      <point x="43" y="-9"/>
      <point x="125" y="15" type="qcurve"/>
      <point x="125" y="26" type="line"/>
      <point x="79" y="48"/>
      <point x="79" y="98" type="qcurve" smooth="yes"/>
      <point x="79" y="137"/>
      <point x="129" y="178"/>
      <point x="168" y="188" type="qcurve"/>
      <point x="168" y="192" type="line"/>
      <point x="122" y="214"/>
      <point x="71" y="296"/>
      <point x="71" y="350" type="qcurve" smooth="yes"/>
      <point x="71" y="429"/>
      <point x="178" y="528"/>
      <point x="265" y="528" type="qcurve" smooth="yes"/>
      <point x="308" y="528"/>
      <point x="343" y="516" type="qcurve"/>
      <point x="504" y="516" type="line"/>
      <point x="504" y="452" type="line"/>
      <point x="424" y="452" type="line"/>
      <point x="461" y="408"/>
      <point x="461" y="350" type="qcurve" smooth="yes"/>
      <point x="461" y="271"/>
      <point x="354" y="172"/>
      <point x="266" y="172" type="qcurve" smooth="yes"/>
      <point x="241" y="172"/>
      <point x="216" y="177" type="qcurve"/>
      <point x="148" y="159"/>
      <point x="148" y="119" type="qcurve" smooth="yes"/>
      <point x="148" y="96"/>
      <point x="192" y="80"/>
      <point x="227" y="80" type="qcurve" smooth="yes"/>
      <point x="337" y="80" type="line" smooth="yes"/>
      <point x="520" y="80"/>
      <point x="520" y="-57" type="qcurve" smooth="yes"/>
      <point x="520" y="-137"/>
      <point x="395" y="-212"/>
    </contour>
    <contour>
      <point x="266" y="236" type="qcurve" smooth="yes"/>
      <point x="317" y="236"/>
      <point x="377" y="285"/>
      <point x="377" y="336" type="qcurve" smooth="yes"/>
      <point x="377" y="364" type="line" smooth="yes"/>
      <point x="377" y="415"/>
      <point x="317" y="464"/>
      <point x="266" y="464" type="qcurve" smooth="yes"/>
      <point x="215" y="464"/>
      <point x="155" y="415"/>
      <point x="155" y="364" type="qcurve" smooth="yes"/>
      <point x="155" y="336" type="line" smooth="yes"/>
      <point x="155" y="285"/>
      <point x="215" y="236"/>
    </contour>
    <contour>
      <point x="304" y="-147" type="line" smooth="yes"/>
      <point x="371" y="-147"/>
      <point x="445" y="-105"/>
      <point x="445" y="-63" type="qcurve" smooth="yes"/>
      <point x="445" y="-32"/>
      <point x="398" y="5"/>
      <point x="338" y="5" type="qcurve" smooth="yes"/>
      <point x="166" y="5" type="line"/>
      <point x="118" y="-17"/>
      <point x="118" y="-65" type="qcurve" smooth="yes"/>
      <point x="118" y="-99"/>
      <point x="169" y="-147"/>
      <point x="230" y="-147" type="qcurve" smooth="yes"/>
    </contour>
  </outline>
</glyph>
<glyph name="j" format="2">
  <advance width="250"/>
  <unicode hex="006A"/>
  <outline>
    <contour>
      <point x="53" y="-200" type="line"/>
      <point x="111" y="-200"/>
      <point x="165" y="-134"/>
      <point x="165" y="-80" type="qcurve"/>
      <point x="165" y="516" type="line"/>
      <point x="85" y="516" type="line"/>
      <point x="85" y="-130" type="line"/>
      <point x="1" y="-130" type="line"/>
      <point x="1" y="-200" type="line"/>
    </contour>
    <contour>
      <point x="125" y="637" type="qcurve"/>
      <point x="174" y="637"/>
      <point x="174" y="682" type="qcurve"/>
      <point x="174" y="695" type="line"/>
      <point x="174" y="740"/>
      <point x="125" y="740" type="qcurve"/>
      <point x="76" y="740"/>
      <point x="76" y="695" type="qcurve"/>
      <point x="76" y="682" type="line"/>
      <point x="76" y="637"/>
    </contour>
  </outline>
</glyph>
<glyph name="l" format="2">
  <advance width="272"/>
  <unicode hex="006C"/>
  <outline>
    <contour>
      <point x="241" y="0" type="line"/>
      <point x="241" y="70" type="line"/>
      <point x="165" y="70" type="line"/>
      <point x="165" y="740" type="line"/>
      <point x="85" y="740" type="line"/>
      <point x="85" y="83" type="line"/>
      <point x="85" y="47"/>
      <point x="128" y="0"/>
      <point x="170" y="0" type="qcurve"/>
    </contour>
  </outline>
</glyph>
<glyph name="r" format="2">
  <advance width="367"/>
  <unicode hex="0072"/>
  <outline>
    <contour>
      <point x="165" y="0" type="line"/>
      <point x="165" y="350" type="line"/>
      <point x="165" y="387"/>
      <point x="238" y="436"/>
      <point x="303" y="436" type="qcurve"/>
      <point x="350" y="436" type="line"/>
      <point x="350" y="516" type="line"/>
      <point x="319" y="516" type="line"/>
      <point x="256" y="516"/>
      <point x="184" y="459"/>
      <point x="170" y="421" type="qcurve"/>
      <point x="165" y="421" type="line"/>
      <point x="165" y="516" type="line"/>
      <point x="85" y="516" type="line"/>
      <point x="85" y="0" type="line"/>
    </contour>
  </outline>
</glyph>
<glyph name="t" format="2">
  <advance width="351"/>
  <unicode hex="0074"/>
  <outline>
    <contour>
      <point x="199" y="0" type="line" smooth="yes"/>
      <point x="157" y="0"/>
      <point x="114" y="47"/>
      <point x="114" y="85" type="qcurve" smooth="yes"/>
      <point x="114" y="446" type="line"/>
      <point x="29" y="446" type="line"/>
      <point x="29" y="516" type="line"/>
      <point x="77" y="516" type="line" smooth="yes"/>
      <point x="103" y="516"/>
      <point x="122" y="537"/>
      <point x="122" y="563" type="qcurve" smooth="yes"/>
      <point x="122" y="659" type="line"/>
      <point x="194" y="659" type="line"/>
      <point x="194" y="516" type="line"/>
      <point x="307" y="516" type="line"/>
      <point x="307" y="446" type="line"/>
      <point x="194" y="446" type="line"/>
      <point x="194" y="70" type="line"/>
      <point x="299" y="70" type="line"/>
      <point x="299" y="0" type="line"/>
    </contour>
  </outline>
</glyph>
<glyph name="w" format="2">
  <advance width="768"/>
  <unicode hex="0077"/>
  <outline>
    <contour>
      <point x="600" y="0" type="line"/>
      <point x="737" y="516" type="line"/>
      <point x="662" y="516" type="line"/>
      <point x="606" y="293"/>
      <point x="553" y="67" type="qcurve"/>
      <point x="551" y="67" type="line"/>
      <point x="487" y="293"/>
      <point x="420" y="516" type="qcurve"/>
      <point x="349" y="516" type="line"/>
      <point x="221" y="67" type="line"/>
      <point x="219" y="67" type="line"/>
      <point x="109" y="516" type="line"/>
      <point x="31" y="516" type="line"/>
      <point x="169" y="0" type="line"/>
      <point x="266" y="0" type="line"/>
      <point x="325" y="202"/>
      <point x="382" y="405" type="qcurve"/>
      <point x="384" y="405" type="line"/>
      <point x="501" y="0" type="line"/>
    </contour>
  </outline>
</glyph>
<glyph name="y" format="2">
  <advance width="499"/>
  <unicode hex="0079"/>
  <outline>
    <contour>
      <point x="131" y="-200" type="line"/>
      <point x="187" y="-200"/>
      <point x="235" y="-166"/>
      <point x="251" y="-120" type="qcurve"/>
      <point x="482" y="516" type="line"/>
      <point x="403" y="516" type="line"/>
      <point x="278" y="165"/>
      <point x="250" y="81" type="qcurve"/>
      <point x="245" y="81" type="line"/>
      <point x="221" y="165" type="line"/>
      <point x="97" y="516" type="line"/>
      <point x="17" y="516" type="line"/>
      <point x="210" y="-20" type="line"/>
      <point x="171" y="-130" type="line"/>
      <point x="90" y="-130" type="line"/>
      <point x="90" y="-200" type="line"/>
    </contour>
  </outline>
</glyph>
<glyph name="z" format="2">
  <advance width="464"/>
  <unicode hex="007A"/>
  <outline>
    <contour>
      <point x="431" y="0" type="line"/>
      <point x="431" y="70" type="line"/>
      <point x="124" y="70" type="line"/>
      <point x="423" y="456" type="line"/>
      <point x="423" y="516" type="line"/>
      <point x="42" y="516" type="line"/>
      <point x="42" y="446" type="line"/>
      <point x="326" y="446" type="line"/>
      <point x="33" y="67" type="line"/>
      <point x="33" y="0" type="line"/>
    </contour>
  </outline>
</glyph>
<glyph name="braceleft" format="2">
  <advance width="343"/>
  <unicode hex="007B"/>
  <outline>
    <contour>
      <point x="283" y="-138" type="line"/>
      <point x="283" y="-75" type="line"/>
      <point x="188" y="-75" type="line"/>
      <point x="188" y="175" type="line"/>
      <point x="188" y="222"/>
      <point x="136" y="294"/>
      <point x="93" y="303" type="qcurve"/>
      <point x="93" y="319" type="line"/>
      <point x="136" y="328"/>
      <point x="188" y="400"/>
      <point x="188" y="447" type="qcurve"/>
      <point x="188" y="697" type="line"/>
      <point x="283" y="697" type="line"/>
      <point x="283" y="760" type="line"/>
      <point x="199" y="760" type="line"/>
      <point x="159" y="760"/>
      <point x="119" y="713"/>
      <point x="119" y="678" type="qcurve"/>
      <point x="119" y="438" type="line"/>
      <point x="119" y="395"/>
      <point x="64" y="350"/>
      <point x="22" y="350" type="qcurve"/>
      <point x="22" y="272" type="line"/>
      <point x="64" y="272"/>
      <point x="119" y="227"/>
      <point x="119" y="184" type="qcurve"/>
      <point x="119" y="-56" type="line"/>
      <point x="119" y="-91"/>
      <point x="159" y="-138"/>
      <point x="199" y="-138" type="qcurve"/>
    </contour>
  </outline>
</glyph>
<glyph name="braceright" format="2">
  <advance width="343"/>
  <unicode hex="007D"/>
  <outline>
    <contour>
      <point x="60" y="-138" type="line"/>
      <point x="60" y="-75" type="line"/>
      <point x="155" y="-75" type="line"/>
      <point x="155" y="175" type="line" smooth="yes"/>
      <point x="155" y="222"/>
      <point x="207" y="294"/>
      <point x="250" y="303" type="qcurve"/>
      <point x="250" y="319" type="line"/>
      <point x="207" y="328"/>
      <point x="155" y="400"/>
      <point x="155" y="447" type="qcurve" smooth="yes"/>
      <point x="155" y="697" type="line"/>
      <point x="60" y="697" type="line"/>
      <point x="60" y="760" type="line"/>
      <point x="144" y="760" type="line" smooth="yes"/>
      <point x="184" y="760"/>
      <point x="224" y="713"/>
      <point x="224" y="678" type="qcurve" smooth="yes"/>
      <point x="224" y="438" type="line" smooth="yes"/>
      <point x="224" y="395"/>
      <point x="279" y="350"/>
      <point x="321" y="350" type="qcurve"/>
      <point x="321" y="272" type="line"/>
      <point x="279" y="272"/>
      <point x="224" y="227"/>
      <point x="224" y="184" type="qcurve" smooth="yes"/>
      <point x="224" y="-56" type="line" smooth="yes"/>
      <point x="224" y="-91"/>
      <point x="184" y="-138"/>
      <point x="144" y="-138" type="qcurve" smooth="yes"/>
    </contour>
  </outline>
</glyph>
<glyph name="asciitilde" format="2">
  <advance width="600"/>
  <unicode hex="007E"/>
  <outline>
    <contour>
      <point x="419" y="236" type="qcurve" smooth="yes"/>
      <point x="382" y="236"/>
      <point x="324" y="256"/>
      <point x="290" y="273" type="qcurve"/>
      <point x="263" y="288"/>
      <point x="208" y="307"/>
      <point x="177" y="307" type="qcurve" smooth="yes"/>
      <point x="152" y="307"/>
      <point x="116" y="292"/>
      <point x="94" y="275" type="qcurve"/>
      <point x="61" y="319" type="line"/>
      <point x="81" y="344"/>
      <point x="136" y="374"/>
      <point x="181" y="374" type="qcurve" smooth="yes"/>
      <point x="218" y="374"/>
      <point x="276" y="354"/>
      <point x="310" y="337" type="qcurve" smooth="yes"/>
      <point x="338" y="322"/>
      <point x="392" y="303"/>
      <point x="423" y="303" type="qcurve" smooth="yes"/>
      <point x="448" y="303"/>
      <point x="484" y="318"/>
      <point x="506" y="335" type="qcurve"/>
      <point x="539" y="291" type="line"/>
      <point x="519" y="266"/>
      <point x="464" y="236"/>
    </contour>
  </outline>
</glyph>
<glyph name="exclamdown" format="2">
  <advance width="284"/>
  <unicode hex="00A1"/>
  <outline>
    <contour>
      <point x="185" y="-182" type="line"/>
      <point x="185" y="21" type="line"/>
      <point x="161" y="331" type="line"/>
      <point x="121" y="331" type="line"/>
      <point x="97" y="21" type="line"/>
      <point x="97" y="-182" type="line"/>
    </contour>
    <contour>
      <point x="142" y="399" type="qcurve"/>
      <point x="203" y="399"/>
      <point x="203" y="457" type="qcurve"/>
      <point x="203" y="470" type="line"/>
      <point x="203" y="528"/>
      <point x="142" y="528" type="qcurve"/>
      <point x="81" y="528"/>
      <point x="81" y="470" type="qcurve"/>
      <point x="81" y="457" type="line"/>
      <point x="81" y="399"/>
    </contour>
  </outline>
</glyph>
<glyph name="cent" format="2">
  <advance width="514"/>
  <unicode hex="00A2"/>
  <outline>
    <contour>
      <point x="305" y="-114" type="line"/>
      <point x="305" y="-11" type="line"/>
      <point x="432" y="3"/>
      <point x="476" y="109" type="qcurve"/>
      <point x="418" y="148" type="line"/>
      <point x="382" y="69"/>
      <point x="304" y="60" type="qcurve"/>
      <point x="304" y="456" type="line"/>
      <point x="378" y="445"/>
      <point x="405" y="374" type="qcurve"/>
      <point x="469" y="409" type="line"/>
      <point x="424" y="516"/>
      <point x="305" y="527" type="qcurve"/>
      <point x="305" y="630" type="line"/>
      <point x="235" y="630" type="line"/>
      <point x="235" y="525" type="line"/>
      <point x="145" y="511"/>
      <point x="47" y="371"/>
      <point x="47" y="258" type="qcurve"/>
      <point x="47" y="146"/>
      <point x="144" y="5"/>
      <point x="235" y="-9" type="qcurve"/>
      <point x="235" y="-114" type="line"/>
    </contour>
    <contour>
      <point x="236" y="63" type="line"/>
      <point x="185" y="75"/>
      <point x="133" y="157"/>
      <point x="133" y="214" type="qcurve"/>
      <point x="133" y="302" type="line"/>
      <point x="133" y="360"/>
      <point x="185" y="441"/>
      <point x="236" y="453" type="qcurve"/>
    </contour>
  </outline>
</glyph>
<glyph name="sterling" format="2">
  <advance width="595"/>
  <unicode hex="00A3"/>
  <outline>
    <contour>
      <point x="82" y="0" type="line"/>
      <point x="82" y="100" type="line"/>
      <point x="154" y="133"/>
      <point x="154" y="237" type="qcurve" smooth="yes"/>
      <point x="154" y="263"/>
      <point x="150" y="286" type="qcurve"/>
      <point x="60" y="286" type="line"/>
      <point x="60" y="356" type="line"/>
      <point x="131" y="356" type="line"/>
      <point x="118" y="392"/>
      <point x="108" y="429" type="qcurve" smooth="yes"/>
      <point x="100" y="461"/>
      <point x="100" y="499" type="qcurve" smooth="yes"/>
      <point x="100" y="591"/>
      <point x="222" y="710"/>
      <point x="330" y="710" type="qcurve" smooth="yes"/>
      <point x="407" y="710"/>
      <point x="511" y="650"/>
      <point x="544" y="596" type="qcurve"/>
      <point x="481" y="550" type="line"/>
      <point x="455" y="590"/>
      <point x="382" y="636"/>
      <point x="327" y="636" type="qcurve" smooth="yes"/>
      <point x="262" y="636"/>
      <point x="187" y="564"/>
      <point x="187" y="491" type="qcurve" smooth="yes"/>
      <point x="187" y="458"/>
      <point x="194" y="429" type="qcurve" smooth="yes"/>
      <point x="199" y="408"/>
      <point x="215" y="356" type="qcurve"/>
      <point x="431" y="356" type="line"/>
      <point x="431" y="286" type="line"/>
      <point x="233" y="286" type="line"/>
      <point x="236" y="266"/>
      <point x="236" y="246" type="qcurve" smooth="yes"/>
      <point x="236" y="190"/>
      <point x="192" y="101"/>
      <point x="161" y="80" type="qcurve"/>
      <point x="161" y="75" type="line"/>
      <point x="525" y="75" type="line"/>
      <point x="525" y="0" type="line"/>
    </contour>
  </outline>
</glyph>
<glyph name="dieresis" format="2">
  <advance width="600"/>
  <unicode hex="00A8"/>
  <outline>
    <contour>
      <point x="207" y="618" type="qcurve" smooth="yes"/>
      <point x="158" y="618"/>
      <point x="158" y="664" type="qcurve" smooth="yes"/>
      <point x="158" y="675" type="line" smooth="yes"/>
      <point x="158" y="721"/>
      <point x="207" y="721" type="qcurve" smooth="yes"/>
      <point x="256" y="721"/>
      <point x="256" y="675" type="qcurve" smooth="yes"/>
      <point x="256" y="664" type="line" smooth="yes"/>
      <point x="256" y="618"/>
    </contour>
    <contour>
      <point x="393" y="618" type="qcurve" smooth="yes"/>
      <point x="344" y="618"/>
      <point x="344" y="664" type="qcurve" smooth="yes"/>
      <point x="344" y="675" type="line" smooth="yes"/>
      <point x="344" y="721"/>
      <point x="393" y="721" type="qcurve" smooth="yes"/>
      <point x="442" y="721"/>
      <point x="442" y="675" type="qcurve" smooth="yes"/>
      <point x="442" y="664" type="line" smooth="yes"/>
      <point x="442" y="618"/>
    </contour>
  </outline>
</glyph>
<glyph name="copyright" format="2">
  <advance width="776"/>
  <unicode hex="00A9"/>
  <outline>
    <contour>
      <point x="388" y="-11" type="qcurve"/>
      <point x="528" y="-11"/>
      <point x="625" y="86" type="qcurve"/>
      <point x="670" y="133"/>
      <point x="722" y="266"/>
      <point x="722" y="349" type="qcurve"/>
      <point x="722" y="432"/>
      <point x="670" y="566"/>
      <point x="625" y="613" type="qcurve"/>
      <point x="528" y="709"/>
      <point x="388" y="709" type="qcurve"/>
      <point x="249" y="709"/>
      <point x="151" y="613" type="qcurve"/>
      <point x="106" y="566"/>
      <point x="54" y="432"/>
      <point x="54" y="349" type="qcurve"/>
      <point x="54" y="266"/>
      <point x="106" y="133"/>
      <point x="151" y="86" type="qcurve"/>
      <point x="249" y="-11"/>
    </contour>
    <contour>
      <point x="388" y="49" type="qcurve"/>
      <point x="272" y="49"/>
      <point x="122" y="204"/>
      <point x="122" y="319" type="qcurve"/>
      <point x="122" y="379" type="line"/>
      <point x="122" y="495"/>
      <point x="272" y="649"/>
      <point x="388" y="649" type="qcurve"/>
      <point x="504" y="649"/>
      <point x="580" y="572" type="qcurve"/>
      <point x="654" y="495"/>
      <point x="654" y="379" type="qcurve"/>
      <point x="654" y="319" type="line"/>
      <point x="654" y="204"/>
      <point x="580" y="126" type="qcurve"/>
      <point x="504" y="49"/>
    </contour>
    <contour>
      <point x="396" y="155" type="qcurve"/>
      <point x="449" y="155"/>
      <point x="518" y="204"/>
      <point x="535" y="243" type="qcurve"/>
      <point x="481" y="277" type="line"/>
      <point x="467" y="250"/>
      <point x="428" y="217"/>
      <point x="396" y="217" type="qcurve"/>
      <point x="352" y="217"/>
      <point x="307" y="272"/>
      <point x="307" y="316" type="qcurve"/>
      <point x="307" y="381" type="line"/>
      <point x="307" y="425"/>
      <point x="352" y="480"/>
      <point x="396" y="480" type="qcurve"/>
      <point x="449" y="480"/>
      <point x="472" y="424" type="qcurve"/>
      <point x="529" y="456" type="line"/>
      <point x="492" y="543"/>
      <point x="396" y="543" type="qcurve"/>
      <point x="318" y="543"/>
      <point x="231" y="438"/>
      <point x="231" y="349" type="qcurve"/>
      <point x="231" y="260"/>
      <point x="318" y="155"/>
    </contour>
  </outline>
</glyph>
<glyph name="ordfeminine" format="2">
  <advance width="379"/>
  <unicode hex="00AA"/>
  <outline>
    <contour>
      <point x="149" y="349" type="qcurve"/>
      <point x="96" y="349"/>
      <point x="40" y="403"/>
      <point x="40" y="448" type="qcurve"/>
      <point x="40" y="552"/>
      <point x="189" y="552" type="qcurve"/>
      <point x="260" y="552" type="line"/>
      <point x="260" y="580" type="line"/>
      <point x="260" y="658"/>
      <point x="185" y="658" type="qcurve"/>
      <point x="151" y="658"/>
      <point x="105" y="630"/>
      <point x="94" y="606" type="qcurve"/>
      <point x="52" y="640" type="line"/>
      <point x="67" y="667"/>
      <point x="133" y="710"/>
      <point x="188" y="710" type="qcurve"/>
      <point x="251" y="710"/>
      <point x="323" y="644"/>
      <point x="323" y="583" type="qcurve"/>
      <point x="323" y="357" type="line"/>
      <point x="264" y="357" type="line"/>
      <point x="264" y="410" type="line"/>
      <point x="260" y="410" type="line"/>
      <point x="249" y="386"/>
      <point x="195" y="349"/>
    </contour>
    <contour>
      <point x="163" y="400" type="qcurve"/>
      <point x="201" y="400"/>
      <point x="260" y="435"/>
      <point x="260" y="465" type="qcurve"/>
      <point x="260" y="506" type="line"/>
      <point x="187" y="506" type="line"/>
      <point x="105" y="506"/>
      <point x="103" y="459" type="qcurve"/>
      <point x="103" y="449" type="line"/>
      <point x="103" y="400"/>
    </contour>
  </outline>
</glyph>
<glyph name="registered" format="2">
  <advance width="476"/>
  <unicode hex="00AE"/>
  <outline>
    <contour>
      <point x="238" y="298" type="qcurve"/>
      <point x="318" y="298"/>
      <point x="436" y="416"/>
      <point x="436" y="504" type="qcurve"/>
      <point x="436" y="593"/>
      <point x="318" y="710"/>
      <point x="238" y="710" type="qcurve"/>
      <point x="156" y="710"/>
      <point x="40" y="593"/>
      <point x="40" y="504" type="qcurve"/>
      <point x="40" y="416"/>
      <point x="156" y="298"/>
    </contour>
    <contour>
      <point x="238" y="338" type="qcurve"/>
      <point x="171" y="338"/>
      <point x="83" y="433"/>
      <point x="83" y="493" type="qcurve"/>
      <point x="83" y="515" type="line"/>
      <point x="83" y="575"/>
      <point x="171" y="670"/>
      <point x="238" y="670" type="qcurve"/>
      <point x="306" y="670"/>
      <point x="393" y="575"/>
      <point x="393" y="515" type="qcurve"/>
      <point x="393" y="493" type="line"/>
      <point x="393" y="433"/>
      <point x="306" y="338"/>
    </contour>
    <contour>
      <point x="327" y="396" type="line"/>
      <point x="278" y="481" type="line"/>
      <point x="317" y="496"/>
      <point x="317" y="542" type="qcurve"/>
      <point x="317" y="570"/>
      <point x="283" y="605"/>
      <point x="253" y="605" type="qcurve"/>
      <point x="163" y="605" type="line"/>
      <point x="163" y="396" type="line"/>
      <point x="203" y="396" type="line"/>
      <point x="203" y="476" type="line"/>
      <point x="238" y="476" type="line"/>
      <point x="282" y="396" type="line"/>
    </contour>
    <contour>
      <point x="251" y="508" type="qcurve"/>
      <point x="203" y="508" type="line"/>
      <point x="203" y="572" type="line"/>
      <point x="251" y="572" type="line"/>
      <point x="274" y="572"/>
      <point x="274" y="551" type="qcurve"/>
      <point x="274" y="529" type="line"/>
      <point x="274" y="508"/>
    </contour>
  </outline>
</glyph>
<glyph name="macron" format="2">
  <advance width="600"/>
  <unicode hex="00AF"/>
  <outline>
    <contour>
      <point x="440" y="637" type="line"/>
      <point x="440" y="705" type="line"/>
      <point x="160" y="705" type="line"/>
      <point x="160" y="637" type="line"/>
    </contour>
  </outline>
</glyph>
<glyph name="paragraph" format="2">
  <advance width="652"/>
  <unicode hex="00B6"/>
  <outline>
    <contour>
      <point x="503" y="-149" type="line"/>
      <point x="503" y="630" type="line"/>
      <point x="570" y="630" type="line"/>
      <point x="570" y="698" type="line"/>
      <point x="246" y="698" type="line"/>
      <point x="164" y="698"/>
      <point x="52" y="579"/>
      <point x="52" y="499" type="qcurve"/>
      <point x="52" y="417"/>
      <point x="109" y="359" type="qcurve"/>
      <point x="164" y="300"/>
      <point x="246" y="300" type="qcurve"/>
      <point x="246" y="-149" type="line"/>
      <point x="319" y="-149" type="line"/>
      <point x="319" y="630" type="line"/>
      <point x="430" y="630" type="line"/>
      <point x="430" y="-149" type="line"/>
    </contour>
  </outline>
</glyph>
<glyph name="periodcentered" format="2">
  <advance width="326"/>
  <unicode hex="00B7"/>
  <outline>
    <contour>
      <point x="163" y="240" type="qcurve"/>
      <point x="224" y="240"/>
      <point x="224" y="298" type="qcurve"/>
      <point x="224" y="311" type="line"/>
      <point x="224" y="369"/>
      <point x="163" y="369" type="qcurve"/>
      <point x="102" y="369"/>
      <point x="102" y="311" type="qcurve"/>
      <point x="102" y="298" type="line"/>
      <point x="102" y="240"/>
    </contour>
  </outline>
</glyph>
<glyph name="cedilla" format="2">
  <advance width="600"/>
  <unicode hex="00B8"/>
  <outline>
    <contour>
      <point x="312" y="-207" type="qcurve" smooth="yes"/>
      <point x="243" y="-207"/>
      <point x="213" y="-166" type="qcurve"/>
      <point x="251" y="-125" type="line"/>
      <point x="273" y="-153"/>
      <point x="312" y="-153" type="qcurve" smooth="yes"/>
      <point x="331" y="-153"/>
      <point x="356" y="-138"/>
      <point x="356" y="-122" type="qcurve" smooth="yes"/>
      <point x="356" y="-108"/>
      <point x="330" y="-87"/>
      <point x="288" y="-81" type="qcurve" smooth="yes"/>
      <point x="260" y="-77" type="line"/>
      <point x="279" y="20" type="line"/>
      <point x="329" y="20" type="line"/>
      <point x="313" y="-61" type="line"/>
      <point x="316" y="-64" type="line"/>
      <point x="336" y="-58"/>
      <point x="355" y="-58" type="qcurve" smooth="yes"/>
      <point x="384" y="-58"/>
      <point x="423" y="-92"/>
      <point x="423" y="-124" type="qcurve" smooth="yes"/>
      <point x="423" y="-166"/>
      <point x="356" y="-207"/>
    </contour>
  </outline>
</glyph>
<glyph name="ordmasculine" format="2">
  <advance width="398"/>
  <unicode hex="00BA"/>
  <outline>
    <contour>
      <point x="199" y="350" type="qcurve"/>
      <point x="272" y="350"/>
      <point x="354" y="445"/>
      <point x="354" y="530" type="qcurve"/>
      <point x="354" y="615"/>
      <point x="272" y="710"/>
      <point x="199" y="710" type="qcurve"/>
      <point x="126" y="710"/>
      <point x="44" y="615"/>
      <point x="44" y="530" type="qcurve"/>
      <point x="44" y="445"/>
      <point x="126" y="350"/>
    </contour>
    <contour>
      <point x="199" y="402" type="qcurve"/>
      <point x="155" y="402"/>
      <point x="112" y="456"/>
      <point x="112" y="499" type="qcurve"/>
      <point x="112" y="561" type="line"/>
      <point x="112" y="604"/>
      <point x="155" y="658"/>
      <point x="199" y="658" type="qcurve"/>
      <point x="243" y="658"/>
      <point x="286" y="604"/>
      <point x="286" y="561" type="qcurve"/>
      <point x="286" y="499" type="line"/>
      <point x="286" y="456"/>
      <point x="243" y="402"/>
    </contour>
  </outline>
</glyph>
<glyph name="guillemotright" format="2">
  <advance width="513"/>
  <unicode hex="00BB"/>
  <outline>
    <contour>
      <point x="52" y="134" type="line"/>
      <point x="189" y="284" type="line"/>
      <point x="52" y="434" type="line"/>
      <point x="76" y="488" type="line"/>
      <point x="268" y="322" type="line"/>
      <point x="268" y="246" type="line"/>
      <point x="76" y="80" type="line"/>
    </contour>
    <contour>
      <point x="261" y="134" type="line"/>
      <point x="398" y="284" type="line"/>
      <point x="261" y="434" type="line"/>
      <point x="285" y="488" type="line"/>
      <point x="477" y="322" type="line"/>
      <point x="477" y="246" type="line"/>
      <point x="285" y="80" type="line"/>
    </contour>
  </outline>
</glyph>
<glyph name="onequarter" format="2">
  <advance width="797"/>
  <unicode hex="00BC"/>
  <outline>
    <contour>
      <point x="121" y="0" type="line"/>
      <point x="607" y="698" type="line"/>
      <point x="674" y="698" type="line"/>
      <point x="188" y="0" type="line"/>
    </contour>
    <contour>
      <point x="227" y="698" type="line"/>
      <point x="227" y="329" type="line"/>
      <point x="164" y="329" type="line"/>
      <point x="164" y="644" type="line"/>
      <point x="84" y="602" type="line"/>
      <point x="84" y="659" type="line"/>
      <point x="159" y="698" type="line"/>
    </contour>
    <contour>
      <point x="660" y="0" type="line"/>
      <point x="660" y="72" type="line"/>
      <point x="471" y="72" type="line"/>
      <point x="471" y="124" type="line"/>
      <point x="635" y="369" type="line"/>
      <point x="720" y="369" type="line"/>
      <point x="720" y="120" type="line"/>
      <point x="776" y="120" type="line"/>
      <point x="776" y="72" type="line"/>
      <point x="720" y="72" type="line"/>
      <point x="720" y="0" type="line"/>
    </contour>
    <contour>
      <point x="660" y="312" type="line"/>
      <point x="656" y="312" type="line"/>
      <point x="526" y="120" type="line"/>
      <point x="660" y="120" type="line"/>
    </contour>
  </outline>
</glyph>
<glyph name="onehalf" format="2">
  <advance width="822"/>
  <unicode hex="00BD"/>
  <outline>
    <contour>
      <point x="227" y="698" type="line"/>
      <point x="227" y="329" type="line"/>
      <point x="164" y="329" type="line"/>
      <point x="164" y="644" type="line"/>
      <point x="84" y="602" type="line"/>
      <point x="84" y="659" type="line"/>
      <point x="159" y="698" type="line"/>
    </contour>
    <contour>
      <point x="121" y="0" type="line"/>
      <point x="607" y="698" type="line"/>
      <point x="674" y="698" type="line"/>
      <point x="188" y="0" type="line"/>
    </contour>
    <contour>
      <point x="515" y="0" type="line"/>
      <point x="515" y="57" type="line"/>
      <point x="580" y="110"/>
      <point x="707" y="212"/>
      <point x="707" y="260" type="qcurve" smooth="yes"/>
      <point x="707" y="266" type="line" smooth="yes"/>
      <point x="707" y="323"/>
      <point x="642" y="323" type="qcurve" smooth="yes"/>
      <point x="607" y="323"/>
      <point x="572" y="290"/>
      <point x="564" y="265" type="qcurve"/>
      <point x="510" y="285" type="line"/>
      <point x="522" y="322"/>
      <point x="586" y="375"/>
      <point x="646" y="375" type="qcurve" smooth="yes"/>
      <point x="708" y="375"/>
      <point x="774" y="314"/>
      <point x="774" y="266" type="qcurve" smooth="yes"/>
      <point x="774" y="222"/>
      <point x="722" y="157"/>
      <point x="679" y="125" type="qcurve" smooth="yes"/>
      <point x="582" y="50" type="line"/>
      <point x="787" y="50" type="line"/>
      <point x="787" y="0" type="line"/>
    </contour>
  </outline>
</glyph>
<glyph name="questiondown" format="2">
  <advance width="467"/>
  <unicode hex="00BF"/>
  <outline>
    <contour>
      <point x="238" y="-194" type="qcurve"/>
      <point x="326" y="-194"/>
      <point x="384" y="-145" type="qcurve"/>
      <point x="436" y="-98"/>
      <point x="454" y="-32" type="qcurve"/>
      <point x="380" y="-4" type="line"/>
      <point x="368" y="-56"/>
      <point x="299" y="-121"/>
      <point x="241" y="-121" type="qcurve"/>
      <point x="187" y="-121"/>
      <point x="123" y="-60"/>
      <point x="123" y="-9" type="qcurve"/>
      <point x="123" y="5" type="line"/>
      <point x="123" y="131"/>
      <point x="298" y="144" type="qcurve"/>
      <point x="298" y="308" type="line"/>
      <point x="221" y="308" type="line"/>
      <point x="221" y="200" type="line"/>
      <point x="152" y="188"/>
      <point x="96" y="139" type="qcurve"/>
      <point x="37" y="84"/>
      <point x="37" y="-5" type="qcurve"/>
      <point x="37" y="-92"/>
      <point x="145" y="-194"/>
    </contour>
    <contour>
      <point x="262" y="399" type="qcurve"/>
      <point x="323" y="399"/>
      <point x="323" y="457" type="qcurve"/>
      <point x="323" y="470" type="line"/>
      <point x="323" y="528"/>
      <point x="262" y="528" type="qcurve"/>
      <point x="201" y="528"/>
      <point x="201" y="470" type="qcurve"/>
      <point x="201" y="457" type="line"/>
      <point x="201" y="399"/>
    </contour>
  </outline>
</glyph>
<glyph name="Acircumflex" format="2">
  <advance width="641"/>
  <unicode hex="00C2"/>
  <outline>
    <contour>
      <point x="322" y="878" type="line"/>
      <point x="205" y="761" type="line"/>
      <point x="161" y="792" type="line"/>
      <point x="272" y="935" type="line"/>
      <point x="372" y="935" type="line"/>
      <point x="483" y="792" type="line"/>
      <point x="439" y="761" type="line"/>
    </contour>
    <contour>
      <point x="530" y="0" type="line"/>
      <point x="460" y="206" type="line"/>
      <point x="178" y="206" type="line"/>
      <point x="108" y="0" type="line"/>
      <point x="23" y="0" type="line"/>
      <point x="267" y="698" type="line"/>
      <point x="374" y="698" type="line"/>
      <point x="618" y="0" type="line"/>
    </contour>
    <contour>
      <point x="321" y="620" type="line"/>
      <point x="316" y="620" type="line"/>
      <point x="198" y="280" type="line"/>
      <point x="439" y="280" type="line"/>
    </contour>
  </outline>
</glyph>
<glyph name="Aring" format="2">
  <advance width="641"/>
  <unicode hex="00C5"/>
  <outline>
    <contour>
      <point x="322" y="746" type="qcurve" smooth="yes"/>
      <point x="274" y="746"/>
      <point x="206" y="812"/>
      <point x="206" y="861" type="qcurve" smooth="yes"/>
      <point x="206" y="911"/>
      <point x="274" y="976"/>
      <point x="322" y="976" type="qcurve" smooth="yes"/>
      <point x="370" y="976"/>
      <point x="405" y="944" type="qcurve"/>
      <point x="438" y="911"/>
      <point x="438" y="861" type="qcurve" smooth="yes"/>
      <point x="438" y="812"/>
      <point x="370" y="746"/>
    </contour>
    <contour>
      <point x="322" y="795" type="qcurve"/>
      <point x="380" y="798"/>
      <point x="380" y="850" type="qcurve" smooth="yes"/>
      <point x="380" y="872" type="line"/>
      <point x="376" y="927"/>
      <point x="322" y="927" type="qcurve"/>
      <point x="264" y="925"/>
      <point x="264" y="872" type="qcurve" smooth="yes"/>
      <point x="264" y="850" type="line"/>
      <point x="268" y="795"/>
    </contour>
    <contour>
      <point x="530" y="0" type="line"/>
      <point x="460" y="206" type="line"/>
      <point x="178" y="206" type="line"/>
      <point x="108" y="0" type="line"/>
      <point x="23" y="0" type="line"/>
      <point x="267" y="698" type="line"/>
      <point x="374" y="698" type="line"/>
      <point x="618" y="0" type="line"/>
    </contour>
    <contour>
      <point x="321" y="620" type="line"/>
      <point x="316" y="620" type="line"/>
      <point x="198" y="280" type="line"/>
      <point x="439" y="280" type="line"/>
    </contour>
  </outline>
</glyph>
<glyph name="Ccedilla" format="2">
  <advance width="621"/>
  <unicode hex="00C7"/>
  <outline>
    <contour>
      <point x="350" y="-207" type="qcurve"/>
      <point x="394" y="-207"/>
      <point x="461" y="-166"/>
      <point x="461" y="-124" type="qcurve"/>
      <point x="461" y="-92"/>
      <point x="422" y="-58"/>
      <point x="393" y="-58" type="qcurve"/>
      <point x="374" y="-58"/>
      <point x="354" y="-64" type="qcurve"/>
      <point x="351" y="-61" type="line"/>
      <point x="361" y="-11" type="line"/>
      <point x="521" y="4"/>
      <point x="584" y="147" type="qcurve"/>
      <point x="517" y="189" type="line"/>
      <point x="496" y="131"/>
      <point x="406" y="63"/>
      <point x="339" y="63" type="qcurve"/>
      <point x="248" y="63"/>
      <point x="148" y="185"/>
      <point x="148" y="293" type="qcurve"/>
      <point x="148" y="397" type="line"/>
      <point x="148" y="505"/>
      <point x="249" y="635"/>
      <point x="339" y="635" type="qcurve"/>
      <point x="404" y="635"/>
      <point x="490" y="571"/>
      <point x="511" y="516" type="qcurve"/>
      <point x="579" y="557" type="line"/>
      <point x="510" y="710"/>
      <point x="339" y="710" type="qcurve"/>
      <point x="206" y="710"/>
      <point x="58" y="521"/>
      <point x="58" y="345" type="qcurve"/>
      <point x="58" y="178"/>
      <point x="190" y="-2"/>
      <point x="311" y="-11" type="qcurve"/>
      <point x="298" y="-77" type="line"/>
      <point x="326" y="-81" type="line"/>
      <point x="368" y="-87"/>
      <point x="394" y="-108"/>
      <point x="394" y="-122" type="qcurve"/>
      <point x="394" y="-138"/>
      <point x="369" y="-153"/>
      <point x="350" y="-153" type="qcurve"/>
      <point x="311" y="-153"/>
      <point x="289" y="-125" type="qcurve"/>
      <point x="251" y="-166" type="line"/>
      <point x="281" y="-207"/>
    </contour>
  </outline>
</glyph>
<glyph name="Eacute" format="2">
  <advance width="583"/>
  <unicode hex="00C9"/>
  <outline>
    <contour>
      <point x="519" y="0" type="line"/>
      <point x="519" y="74" type="line"/>
      <point x="177" y="74" type="line"/>
      <point x="177" y="316" type="line"/>
      <point x="499" y="316" type="line"/>
      <point x="499" y="390" type="line"/>
      <point x="177" y="390" type="line"/>
      <point x="177" y="624" type="line"/>
      <point x="519" y="624" type="line"/>
      <point x="519" y="698" type="line"/>
      <point x="93" y="698" type="line"/>
      <point x="93" y="0" type="line"/>
    </contour>
    <contour>
      <point x="311" y="755" type="line"/>
      <point x="417" y="914" type="line"/>
      <point x="344" y="949" type="line"/>
      <point x="259" y="779" type="line"/>
    </contour>
  </outline>
</glyph>
<glyph name="Ecircumflex" format="2">
  <advance width="583"/>
  <unicode hex="00CA"/>
  <outline>
    <contour>
      <point x="519" y="0" type="line"/>
      <point x="519" y="74" type="line"/>
      <point x="177" y="74" type="line"/>
      <point x="177" y="316" type="line"/>
      <point x="499" y="316" type="line"/>
      <point x="499" y="390" type="line"/>
      <point x="177" y="390" type="line"/>
      <point x="177" y="624" type="line"/>
      <point x="519" y="624" type="line"/>
      <point x="519" y="698" type="line"/>
      <point x="93" y="698" type="line"/>
      <point x="93" y="0" type="line"/>
    </contour>
    <contour>
      <point x="421" y="761" type="line"/>
      <point x="465" y="792" type="line"/>
      <point x="354" y="935" type="line"/>
      <point x="254" y="935" type="line"/>
      <point x="143" y="792" type="line"/>
      <point x="187" y="761" type="line"/>
      <point x="304" y="878" type="line"/>
    </contour>
  </outline>
</glyph>
<glyph name="Igrave" format="2">
  <advance width="270"/>
  <unicode hex="00CC"/>
  <outline>
    <contour>
      <point x="129" y="755" type="line"/>
      <point x="181" y="779" type="line"/>
      <point x="96" y="949" type="line"/>
      <point x="23" y="914" type="line"/>
    </contour>
    <contour>
      <point x="177" y="0" type="line"/>
      <point x="177" y="698" type="line"/>
      <point x="93" y="698" type="line"/>
      <point x="93" y="0" type="line"/>
    </contour>
  </outline>
</glyph>
<glyph name="Iacute" format="2">
  <advance width="270"/>
  <unicode hex="00CD"/>
  <outline>
    <contour>
      <point x="91" y="779" type="line"/>
      <point x="176" y="949" type="line"/>
      <point x="249" y="914" type="line"/>
      <point x="143" y="755" type="line"/>
    </contour>
    <contour>
      <point x="93" y="0" type="line"/>
      <point x="93" y="698" type="line"/>
      <point x="177" y="698" type="line"/>
      <point x="177" y="0" type="line"/>
    </contour>
  </outline>
</glyph>
<glyph name="Icircumflex" format="2">
  <advance width="270"/>
  <unicode hex="00CE"/>
  <outline>
    <contour>
      <point x="136" y="878" type="line"/>
      <point x="19" y="761" type="line"/>
      <point x="-25" y="792" type="line"/>
      <point x="86" y="935" type="line"/>
      <point x="186" y="935" type="line"/>
      <point x="297" y="792" type="line"/>
      <point x="253" y="761" type="line"/>
    </contour>
    <contour>
      <point x="93" y="0" type="line"/>
      <point x="93" y="698" type="line"/>
      <point x="177" y="698" type="line"/>
      <point x="177" y="0" type="line"/>
    </contour>
  </outline>
</glyph>
<glyph name="Ntilde" format="2">
  <advance width="707"/>
  <unicode hex="00D1"/>
  <outline>
    <contour>
      <point x="614" y="0" type="line"/>
      <point x="614" y="698" type="line"/>
      <point x="532" y="698" type="line"/>
      <point x="532" y="117" type="line"/>
      <point x="529" y="117" type="line"/>
      <point x="445" y="272" type="line"/>
      <point x="190" y="698" type="line"/>
      <point x="93" y="698" type="line"/>
      <point x="93" y="0" type="line"/>
      <point x="175" y="0" type="line"/>
      <point x="175" y="581" type="line"/>
      <point x="178" y="581" type="line"/>
      <point x="262" y="426" type="line"/>
      <point x="517" y="0" type="line"/>
    </contour>
    <contour>
      <point x="426" y="782" type="qcurve"/>
      <point x="486" y="782"/>
      <point x="521" y="835" type="qcurve"/>
      <point x="488" y="875" type="line"/>
      <point x="473" y="862"/>
      <point x="447" y="848"/>
      <point x="430" y="848" type="qcurve"/>
      <point x="403" y="848"/>
      <point x="353" y="875" type="qcurve"/>
      <point x="339" y="884"/>
      <point x="304" y="898"/>
      <point x="280" y="898" type="qcurve"/>
      <point x="220" y="898"/>
      <point x="185" y="845" type="qcurve"/>
      <point x="218" y="805" type="line"/>
      <point x="233" y="818"/>
      <point x="259" y="832"/>
      <point x="276" y="832" type="qcurve"/>
      <point x="303" y="832"/>
      <point x="353" y="805" type="qcurve"/>
      <point x="367" y="796"/>
      <point x="402" y="782"/>
    </contour>
  </outline>
</glyph>
<glyph name="Ocircumflex" format="2">
  <advance width="708"/>
  <unicode hex="00D4"/>
  <outline>
    <contour>
      <point x="354" y="-12" type="qcurve"/>
      <point x="488" y="-12"/>
      <point x="650" y="174"/>
      <point x="650" y="349" type="qcurve"/>
      <point x="650" y="525"/>
      <point x="488" y="710"/>
      <point x="354" y="710" type="qcurve"/>
      <point x="218" y="710"/>
      <point x="139" y="617" type="qcurve"/>
      <point x="58" y="525"/>
      <point x="58" y="349" type="qcurve"/>
      <point x="58" y="174"/>
      <point x="139" y="81" type="qcurve"/>
      <point x="218" y="-12"/>
    </contour>
    <contour>
      <point x="354" y="63" type="qcurve"/>
      <point x="264" y="63"/>
      <point x="148" y="188"/>
      <point x="148" y="291" type="qcurve"/>
      <point x="148" y="407" type="line"/>
      <point x="148" y="511"/>
      <point x="264" y="635"/>
      <point x="354" y="635" type="qcurve"/>
      <point x="444" y="635"/>
      <point x="560" y="511"/>
      <point x="560" y="407" type="qcurve"/>
      <point x="560" y="291" type="line"/>
      <point x="560" y="188"/>
      <point x="444" y="63"/>
    </contour>
    <contour>
      <point x="471" y="761" type="line"/>
      <point x="515" y="792" type="line"/>
      <point x="404" y="935" type="line"/>
      <point x="304" y="935" type="line"/>
      <point x="193" y="792" type="line"/>
      <point x="237" y="761" type="line"/>
      <point x="354" y="878" type="line"/>
    </contour>
  </outline>
</glyph>
<glyph name="Otilde" format="2">
  <advance width="708"/>
  <unicode hex="00D5"/>
  <outline>
    <contour>
      <point x="427" y="782" type="qcurve" smooth="yes"/>
      <point x="403" y="782"/>
      <point x="368" y="796"/>
      <point x="354" y="805" type="qcurve"/>
      <point x="304" y="832"/>
      <point x="277" y="832" type="qcurve" smooth="yes"/>
      <point x="260" y="832"/>
      <point x="234" y="818"/>
      <point x="219" y="805" type="qcurve"/>
      <point x="186" y="845" type="line"/>
      <point x="221" y="898"/>
      <point x="281" y="898" type="qcurve" smooth="yes"/>
      <point x="305" y="898"/>
      <point x="340" y="884"/>
      <point x="354" y="875" type="qcurve"/>
      <point x="404" y="848"/>
      <point x="431" y="848" type="qcurve" smooth="yes"/>
      <point x="448" y="848"/>
      <point x="474" y="862"/>
      <point x="489" y="875" type="qcurve"/>
      <point x="522" y="835" type="line"/>
      <point x="487" y="782"/>
    </contour>
    <contour>
      <point x="354" y="-12" type="qcurve" smooth="yes"/>
      <point x="218" y="-12"/>
      <point x="139" y="81" type="qcurve"/>
      <point x="58" y="174"/>
      <point x="58" y="349" type="qcurve" smooth="yes"/>
      <point x="58" y="525"/>
      <point x="139" y="617" type="qcurve"/>
      <point x="218" y="710"/>
      <point x="354" y="710" type="qcurve" smooth="yes"/>
      <point x="488" y="710"/>
      <point x="650" y="525"/>
      <point x="650" y="349" type="qcurve" smooth="yes"/>
      <point x="650" y="174"/>
      <point x="488" y="-12"/>
    </contour>
    <contour>
      <point x="354" y="63" type="qcurve" smooth="yes"/>
      <point x="444" y="63"/>
      <point x="560" y="188"/>
      <point x="560" y="291" type="qcurve" smooth="yes"/>
      <point x="560" y="407" type="line" smooth="yes"/>
      <point x="560" y="511"/>
      <point x="444" y="635"/>
      <point x="354" y="635" type="qcurve" smooth="yes"/>
      <point x="264" y="635"/>
      <point x="148" y="511"/>
      <point x="148" y="407" type="qcurve" smooth="yes"/>
      <point x="148" y="291" type="line" smooth="yes"/>
      <point x="148" y="188"/>
      <point x="264" y="63"/>
    </contour>
  </outline>
</glyph>
<glyph name="Odieresis" format="2">
  <advance width="708"/>
  <unicode hex="00D6"/>
  <outline>
    <contour>
      <point x="261" y="788" type="qcurve" smooth="yes"/>
      <point x="211" y="788"/>
      <point x="211" y="835" type="qcurve" smooth="yes"/>
      <point x="211" y="847" type="line" smooth="yes"/>
      <point x="211" y="894"/>
      <point x="261" y="894" type="qcurve" smooth="yes"/>
      <point x="311" y="894"/>
      <point x="311" y="847" type="qcurve" smooth="yes"/>
      <point x="311" y="835" type="line" smooth="yes"/>
      <point x="311" y="788"/>
    </contour>
    <contour>
      <point x="447" y="788" type="qcurve" smooth="yes"/>
      <point x="397" y="788"/>
      <point x="397" y="835" type="qcurve" smooth="yes"/>
      <point x="397" y="847" type="line" smooth="yes"/>
      <point x="397" y="894"/>
      <point x="447" y="894" type="qcurve" smooth="yes"/>
      <point x="497" y="894"/>
      <point x="497" y="847" type="qcurve" smooth="yes"/>
      <point x="497" y="835" type="line" smooth="yes"/>
      <point x="497" y="788"/>
    </contour>
    <contour>
      <point x="354" y="-12" type="qcurve" smooth="yes"/>
      <point x="218" y="-12"/>
      <point x="139" y="81" type="qcurve"/>
      <point x="58" y="174"/>
      <point x="58" y="349" type="qcurve" smooth="yes"/>
      <point x="58" y="525"/>
      <point x="139" y="617" type="qcurve"/>
      <point x="218" y="710"/>
      <point x="354" y="710" type="qcurve" smooth="yes"/>
      <point x="488" y="710"/>
      <point x="650" y="525"/>
      <point x="650" y="349" type="qcurve" smooth="yes"/>
      <point x="650" y="174"/>
      <point x="488" y="-12"/>
    </contour>
    <contour>
      <point x="354" y="63" type="qcurve" smooth="yes"/>
      <point x="444" y="63"/>
      <point x="560" y="188"/>
      <point x="560" y="291" type="qcurve" smooth="yes"/>
      <point x="560" y="407" type="line" smooth="yes"/>
      <point x="560" y="511"/>
      <point x="444" y="635"/>
      <point x="354" y="635" type="qcurve" smooth="yes"/>
      <point x="264" y="635"/>
      <point x="148" y="511"/>
      <point x="148" y="407" type="qcurve" smooth="yes"/>
      <point x="148" y="291" type="line" smooth="yes"/>
      <point x="148" y="188"/>
      <point x="264" y="63"/>
    </contour>
  </outline>
</glyph>
<glyph name="Ucircumflex" format="2">
  <advance width="678"/>
  <unicode hex="00DB"/>
  <outline>
    <contour>
      <point x="336" y="-12" type="qcurve"/>
      <point x="476" y="-12"/>
      <point x="590" y="135"/>
      <point x="590" y="286" type="qcurve"/>
      <point x="590" y="698" type="line"/>
      <point x="506" y="698" type="line"/>
      <point x="506" y="266" type="line"/>
      <point x="506" y="166"/>
      <point x="432" y="63"/>
      <point x="339" y="63" type="qcurve"/>
      <point x="246" y="63"/>
      <point x="172" y="166"/>
      <point x="172" y="266" type="qcurve"/>
      <point x="172" y="698" type="line"/>
      <point x="88" y="698" type="line"/>
      <point x="88" y="286" type="line"/>
      <point x="88" y="130"/>
      <point x="142" y="61" type="qcurve"/>
      <point x="197" y="-12"/>
    </contour>
    <contour>
      <point x="454" y="761" type="line"/>
      <point x="498" y="792" type="line"/>
      <point x="387" y="935" type="line"/>
      <point x="287" y="935" type="line"/>
      <point x="176" y="792" type="line"/>
      <point x="220" y="761" type="line"/>
      <point x="337" y="878" type="line"/>
    </contour>
  </outline>
</glyph>
<glyph name="Thorn" format="2">
  <advance width="606"/>
  <unicode hex="00DE"/>
  <outline>
    <contour>
      <point x="177" y="0" type="line"/>
      <point x="177" y="154" type="line"/>
      <point x="371" y="154" type="line"/>
      <point x="465" y="154"/>
      <point x="566" y="262"/>
      <point x="566" y="354" type="qcurve"/>
      <point x="566" y="446"/>
      <point x="465" y="554"/>
      <point x="371" y="554" type="qcurve"/>
      <point x="177" y="554" type="line"/>
      <point x="177" y="698" type="line"/>
      <point x="93" y="698" type="line"/>
      <point x="93" y="0" type="line"/>
    </contour>
    <contour>
      <point x="371" y="229" type="qcurve"/>
      <point x="177" y="229" type="line"/>
      <point x="177" y="479" type="line"/>
      <point x="371" y="479" type="line"/>
      <point x="472" y="479"/>
      <point x="476" y="379" type="qcurve"/>
      <point x="476" y="329" type="line"/>
      <point x="476" y="233"/>
    </contour>
  </outline>
</glyph>
<glyph name="germandbls" format="2">
  <advance width="640"/>
  <unicode hex="00DF"/>
  <outline>
    <contour>
      <point x="432" y="-12" type="qcurve"/>
      <point x="517" y="-12"/>
      <point x="613" y="74"/>
      <point x="613" y="149" type="qcurve"/>
      <point x="613" y="265"/>
      <point x="475" y="292" type="qcurve"/>
      <point x="445" y="299" type="line"/>
      <point x="407" y="307"/>
      <point x="366" y="342"/>
      <point x="366" y="380" type="qcurve"/>
      <point x="366" y="423"/>
      <point x="435" y="460"/>
      <point x="498" y="460" type="qcurve"/>
      <point x="545" y="460" type="line"/>
      <point x="545" y="521" type="line"/>
      <point x="545" y="625"/>
      <point x="489" y="689" type="qcurve"/>
      <point x="431" y="752"/>
      <point x="329" y="752" type="qcurve"/>
      <point x="226" y="752"/>
      <point x="113" y="625"/>
      <point x="113" y="516" type="qcurve"/>
      <point x="29" y="516" type="line"/>
      <point x="29" y="446" type="line"/>
      <point x="113" y="446" type="line"/>
      <point x="113" y="0" type="line"/>
      <point x="193" y="0" type="line"/>
      <point x="193" y="527" type="line"/>
      <point x="193" y="684"/>
      <point x="322" y="684" type="qcurve"/>
      <point x="329" y="684" type="line"/>
      <point x="467" y="684"/>
      <point x="467" y="537" type="qcurve"/>
      <point x="467" y="522" type="line"/>
      <point x="384" y="520"/>
      <point x="289" y="445"/>
      <point x="289" y="376" type="qcurve"/>
      <point x="289" y="256"/>
      <point x="435" y="228" type="qcurve"/>
      <point x="466" y="221" type="line"/>
      <point x="507" y="212"/>
      <point x="536" y="170"/>
      <point x="536" y="140" type="qcurve"/>
      <point x="536" y="61"/>
      <point x="438" y="56" type="qcurve"/>
      <point x="362" y="56"/>
      <point x="309" y="120" type="qcurve"/>
      <point x="255" y="72" type="line"/>
      <point x="318" y="-12"/>
    </contour>
  </outline>
</glyph>
<glyph name="agrave" format="2">
  <advance width="526"/>
  <unicode hex="00E0"/>
  <outline>
    <contour>
      <point x="246" y="585" type="line"/>
      <point x="298" y="609" type="line"/>
      <point x="213" y="779" type="line"/>
      <point x="140" y="744" type="line"/>
    </contour>
    <contour>
      <point x="217" y="-12" type="qcurve"/>
      <point x="135" y="-12"/>
      <point x="44" y="72"/>
      <point x="44" y="144" type="qcurve"/>
      <point x="44" y="295"/>
      <point x="264" y="295" type="qcurve"/>
      <point x="366" y="295" type="line"/>
      <point x="366" y="346" type="line"/>
      <point x="366" y="459"/>
      <point x="244" y="459" type="qcurve"/>
      <point x="158" y="459"/>
      <point x="113" y="382" type="qcurve"/>
      <point x="65" y="427" type="line"/>
      <point x="86" y="470"/>
      <point x="178" y="528"/>
      <point x="248" y="528" type="qcurve"/>
      <point x="342" y="528"/>
      <point x="446" y="436"/>
      <point x="446" y="354" type="qcurve"/>
      <point x="446" y="0" type="line"/>
      <point x="371" y="0" type="line"/>
      <point x="371" y="84" type="line"/>
      <point x="366" y="84" type="line"/>
      <point x="348" y="36"/>
      <point x="271" y="-12"/>
    </contour>
    <contour>
      <point x="230" y="56" type="qcurve"/>
      <point x="290" y="56"/>
      <point x="366" y="110"/>
      <point x="366" y="150" type="qcurve"/>
      <point x="366" y="235" type="line"/>
      <point x="260" y="235" type="line"/>
      <point x="128" y="235"/>
      <point x="128" y="157" type="qcurve"/>
      <point x="128" y="136" type="line"/>
      <point x="128" y="60"/>
    </contour>
  </outline>
</glyph>
<glyph name="atilde" format="2">
  <advance width="526"/>
  <unicode hex="00E3"/>
  <outline>
    <contour>
      <point x="326" y="612" type="qcurve"/>
      <point x="386" y="612"/>
      <point x="421" y="665" type="qcurve"/>
      <point x="388" y="705" type="line"/>
      <point x="373" y="692"/>
      <point x="347" y="678"/>
      <point x="330" y="678" type="qcurve"/>
      <point x="303" y="678"/>
      <point x="253" y="705" type="qcurve"/>
      <point x="239" y="714"/>
      <point x="204" y="728"/>
      <point x="180" y="728" type="qcurve"/>
      <point x="120" y="728"/>
      <point x="85" y="675" type="qcurve"/>
      <point x="118" y="635" type="line"/>
      <point x="133" y="648"/>
      <point x="159" y="662"/>
      <point x="176" y="662" type="qcurve"/>
      <point x="203" y="662"/>
      <point x="253" y="635" type="qcurve"/>
      <point x="267" y="626"/>
      <point x="302" y="612"/>
    </contour>
    <contour>
      <point x="217" y="-12" type="qcurve"/>
      <point x="135" y="-12"/>
      <point x="44" y="72"/>
      <point x="44" y="144" type="qcurve"/>
      <point x="44" y="295"/>
      <point x="264" y="295" type="qcurve"/>
      <point x="366" y="295" type="line"/>
      <point x="366" y="346" type="line"/>
      <point x="366" y="459"/>
      <point x="244" y="459" type="qcurve"/>
      <point x="158" y="459"/>
      <point x="113" y="382" type="qcurve"/>
      <point x="65" y="427" type="line"/>
      <point x="86" y="470"/>
      <point x="178" y="528"/>
      <point x="248" y="528" type="qcurve"/>
      <point x="342" y="528"/>
      <point x="446" y="436"/>
      <point x="446" y="354" type="qcurve"/>
      <point x="446" y="0" type="line"/>
      <point x="371" y="0" type="line"/>
      <point x="371" y="84" type="line"/>
      <point x="366" y="84" type="line"/>
      <point x="348" y="36"/>
      <point x="271" y="-12"/>
    </contour>
    <contour>
      <point x="230" y="56" type="qcurve"/>
      <point x="290" y="56"/>
      <point x="366" y="110"/>
      <point x="366" y="150" type="qcurve"/>
      <point x="366" y="235" type="line"/>
      <point x="260" y="235" type="line"/>
      <point x="128" y="235"/>
      <point x="128" y="157" type="qcurve"/>
      <point x="128" y="136" type="line"/>
      <point x="128" y="60"/>
    </contour>
  </outline>
</glyph>
<glyph name="aring" format="2">
  <advance width="526"/>
  <unicode hex="00E5"/>
  <outline>
    <contour>
      <point x="253" y="576" type="qcurve"/>
      <point x="301" y="576"/>
      <point x="369" y="642"/>
      <point x="369" y="691" type="qcurve"/>
      <point x="369" y="741"/>
      <point x="336" y="774" type="qcurve"/>
      <point x="301" y="806"/>
      <point x="253" y="806" type="qcurve"/>
      <point x="205" y="806"/>
      <point x="137" y="741"/>
      <point x="137" y="691" type="qcurve"/>
      <point x="137" y="642"/>
      <point x="205" y="576"/>
    </contour>
    <contour>
      <point x="253" y="625" type="qcurve"/>
      <point x="199" y="625"/>
      <point x="195" y="680" type="qcurve"/>
      <point x="195" y="702" type="line"/>
      <point x="195" y="755"/>
      <point x="253" y="757" type="qcurve"/>
      <point x="307" y="757"/>
      <point x="311" y="702" type="qcurve"/>
      <point x="311" y="680" type="line"/>
      <point x="311" y="628"/>
    </contour>
    <contour>
      <point x="217" y="-12" type="qcurve"/>
      <point x="135" y="-12"/>
      <point x="44" y="72"/>
      <point x="44" y="144" type="qcurve"/>
      <point x="44" y="295"/>
      <point x="264" y="295" type="qcurve"/>
      <point x="366" y="295" type="line"/>
      <point x="366" y="346" type="line"/>
      <point x="366" y="459"/>
      <point x="244" y="459" type="qcurve"/>
      <point x="158" y="459"/>
      <point x="113" y="382" type="qcurve"/>
      <point x="65" y="427" type="line"/>
      <point x="86" y="470"/>
      <point x="178" y="528"/>
      <point x="248" y="528" type="qcurve"/>
      <point x="342" y="528"/>
      <point x="446" y="436"/>
      <point x="446" y="354" type="qcurve"/>
      <point x="446" y="0" type="line"/>
      <point x="371" y="0" type="line"/>
      <point x="371" y="84" type="line"/>
      <point x="366" y="84" type="line"/>
      <point x="348" y="36"/>
      <point x="271" y="-12"/>
    </contour>
    <contour>
      <point x="230" y="56" type="qcurve"/>
      <point x="290" y="56"/>
      <point x="366" y="110"/>
      <point x="366" y="150" type="qcurve"/>
      <point x="366" y="235" type="line"/>
      <point x="260" y="235" type="line"/>
      <point x="128" y="235"/>
      <point x="128" y="157" type="qcurve"/>
      <point x="128" y="136" type="line"/>
      <point x="128" y="60"/>
    </contour>
  </outline>
</glyph>
<glyph name="ccedilla" format="2">
  <advance width="503"/>
  <unicode hex="00E7"/>
  <outline>
    <contour>
      <point x="288" y="-207" type="qcurve"/>
      <point x="332" y="-207"/>
      <point x="399" y="-166"/>
      <point x="399" y="-124" type="qcurve"/>
      <point x="399" y="-92"/>
      <point x="360" y="-58"/>
      <point x="331" y="-58" type="qcurve"/>
      <point x="312" y="-58"/>
      <point x="292" y="-64" type="qcurve"/>
      <point x="289" y="-61" type="line"/>
      <point x="299" y="-11" type="line"/>
      <point x="429" y="4"/>
      <point x="475" y="110" type="qcurve"/>
      <point x="417" y="149" type="line"/>
      <point x="375" y="59"/>
      <point x="277" y="59" type="qcurve"/>
      <point x="206" y="59"/>
      <point x="133" y="146"/>
      <point x="133" y="214" type="qcurve"/>
      <point x="133" y="302" type="line"/>
      <point x="133" y="370"/>
      <point x="205" y="457"/>
      <point x="277" y="457" type="qcurve"/>
      <point x="373" y="457"/>
      <point x="403" y="373" type="qcurve"/>
      <point x="470" y="408" type="line"/>
      <point x="420" y="528"/>
      <point x="277" y="528" type="qcurve"/>
      <point x="169" y="528"/>
      <point x="47" y="383"/>
      <point x="47" y="258" type="qcurve"/>
      <point x="47" y="143"/>
      <point x="152" y="0"/>
      <point x="249" y="-11" type="qcurve"/>
      <point x="236" y="-77" type="line"/>
      <point x="264" y="-81" type="line"/>
      <point x="306" y="-87"/>
      <point x="332" y="-108"/>
      <point x="332" y="-122" type="qcurve"/>
      <point x="332" y="-138"/>
      <point x="307" y="-153"/>
      <point x="288" y="-153" type="qcurve"/>
      <point x="249" y="-153"/>
      <point x="227" y="-125" type="qcurve"/>
      <point x="189" y="-166" type="line"/>
      <point x="219" y="-207"/>
    </contour>
  </outline>
</glyph>
<glyph name="ecircumflex" format="2">
  <advance width="549"/>
  <unicode hex="00EA"/>
  <outline>
    <contour>
      <point x="279" y="-12" type="qcurve"/>
      <point x="352" y="-12"/>
      <point x="458" y="52"/>
      <point x="483" y="106" type="qcurve"/>
      <point x="426" y="147" type="line"/>
      <point x="382" y="58"/>
      <point x="284" y="58" type="qcurve"/>
      <point x="212" y="58"/>
      <point x="131" y="148"/>
      <point x="131" y="214" type="qcurve"/>
      <point x="131" y="238" type="line"/>
      <point x="502" y="238" type="line"/>
      <point x="502" y="276" type="line"/>
      <point x="502" y="386"/>
      <point x="442" y="457" type="qcurve"/>
      <point x="380" y="528"/>
      <point x="279" y="528" type="qcurve"/>
      <point x="173" y="528"/>
      <point x="47" y="380"/>
      <point x="47" y="258" type="qcurve"/>
      <point x="47" y="134"/>
      <point x="111" y="62" type="qcurve"/>
      <point x="173" y="-12"/>
    </contour>
    <contour>
      <point x="416" y="298" type="line"/>
      <point x="131" y="298" type="line"/>
      <point x="131" y="305" type="line"/>
      <point x="131" y="373"/>
      <point x="213" y="461"/>
      <point x="279" y="461" type="qcurve"/>
      <point x="341" y="461"/>
      <point x="416" y="378"/>
      <point x="416" y="309" type="qcurve"/>
    </contour>
    <contour>
      <point x="397" y="591" type="line"/>
      <point x="441" y="622" type="line"/>
      <point x="330" y="765" type="line"/>
      <point x="230" y="765" type="line"/>
      <point x="119" y="622" type="line"/>
      <point x="163" y="591" type="line"/>
      <point x="280" y="708" type="line"/>
    </contour>
  </outline>
</glyph>
<glyph name="iacute" format="2">
  <advance width="250"/>
  <unicode hex="00ED"/>
  <outline>
    <contour>
      <point x="165" y="0" type="line"/>
      <point x="165" y="516" type="line"/>
      <point x="85" y="516" type="line"/>
      <point x="85" y="0" type="line"/>
    </contour>
    <contour>
      <point x="133" y="585" type="line"/>
      <point x="239" y="744" type="line"/>
      <point x="166" y="779" type="line"/>
      <point x="81" y="609" type="line"/>
    </contour>
  </outline>
</glyph>
<glyph name="icircumflex" format="2">
  <advance width="250"/>
  <unicode hex="00EE"/>
  <outline>
    <contour>
      <point x="165" y="0" type="line"/>
      <point x="165" y="516" type="line"/>
      <point x="85" y="516" type="line"/>
      <point x="85" y="0" type="line"/>
    </contour>
    <contour>
      <point x="243" y="591" type="line"/>
      <point x="287" y="622" type="line"/>
      <point x="176" y="765" type="line"/>
      <point x="76" y="765" type="line"/>
      <point x="-35" y="622" type="line"/>
      <point x="9" y="591" type="line"/>
      <point x="126" y="708" type="line"/>
    </contour>
  </outline>
</glyph>
<glyph name="ntilde" format="2">
  <advance width="568"/>
  <unicode hex="00F1"/>
  <outline>
    <contour>
      <point x="488" y="0" type="line"/>
      <point x="488" y="331" type="line"/>
      <point x="488" y="425"/>
      <point x="395" y="528"/>
      <point x="315" y="528" type="qcurve"/>
      <point x="208" y="528"/>
      <point x="169" y="432" type="qcurve"/>
      <point x="165" y="432" type="line"/>
      <point x="165" y="516" type="line"/>
      <point x="85" y="516" type="line"/>
      <point x="85" y="0" type="line"/>
      <point x="165" y="0" type="line"/>
      <point x="165" y="358" type="line"/>
      <point x="165" y="408"/>
      <point x="243" y="456"/>
      <point x="291" y="456" type="qcurve"/>
      <point x="408" y="456"/>
      <point x="408" y="317" type="qcurve"/>
      <point x="408" y="0" type="line"/>
    </contour>
    <contour>
      <point x="362" y="612" type="qcurve"/>
      <point x="422" y="612"/>
      <point x="457" y="665" type="qcurve"/>
      <point x="424" y="705" type="line"/>
      <point x="409" y="692"/>
      <point x="383" y="678"/>
      <point x="366" y="678" type="qcurve"/>
      <point x="339" y="678"/>
      <point x="289" y="705" type="qcurve"/>
      <point x="275" y="714"/>
      <point x="240" y="728"/>
      <point x="216" y="728" type="qcurve"/>
      <point x="156" y="728"/>
      <point x="121" y="675" type="qcurve"/>
      <point x="154" y="635" type="line"/>
      <point x="169" y="648"/>
      <point x="195" y="662"/>
      <point x="212" y="662" type="qcurve"/>
      <point x="239" y="662"/>
      <point x="289" y="635" type="qcurve"/>
      <point x="303" y="626"/>
      <point x="338" y="612"/>
    </contour>
  </outline>
</glyph>
<glyph name="otilde" format="2">
  <advance width="560"/>
  <unicode hex="00F5"/>
  <outline>
    <contour>
      <point x="354" y="612" type="qcurve" smooth="yes"/>
      <point x="330" y="612"/>
      <point x="295" y="626"/>
      <point x="281" y="635" type="qcurve"/>
      <point x="231" y="662"/>
      <point x="204" y="662" type="qcurve" smooth="yes"/>
      <point x="187" y="662"/>
      <point x="161" y="648"/>
      <point x="146" y="635" type="qcurve"/>
      <point x="113" y="675" type="line"/>
      <point x="148" y="728"/>
      <point x="208" y="728" type="qcurve" smooth="yes"/>
      <point x="232" y="728"/>
      <point x="267" y="714"/>
      <point x="281" y="705" type="qcurve"/>
      <point x="331" y="678"/>
      <point x="358" y="678" type="qcurve" smooth="yes"/>
      <point x="375" y="678"/>
      <point x="401" y="692"/>
      <point x="416" y="705" type="qcurve"/>
      <point x="449" y="665" type="line"/>
      <point x="414" y="612"/>
    </contour>
    <contour>
      <point x="280" y="-12" type="qcurve" smooth="yes"/>
      <point x="177" y="-12"/>
      <point x="112" y="62" type="qcurve" smooth="yes"/>
      <point x="47" y="134"/>
      <point x="47" y="258" type="qcurve" smooth="yes"/>
      <point x="47" y="380"/>
      <point x="177" y="528"/>
      <point x="280" y="528" type="qcurve" smooth="yes"/>
      <point x="384" y="528"/>
      <point x="513" y="380"/>
      <point x="513" y="258" type="qcurve" smooth="yes"/>
      <point x="513" y="134"/>
      <point x="448" y="62" type="qcurve"/>
      <point x="384" y="-12"/>
    </contour>
    <contour>
      <point x="280" y="59" type="qcurve" smooth="yes"/>
      <point x="345" y="59"/>
      <point x="427" y="139"/>
      <point x="427" y="221" type="qcurve" smooth="yes"/>
      <point x="427" y="295" type="line" smooth="yes"/>
      <point x="427" y="377"/>
      <point x="345" y="457"/>
      <point x="280" y="457" type="qcurve" smooth="yes"/>
      <point x="215" y="457"/>
      <point x="133" y="377"/>
      <point x="133" y="295" type="qcurve" smooth="yes"/>
      <point x="133" y="221" type="line" smooth="yes"/>
      <point x="133" y="139"/>
      <point x="215" y="59"/>
    </contour>
  </outline>
</glyph>
<glyph name="divide" format="2">
  <advance width="600"/>
  <unicode hex="00F7"/>
  <outline>
    <contour>
      <point x="533" y="271" type="line"/>
      <point x="533" y="339" type="line"/>
      <point x="67" y="339" type="line"/>
      <point x="67" y="271" type="line"/>
    </contour>
    <contour>
      <point x="300" y="52" type="qcurve"/>
      <point x="362" y="52"/>
      <point x="362" y="100" type="qcurve"/>
      <point x="362" y="122" type="line"/>
      <point x="362" y="170"/>
      <point x="300" y="170" type="qcurve"/>
      <point x="238" y="170"/>
      <point x="238" y="122" type="qcurve"/>
      <point x="238" y="100" type="line"/>
      <point x="238" y="52"/>
    </contour>
    <contour>
      <point x="300" y="440" type="qcurve"/>
      <point x="362" y="440"/>
      <point x="362" y="488" type="qcurve"/>
      <point x="362" y="510" type="line"/>
      <point x="362" y="558"/>
      <point x="300" y="558" type="qcurve"/>
      <point x="238" y="558"/>
      <point x="238" y="510" type="qcurve"/>
      <point x="238" y="488" type="line"/>
      <point x="238" y="440"/>
    </contour>
  </outline>
</glyph>
<glyph name="oslash" format="2">
  <advance width="568"/>
  <unicode hex="00F8"/>
  <outline>
    <contour>
      <point x="80" y="-40" type="line"/>
      <point x="142" y="36" type="line"/>
      <point x="202" y="-12"/>
      <point x="284" y="-12" type="qcurve"/>
      <point x="388" y="-12"/>
      <point x="452" y="62" type="qcurve"/>
      <point x="517" y="134"/>
      <point x="517" y="258" type="qcurve"/>
      <point x="517" y="366"/>
      <point x="466" y="437" type="qcurve"/>
      <point x="533" y="522" type="line"/>
      <point x="488" y="556" type="line"/>
      <point x="426" y="479" type="line"/>
      <point x="368" y="528"/>
      <point x="284" y="528" type="qcurve"/>
      <point x="181" y="528"/>
      <point x="51" y="380"/>
      <point x="51" y="258" type="qcurve"/>
      <point x="51" y="149"/>
      <point x="102" y="78" type="qcurve"/>
      <point x="35" y="-6" type="line"/>
    </contour>
    <contour>
      <point x="284" y="59" type="qcurve"/>
      <point x="223" y="59"/>
      <point x="186" y="92" type="qcurve"/>
      <point x="416" y="376" type="line"/>
      <point x="431" y="343"/>
      <point x="431" y="295" type="qcurve"/>
      <point x="431" y="221" type="line"/>
      <point x="431" y="139"/>
      <point x="349" y="59"/>
    </contour>
    <contour>
      <point x="152" y="139" type="line"/>
      <point x="137" y="173"/>
      <point x="137" y="221" type="qcurve"/>
      <point x="137" y="295" type="line"/>
      <point x="137" y="377"/>
      <point x="219" y="457"/>
      <point x="284" y="457" type="qcurve"/>
      <point x="343" y="457"/>
      <point x="382" y="424" type="qcurve"/>
    </contour>
  </outline>
</glyph>
<glyph name="uacute" format="2">
  <advance width="568"/>
  <unicode hex="00FA"/>
  <outline>
    <contour>
      <point x="254" y="-12" type="qcurve"/>
      <point x="361" y="-12"/>
      <point x="399" y="84" type="qcurve"/>
      <point x="403" y="84" type="line"/>
      <point x="403" y="0" type="line"/>
      <point x="483" y="0" type="line"/>
      <point x="483" y="516" type="line"/>
      <point x="403" y="516" type="line"/>
      <point x="403" y="159" type="line"/>
      <point x="403" y="110"/>
      <point x="365" y="84" type="qcurve"/>
      <point x="326" y="60"/>
      <point x="278" y="60" type="qcurve"/>
      <point x="160" y="60"/>
      <point x="160" y="199" type="qcurve"/>
      <point x="160" y="516" type="line"/>
      <point x="80" y="516" type="line"/>
      <point x="80" y="185" type="line"/>
      <point x="80" y="91"/>
      <point x="174" y="-12"/>
    </contour>
    <contour>
      <point x="290" y="585" type="line"/>
      <point x="396" y="744" type="line"/>
      <point x="323" y="779" type="line"/>
      <point x="238" y="609" type="line"/>
    </contour>
  </outline>
</glyph>
<glyph name="ucircumflex" format="2">
  <advance width="568"/>
  <unicode hex="00FB"/>
  <outline>
    <contour>
      <point x="254" y="-12" type="qcurve"/>
      <point x="361" y="-12"/>
      <point x="399" y="84" type="qcurve"/>
      <point x="403" y="84" type="line"/>
      <point x="403" y="0" type="line"/>
      <point x="483" y="0" type="line"/>
      <point x="483" y="516" type="line"/>
      <point x="403" y="516" type="line"/>
      <point x="403" y="159" type="line"/>
      <point x="403" y="110"/>
      <point x="365" y="84" type="qcurve"/>
      <point x="326" y="60"/>
      <point x="278" y="60" type="qcurve"/>
      <point x="160" y="60"/>
      <point x="160" y="199" type="qcurve"/>
      <point x="160" y="516" type="line"/>
      <point x="80" y="516" type="line"/>
      <point x="80" y="185" type="line"/>
      <point x="80" y="91"/>
      <point x="174" y="-12"/>
    </contour>
    <contour>
      <point x="400" y="591" type="line"/>
      <point x="444" y="622" type="line"/>
      <point x="333" y="765" type="line"/>
      <point x="233" y="765" type="line"/>
      <point x="122" y="622" type="line"/>
      <point x="166" y="591" type="line"/>
      <point x="283" y="708" type="line"/>
    </contour>
  </outline>
</glyph>
<glyph name="Aogonek" format="2">
  <advance width="641"/>
  <unicode hex="0104"/>
  <outline>
    <contour>
      <point x="551" y="-207" type="qcurve"/>
      <point x="586" y="-207"/>
      <point x="630" y="-184"/>
      <point x="639" y="-168" type="qcurve"/>
      <point x="599" y="-129" type="line"/>
      <point x="580" y="-153"/>
      <point x="551" y="-153" type="qcurve"/>
      <point x="520" y="-153"/>
      <point x="520" y="-123" type="qcurve"/>
      <point x="520" y="-106"/>
      <point x="556" y="-57"/>
      <point x="618" y="0" type="qcurve"/>
      <point x="374" y="698" type="line"/>
      <point x="267" y="698" type="line"/>
      <point x="23" y="0" type="line"/>
      <point x="108" y="0" type="line"/>
      <point x="178" y="206" type="line"/>
      <point x="460" y="206" type="line"/>
      <point x="530" y="0" type="line"/>
      <point x="556" y="0" type="line"/>
      <point x="557" y="-4" type="line"/>
      <point x="516" y="-33"/>
      <point x="456" y="-93"/>
      <point x="456" y="-131" type="qcurve"/>
      <point x="456" y="-171"/>
      <point x="512" y="-207"/>
    </contour>
    <contour>
      <point x="439" y="280" type="line"/>
      <point x="198" y="280" type="line"/>
      <point x="316" y="620" type="line"/>
      <point x="321" y="620" type="line"/>
    </contour>
  </outline>
</glyph>
<glyph name="aogonek" format="2">
  <advance width="526"/>
  <unicode hex="0105"/>
  <outline>
    <contour>
      <point x="379" y="-207" type="qcurve"/>
      <point x="340" y="-207"/>
      <point x="284" y="-171"/>
      <point x="284" y="-131" type="qcurve"/>
      <point x="284" y="-93"/>
      <point x="345" y="-33"/>
      <point x="386" y="-4" type="qcurve"/>
      <point x="384" y="0" type="line"/>
      <point x="371" y="0" type="line"/>
      <point x="371" y="84" type="line"/>
      <point x="366" y="84" type="line"/>
      <point x="348" y="36"/>
      <point x="271" y="-12"/>
      <point x="217" y="-12" type="qcurve"/>
      <point x="135" y="-12"/>
      <point x="44" y="72"/>
      <point x="44" y="144" type="qcurve"/>
      <point x="44" y="295"/>
      <point x="264" y="295" type="qcurve"/>
      <point x="366" y="295" type="line"/>
      <point x="366" y="346" type="line"/>
      <point x="366" y="459"/>
      <point x="244" y="459" type="qcurve"/>
      <point x="158" y="459"/>
      <point x="113" y="382" type="qcurve"/>
      <point x="65" y="427" type="line"/>
      <point x="86" y="470"/>
      <point x="178" y="528"/>
      <point x="248" y="528" type="qcurve"/>
      <point x="342" y="528"/>
      <point x="446" y="436"/>
      <point x="446" y="354" type="qcurve"/>
      <point x="446" y="0" type="line"/>
      <point x="384" y="-57"/>
      <point x="348" y="-106"/>
      <point x="348" y="-123" type="qcurve"/>
      <point x="348" y="-153"/>
      <point x="379" y="-153" type="qcurve"/>
      <point x="408" y="-153"/>
      <point x="427" y="-129" type="qcurve"/>
      <point x="467" y="-168" type="line"/>
      <point x="458" y="-184"/>
      <point x="414" y="-207"/>
    </contour>
    <contour>
      <point x="230" y="56" type="qcurve"/>
      <point x="290" y="56"/>
      <point x="366" y="110"/>
      <point x="366" y="150" type="qcurve"/>
      <point x="366" y="235" type="line"/>
      <point x="260" y="235" type="line"/>
      <point x="128" y="235"/>
      <point x="128" y="157" type="qcurve"/>
      <point x="128" y="136" type="line"/>
      <point x="128" y="60"/>
    </contour>
  </outline>
</glyph>
<glyph name="cacute" format="2">
  <advance width="503"/>
  <unicode hex="0107"/>
  <outline>
    <contour>
      <point x="277" y="-12" type="qcurve"/>
      <point x="351" y="-12"/>
      <point x="450" y="53"/>
      <point x="475" y="110" type="qcurve"/>
      <point x="417" y="149" type="line"/>
      <point x="375" y="59"/>
      <point x="277" y="59" type="qcurve"/>
      <point x="206" y="59"/>
      <point x="133" y="146"/>
      <point x="133" y="214" type="qcurve"/>
      <point x="133" y="302" type="line"/>
      <point x="133" y="370"/>
      <point x="205" y="457"/>
      <point x="277" y="457" type="qcurve"/>
      <point x="373" y="457"/>
      <point x="403" y="373" type="qcurve"/>
      <point x="470" y="407" type="line"/>
      <point x="420" y="528"/>
      <point x="277" y="528" type="qcurve"/>
      <point x="169" y="528"/>
      <point x="47" y="383"/>
      <point x="47" y="258" type="qcurve"/>
      <point x="47" y="134"/>
      <point x="169" y="-12"/>
    </contour>
    <contour>
      <point x="284" y="585" type="line"/>
      <point x="390" y="744" type="line"/>
      <point x="317" y="779" type="line"/>
      <point x="232" y="609" type="line"/>
    </contour>
  </outline>
</glyph>
<glyph name="Ccircumflex" format="2">
  <advance width="621"/>
  <unicode hex="0108"/>
  <outline>
    <contour>
      <point x="339" y="-12" type="qcurve"/>
      <point x="427" y="-12"/>
      <point x="551" y="72"/>
      <point x="584" y="147" type="qcurve"/>
      <point x="517" y="189" type="line"/>
      <point x="496" y="131"/>
      <point x="406" y="63"/>
      <point x="339" y="63" type="qcurve"/>
      <point x="248" y="63"/>
      <point x="148" y="185"/>
      <point x="148" y="293" type="qcurve"/>
      <point x="148" y="397" type="line"/>
      <point x="148" y="505"/>
      <point x="249" y="635"/>
      <point x="339" y="635" type="qcurve"/>
      <point x="404" y="635"/>
      <point x="490" y="571"/>
      <point x="511" y="516" type="qcurve"/>
      <point x="579" y="557" type="line"/>
      <point x="510" y="710"/>
      <point x="339" y="710" type="qcurve"/>
      <point x="206" y="710"/>
      <point x="58" y="521"/>
      <point x="58" y="345" type="qcurve"/>
      <point x="58" y="169"/>
      <point x="206" y="-12"/>
    </contour>
    <contour>
      <point x="455" y="761" type="line"/>
      <point x="499" y="792" type="line"/>
      <point x="388" y="935" type="line"/>
      <point x="288" y="935" type="line"/>
      <point x="177" y="792" type="line"/>
      <point x="221" y="761" type="line"/>
      <point x="338" y="878" type="line"/>
    </contour>
  </outline>
</glyph>
<glyph name="Dcaron" format="2">
  <advance width="671"/>
  <unicode hex="010E"/>
  <outline>
    <contour>
      <point x="257" y="769" type="line"/>
      <point x="146" y="912" type="line"/>
      <point x="190" y="943" type="line"/>
      <point x="307" y="826" type="line"/>
      <point x="424" y="943" type="line"/>
      <point x="468" y="912" type="line"/>
      <point x="357" y="769" type="line"/>
    </contour>
    <contour>
      <point x="93" y="0" type="line"/>
      <point x="93" y="698" type="line"/>
      <point x="327" y="698" type="line" smooth="yes"/>
      <point x="458" y="698"/>
      <point x="613" y="523"/>
      <point x="613" y="349" type="qcurve" smooth="yes"/>
      <point x="613" y="175"/>
      <point x="458" y="0"/>
      <point x="327" y="0" type="qcurve" smooth="yes"/>
    </contour>
    <contour>
      <point x="327" y="74" type="line" smooth="yes"/>
      <point x="413" y="74"/>
      <point x="523" y="189"/>
      <point x="523" y="292" type="qcurve" smooth="yes"/>
      <point x="523" y="406" type="line" smooth="yes"/>
      <point x="523" y="510"/>
      <point x="413" y="624"/>
      <point x="327" y="624" type="qcurve" smooth="yes"/>
      <point x="177" y="624" type="line"/>
      <point x="177" y="74" type="line"/>
    </contour>
  </outline>
</glyph>
<glyph name="Ebreve" format="2">
  <advance width="583"/>
  <unicode hex="0114"/>
  <outline>
    <contour>
      <point x="519" y="0" type="line"/>
      <point x="519" y="74" type="line"/>
      <point x="177" y="74" type="line"/>
      <point x="177" y="316" type="line"/>
      <point x="499" y="316" type="line"/>
      <point x="499" y="390" type="line"/>
      <point x="177" y="390" type="line"/>
      <point x="177" y="624" type="line"/>
      <point x="519" y="624" type="line"/>
      <point x="519" y="698" type="line"/>
      <point x="93" y="698" type="line"/>
      <point x="93" y="0" type="line"/>
    </contour>
    <contour>
      <point x="304" y="766" type="qcurve"/>
      <point x="377" y="766"/>
      <point x="414" y="808" type="qcurve"/>
      <point x="445" y="847"/>
      <point x="456" y="891" type="qcurve"/>
      <point x="411" y="913" type="line"/>
      <point x="390" y="880" type="line"/>
      <point x="377" y="857"/>
      <point x="342" y="829"/>
      <point x="304" y="829" type="qcurve"/>
      <point x="266" y="829"/>
      <point x="230" y="858"/>
      <point x="218" y="880" type="qcurve"/>
      <point x="197" y="913" type="line"/>
      <point x="152" y="891" type="line"/>
      <point x="185" y="766"/>
    </contour>
  </outline>
</glyph>
<glyph name="Eogonek" format="2">
  <advance width="583"/>
  <unicode hex="0118"/>
  <outline>
    <contour>
      <point x="452" y="-207" type="qcurve" smooth="yes"/>
      <point x="413" y="-207"/>
      <point x="357" y="-171"/>
      <point x="357" y="-131" type="qcurve" smooth="yes"/>
      <point x="357" y="-93"/>
      <point x="415" y="-32"/>
      <point x="458" y="-5" type="qcurve"/>
      <point x="457" y="0" type="line"/>
      <point x="93" y="0" type="line"/>
      <point x="93" y="698" type="line"/>
      <point x="519" y="698" type="line"/>
      <point x="519" y="624" type="line"/>
      <point x="177" y="624" type="line"/>
      <point x="177" y="390" type="line"/>
      <point x="499" y="390" type="line"/>
      <point x="499" y="316" type="line"/>
      <point x="177" y="316" type="line"/>
      <point x="177" y="74" type="line"/>
      <point x="519" y="74" type="line"/>
      <point x="519" y="0" type="line"/>
      <point x="457" y="-57"/>
      <point x="421" y="-106"/>
      <point x="421" y="-123" type="qcurve" smooth="yes"/>
      <point x="421" y="-153"/>
      <point x="452" y="-153" type="qcurve" smooth="yes"/>
      <point x="481" y="-153"/>
      <point x="500" y="-129" type="qcurve"/>
      <point x="540" y="-168" type="line"/>
      <point x="531" y="-184"/>
      <point x="487" y="-207"/>
    </contour>
  </outline>
</glyph>
<glyph name="eogonek" format="2">
  <advance width="549"/>
  <unicode hex="0119"/>
  <outline>
    <contour>
      <point x="356" y="-207" type="qcurve"/>
      <point x="391" y="-207"/>
      <point x="435" y="-184"/>
      <point x="444" y="-168" type="qcurve"/>
      <point x="405" y="-129" type="line"/>
      <point x="386" y="-153"/>
      <point x="357" y="-153" type="qcurve"/>
      <point x="326" y="-153"/>
      <point x="326" y="-122" type="qcurve"/>
      <point x="326" y="-99"/>
      <point x="340" y="-76" type="qcurve"/>
      <point x="369" y="-29"/>
      <point x="413" y="13" type="qcurve"/>
      <point x="462" y="61"/>
      <point x="483" y="106" type="qcurve"/>
      <point x="426" y="147" type="line"/>
      <point x="382" y="58"/>
      <point x="284" y="58" type="qcurve"/>
      <point x="212" y="58"/>
      <point x="131" y="148"/>
      <point x="131" y="214" type="qcurve"/>
      <point x="131" y="238" type="line"/>
      <point x="502" y="238" type="line"/>
      <point x="502" y="276" type="line"/>
      <point x="502" y="386"/>
      <point x="442" y="457" type="qcurve"/>
      <point x="380" y="528"/>
      <point x="279" y="528" type="qcurve"/>
      <point x="173" y="528"/>
      <point x="47" y="380"/>
      <point x="47" y="258" type="qcurve"/>
      <point x="47" y="134"/>
      <point x="111" y="62" type="qcurve"/>
      <point x="173" y="-12"/>
      <point x="279" y="-12" type="qcurve"/>
      <point x="329" y="-12"/>
      <point x="360" y="5" type="qcurve"/>
      <point x="364" y="0" type="line"/>
      <point x="327" y="-23"/>
      <point x="262" y="-86"/>
      <point x="262" y="-130" type="qcurve"/>
      <point x="262" y="-171"/>
      <point x="317" y="-207"/>
    </contour>
    <contour>
      <point x="416" y="298" type="line"/>
      <point x="131" y="298" type="line"/>
      <point x="131" y="305" type="line"/>
      <point x="131" y="373"/>
      <point x="213" y="461"/>
      <point x="279" y="461" type="qcurve"/>
      <point x="341" y="461"/>
      <point x="416" y="378"/>
      <point x="416" y="309" type="qcurve"/>
    </contour>
  </outline>
</glyph>
<glyph name="Ecaron" format="2">
  <advance width="583"/>
  <unicode hex="011A"/>
  <outline>
    <contour>
      <point x="519" y="0" type="line"/>
      <point x="519" y="74" type="line"/>
      <point x="177" y="74" type="line"/>
      <point x="177" y="316" type="line"/>
      <point x="499" y="316" type="line"/>
      <point x="499" y="390" type="line"/>
      <point x="177" y="390" type="line"/>
      <point x="177" y="624" type="line"/>
      <point x="519" y="624" type="line"/>
      <point x="519" y="698" type="line"/>
      <point x="93" y="698" type="line"/>
      <point x="93" y="0" type="line"/>
    </contour>
    <contour>
      <point x="354" y="769" type="line"/>
      <point x="465" y="912" type="line"/>
      <point x="421" y="943" type="line"/>
      <point x="304" y="826" type="line"/>
      <point x="187" y="943" type="line"/>
      <point x="143" y="912" type="line"/>
      <point x="254" y="769" type="line"/>
    </contour>
  </outline>
</glyph>
<glyph name="Gbreve" format="2">
  <advance width="676"/>
  <unicode hex="011E"/>
  <outline>
    <contour>
      <point x="355" y="766" type="qcurve" smooth="yes"/>
      <point x="315" y="766"/>
      <point x="262" y="789"/>
      <point x="229" y="827"/>
      <point x="210" y="870"/>
      <point x="203" y="891" type="qcurve"/>
      <point x="248" y="913" type="line"/>
      <point x="269" y="880" type="line" smooth="yes"/>
      <point x="283" y="858"/>
      <point x="317" y="829"/>
      <point x="355" y="829" type="qcurve" smooth="yes"/>
      <point x="393" y="829"/>
      <point x="428" y="858"/>
      <point x="441" y="880" type="qcurve"/>
      <point x="462" y="913" type="line"/>
      <point x="507" y="891" type="line"/>
      <point x="498" y="864"/>
      <point x="468" y="806"/>
      <point x="409" y="766"/>
    </contour>
    <contour>
      <point x="50" y="349" type="qcurve" smooth="yes"/>
      <point x="50" y="469"/>
      <point x="119" y="630"/>
      <point x="250" y="710"/>
      <point x="342" y="710" type="qcurve" smooth="yes"/>
      <point x="391" y="710"/>
      <point x="470" y="687"/>
      <point x="534" y="646"/>
      <point x="581" y="589"/>
      <point x="596" y="553" type="qcurve"/>
      <point x="526" y="510" type="line"/>
      <point x="514" y="544"/>
      <point x="468" y="601"/>
      <point x="395" y="634"/>
      <point x="342" y="634" type="qcurve" smooth="yes"/>
      <point x="278" y="634"/>
      <point x="189" y="577"/>
      <point x="143" y="476"/>
      <point x="143" y="408" type="qcurve" smooth="yes"/>
      <point x="143" y="291" type="line" smooth="yes"/>
      <point x="143" y="241"/>
      <point x="168" y="158"/>
      <point x="220" y="97"/>
      <point x="297" y="64"/>
      <point x="348" y="64" type="qcurve" smooth="yes"/>
      <point x="405" y="64"/>
      <point x="485" y="106"/>
      <point x="527" y="184"/>
      <point x="527" y="237" type="qcurve" smooth="yes"/>
      <point x="527" y="281" type="line"/>
      <point x="337" y="281" type="line"/>
      <point x="337" y="359" type="line"/>
      <point x="612" y="359" type="line"/>
      <point x="612" y="257" type="line" smooth="yes"/>
      <point x="612" y="177"/>
      <point x="559" y="73"/>
      <point x="475" y="13"/>
      <point x="379" y="-12"/>
      <point x="335" y="-12" type="qcurve" smooth="yes"/>
      <point x="289" y="-12"/>
      <point x="203" y="13"/>
      <point x="133" y="66"/>
      <point x="79" y="152"/>
      <point x="50" y="271"/>
    </contour>
  </outline>
</glyph>
<glyph name="Gdotaccent" format="2">
  <advance width="676"/>
  <unicode hex="0120"/>
  <outline>
    <contour>
      <point x="355" y="780" type="qcurve" smooth="yes"/>
      <point x="327" y="780"/>
      <point x="299" y="809"/>
      <point x="299" y="833" type="qcurve" smooth="yes"/>
      <point x="299" y="847" type="line" smooth="yes"/>
      <point x="299" y="871"/>
      <point x="327" y="900"/>
      <point x="355" y="900" type="qcurve" smooth="yes"/>
      <point x="384" y="900"/>
      <point x="411" y="871"/>
      <point x="411" y="847" type="qcurve" smooth="yes"/>
      <point x="411" y="833" type="line" smooth="yes"/>
      <point x="411" y="809"/>
      <point x="384" y="780"/>
    </contour>
    <contour>
      <point x="50" y="349" type="qcurve" smooth="yes"/>
      <point x="50" y="469"/>
      <point x="119" y="630"/>
      <point x="250" y="710"/>
      <point x="342" y="710" type="qcurve" smooth="yes"/>
      <point x="391" y="710"/>
      <point x="470" y="687"/>
      <point x="534" y="646"/>
      <point x="581" y="589"/>
      <point x="596" y="553" type="qcurve"/>
      <point x="526" y="510" type="line"/>
      <point x="514" y="544"/>
      <point x="468" y="601"/>
      <point x="395" y="634"/>
      <point x="342" y="634" type="qcurve" smooth="yes"/>
      <point x="278" y="634"/>
      <point x="189" y="577"/>
      <point x="143" y="476"/>
      <point x="143" y="408" type="qcurve" smooth="yes"/>
      <point x="143" y="291" type="line" smooth="yes"/>
      <point x="143" y="241"/>
      <point x="168" y="158"/>
      <point x="220" y="97"/>
      <point x="297" y="64"/>
      <point x="348" y="64" type="qcurve" smooth="yes"/>
      <point x="405" y="64"/>
      <point x="485" y="106"/>
      <point x="527" y="184"/>
      <point x="527" y="237" type="qcurve" smooth="yes"/>
      <point x="527" y="281" type="line"/>
      <point x="337" y="281" type="line"/>
      <point x="337" y="359" type="line"/>
      <point x="612" y="359" type="line"/>
      <point x="612" y="257" type="line" smooth="yes"/>
      <point x="612" y="177"/>
      <point x="559" y="73"/>
      <point x="475" y="13"/>
      <point x="379" y="-12"/>
      <point x="335" y="-12" type="qcurve" smooth="yes"/>
      <point x="289" y="-12"/>
      <point x="203" y="13"/>
      <point x="133" y="66"/>
      <point x="79" y="152"/>
      <point x="50" y="271"/>
    </contour>
  </outline>
</glyph>
<glyph name="Gcedilla" format="2">
  <advance width="676"/>
  <unicode hex="0122"/>
  <outline>
    <contour>
      <point x="50" y="349" type="qcurve"/>
      <point x="50" y="469"/>
      <point x="119" y="630"/>
      <point x="250" y="710"/>
      <point x="342" y="710" type="qcurve"/>
      <point x="391" y="710"/>
      <point x="470" y="687"/>
      <point x="534" y="646"/>
      <point x="581" y="589"/>
      <point x="596" y="553" type="qcurve"/>
      <point x="526" y="510" type="line"/>
      <point x="514" y="544"/>
      <point x="468" y="601"/>
      <point x="395" y="634"/>
      <point x="342" y="634" type="qcurve"/>
      <point x="278" y="634"/>
      <point x="189" y="577"/>
      <point x="143" y="476"/>
      <point x="143" y="408" type="qcurve"/>
      <point x="143" y="291" type="line"/>
      <point x="143" y="241"/>
      <point x="168" y="158"/>
      <point x="220" y="97"/>
      <point x="297" y="64"/>
      <point x="348" y="64" type="qcurve"/>
      <point x="405" y="64"/>
      <point x="485" y="106"/>
      <point x="527" y="184"/>
      <point x="527" y="237" type="qcurve"/>
      <point x="527" y="281" type="line"/>
      <point x="337" y="281" type="line"/>
      <point x="337" y="359" type="line"/>
      <point x="612" y="359" type="line"/>
      <point x="612" y="257" type="line"/>
      <point x="612" y="177"/>
      <point x="559" y="73"/>
      <point x="475" y="13"/>
      <point x="379" y="-12"/>
      <point x="335" y="-12" type="qcurve"/>
      <point x="289" y="-12"/>
      <point x="203" y="13"/>
      <point x="133" y="66"/>
      <point x="79" y="152"/>
      <point x="50" y="271"/>
    </contour>
    <contour>
      <point x="348" y="-66" type="qcurve"/>
      <point x="373" y="-66"/>
      <point x="399" y="-91"/>
      <point x="399" y="-113" type="qcurve"/>
      <point x="399" y="-124" type="line"/>
      <point x="399" y="-159"/>
      <point x="363" y="-222"/>
      <point x="339" y="-245" type="qcurve"/>
      <point x="281" y="-245" type="line"/>
      <point x="301" y="-224"/>
      <point x="325" y="-190"/>
      <point x="332" y="-167" type="qcurve"/>
      <point x="315" y="-163"/>
      <point x="297" y="-139"/>
      <point x="297" y="-123" type="qcurve"/>
      <point x="297" y="-113" type="line"/>
      <point x="297" y="-91"/>
      <point x="323" y="-66"/>
    </contour>
  </outline>
</glyph>
<glyph name="Hcircumflex" format="2">
  <advance width="707"/>
  <unicode hex="0124"/>
  <outline>
    <contour>
      <point x="614" y="0" type="line"/>
      <point x="614" y="698" type="line"/>
      <point x="530" y="698" type="line"/>
      <point x="530" y="390" type="line"/>
      <point x="177" y="390" type="line"/>
      <point x="177" y="698" type="line"/>
      <point x="93" y="698" type="line"/>
      <point x="93" y="0" type="line"/>
      <point x="177" y="0" type="line"/>
      <point x="177" y="316" type="line"/>
      <point x="530" y="316" type="line"/>
      <point x="530" y="0" type="line"/>
    </contour>
    <contour>
      <point x="471" y="761" type="line"/>
      <point x="515" y="792" type="line"/>
      <point x="404" y="935" type="line"/>
      <point x="304" y="935" type="line"/>
      <point x="193" y="792" type="line"/>
      <point x="237" y="761" type="line"/>
      <point x="354" y="878" type="line"/>
    </contour>
  </outline>
</glyph>
<glyph name="Imacron" format="2">
  <advance width="270"/>
  <unicode hex="012A"/>
  <outline>
    <contour>
      <point x="-4" y="807" type="line"/>
      <point x="-4" y="875" type="line"/>
      <point x="276" y="875" type="line"/>
      <point x="276" y="807" type="line"/>
    </contour>
    <contour>
      <point x="93" y="0" type="line"/>
      <point x="93" y="698" type="line"/>
      <point x="177" y="698" type="line"/>
      <point x="177" y="0" type="line"/>
    </contour>
  </outline>
</glyph>
<glyph name="ibreve" format="2">
  <advance width="250"/>
  <unicode hex="012D"/>
  <outline>
    <contour>
      <point x="165" y="0" type="line"/>
      <point x="165" y="516" type="line"/>
      <point x="85" y="516" type="line"/>
      <point x="85" y="0" type="line"/>
    </contour>
    <contour>
      <point x="126" y="596" type="qcurve"/>
      <point x="199" y="596"/>
      <point x="236" y="638" type="qcurve"/>
      <point x="267" y="677"/>
      <point x="278" y="721" type="qcurve"/>
      <point x="233" y="743" type="line"/>
      <point x="212" y="710" type="line"/>
      <point x="199" y="687"/>
      <point x="164" y="659"/>
      <point x="126" y="659" type="qcurve"/>
      <point x="88" y="659"/>
      <point x="52" y="688"/>
      <point x="40" y="710" type="qcurve"/>
      <point x="19" y="743" type="line"/>
      <point x="-26" y="721" type="line"/>
      <point x="7" y="596"/>
    </contour>
  </outline>
</glyph>
<glyph name="idotless" format="2">
  <advance width="250"/>
  <unicode hex="0131"/>
  <outline>
    <contour>
      <point x="165" y="0" type="line"/>
      <point x="165" y="516" type="line"/>
      <point x="85" y="516" type="line"/>
      <point x="85" y="0" type="line"/>
    </contour>
  </outline>
</glyph>
<glyph name="Jcircumflex" format="2">
  <advance width="510"/>
  <unicode hex="0134"/>
  <outline>
    <contour>
      <point x="222" y="-12" type="qcurve"/>
      <point x="141" y="-12"/>
      <point x="42" y="74"/>
      <point x="28" y="147" type="qcurve"/>
      <point x="104" y="165" type="line"/>
      <point x="125" y="63"/>
      <point x="224" y="63" type="qcurve"/>
      <point x="278" y="63"/>
      <point x="338" y="129"/>
      <point x="338" y="196" type="qcurve"/>
      <point x="338" y="698" type="line"/>
      <point x="422" y="698" type="line"/>
      <point x="422" y="181" type="line"/>
      <point x="422" y="93"/>
      <point x="311" y="-12"/>
    </contour>
    <contour>
      <point x="381" y="761" type="line"/>
      <point x="264" y="878" type="line"/>
      <point x="147" y="761" type="line"/>
      <point x="103" y="792" type="line"/>
      <point x="214" y="935" type="line"/>
      <point x="314" y="935" type="line"/>
      <point x="425" y="792" type="line"/>
    </contour>
  </outline>
</glyph>
<glyph name="Kcedilla" format="2">
  <advance width="634"/>
  <unicode hex="0136"/>
  <outline>
    <contour>
      <point x="612" y="0" type="line"/>
      <point x="334" y="399" type="line"/>
      <point x="594" y="698" type="line"/>
      <point x="491" y="698" type="line"/>
      <point x="335" y="513"/>
      <point x="180" y="327" type="qcurve"/>
      <point x="177" y="327" type="line"/>
      <point x="177" y="698" type="line"/>
      <point x="93" y="698" type="line"/>
      <point x="93" y="0" type="line"/>
      <point x="177" y="0" type="line"/>
      <point x="177" y="233" type="line"/>
      <point x="276" y="343" type="line"/>
      <point x="508" y="0" type="line"/>
    </contour>
    <contour>
      <point x="327" y="-245" type="line"/>
      <point x="387" y="-188"/>
      <point x="387" y="-124" type="qcurve"/>
      <point x="387" y="-113" type="line"/>
      <point x="387" y="-69"/>
      <point x="336" y="-66" type="qcurve"/>
      <point x="287" y="-66"/>
      <point x="285" y="-113" type="qcurve"/>
      <point x="285" y="-123" type="line"/>
      <point x="285" y="-157"/>
      <point x="320" y="-167" type="qcurve"/>
      <point x="313" y="-190"/>
      <point x="289" y="-225"/>
      <point x="269" y="-245" type="qcurve"/>
    </contour>
  </outline>
</glyph>
<glyph name="uni0137" format="2">
  <advance width="527"/>
  <unicode hex="0137"/>
  <outline>
    <contour>
      <point x="413" y="0" type="line"/>
      <point x="242" y="263" type="line"/>
      <point x="165" y="184" type="line"/>
      <point x="165" y="0" type="line"/>
      <point x="85" y="0" type="line"/>
      <point x="85" y="740" type="line"/>
      <point x="165" y="740" type="line"/>
      <point x="165" y="271" type="line"/>
      <point x="169" y="271" type="line"/>
      <point x="280" y="394"/>
      <point x="394" y="516" type="qcurve"/>
      <point x="491" y="516" type="line"/>
      <point x="300" y="312" type="line"/>
      <point x="510" y="0" type="line"/>
    </contour>
    <contour>
      <point x="225" y="-245" type="line"/>
      <point x="245" y="-225"/>
      <point x="269" y="-190"/>
      <point x="276" y="-167" type="qcurve"/>
      <point x="241" y="-157"/>
      <point x="241" y="-123" type="qcurve" smooth="yes"/>
      <point x="241" y="-113" type="line"/>
      <point x="243" y="-66"/>
      <point x="292" y="-66" type="qcurve"/>
      <point x="343" y="-69"/>
      <point x="343" y="-113" type="qcurve" smooth="yes"/>
      <point x="343" y="-124" type="line" smooth="yes"/>
      <point x="343" y="-188"/>
      <point x="283" y="-245" type="qcurve"/>
    </contour>
  </outline>
</glyph>
<glyph name="lacute" format="2">
  <advance width="272"/>
  <unicode hex="013A"/>
  <outline>
    <contour>
      <point x="133" y="785" type="line"/>
      <point x="239" y="944" type="line"/>
      <point x="166" y="979" type="line"/>
      <point x="81" y="809" type="line"/>
    </contour>
    <contour>
      <point x="241" y="0" type="line"/>
      <point x="241" y="70" type="line"/>
      <point x="165" y="70" type="line"/>
      <point x="165" y="740" type="line"/>
      <point x="85" y="740" type="line"/>
      <point x="85" y="83" type="line"/>
      <point x="85" y="47"/>
      <point x="128" y="0"/>
      <point x="170" y="0" type="qcurve"/>
    </contour>
  </outline>
</glyph>
<glyph name="Lcedilla" format="2">
  <advance width="501"/>
  <unicode hex="013B"/>
  <outline>
    <contour>
      <point x="474" y="0" type="line"/>
      <point x="474" y="74" type="line"/>
      <point x="177" y="74" type="line"/>
      <point x="177" y="698" type="line"/>
      <point x="93" y="698" type="line"/>
      <point x="93" y="0" type="line"/>
    </contour>
    <contour>
      <point x="289" y="-245" type="line"/>
      <point x="349" y="-188"/>
      <point x="349" y="-124" type="qcurve"/>
      <point x="349" y="-113" type="line"/>
      <point x="349" y="-69"/>
      <point x="298" y="-66" type="qcurve"/>
      <point x="249" y="-66"/>
      <point x="247" y="-113" type="qcurve"/>
      <point x="247" y="-123" type="line"/>
      <point x="247" y="-157"/>
      <point x="282" y="-167" type="qcurve"/>
      <point x="275" y="-190"/>
      <point x="251" y="-225"/>
      <point x="231" y="-245" type="qcurve"/>
    </contour>
  </outline>
</glyph>
<glyph name="Lcaron" format="2">
  <advance width="501"/>
  <unicode hex="013D"/>
  <outline>
    <contour>
      <point x="474" y="0" type="line"/>
      <point x="474" y="74" type="line"/>
      <point x="177" y="74" type="line"/>
      <point x="177" y="698" type="line"/>
      <point x="93" y="698" type="line"/>
      <point x="93" y="0" type="line"/>
    </contour>
    <contour>
      <point x="309" y="555" type="line"/>
      <point x="361" y="740" type="line"/>
      <point x="268" y="740" type="line"/>
      <point x="256" y="555" type="line"/>
    </contour>
  </outline>
</glyph>
<glyph name="Lmiddledot" format="2">
  <advance width="501"/>
  <unicode hex="013F"/>
  <outline>
    <contour>
      <point x="474" y="0" type="line"/>
      <point x="474" y="74" type="line"/>
      <point x="177" y="74" type="line"/>
      <point x="177" y="698" type="line"/>
      <point x="93" y="698" type="line"/>
      <point x="93" y="0" type="line"/>
    </contour>
    <contour>
      <point x="385" y="293" type="qcurve"/>
      <point x="436" y="293"/>
      <point x="436" y="339" type="qcurve"/>
      <point x="436" y="350" type="line"/>
      <point x="436" y="396"/>
      <point x="385" y="396" type="qcurve"/>
      <point x="334" y="396"/>
      <point x="334" y="350" type="qcurve"/>
      <point x="334" y="339" type="line"/>
      <point x="334" y="293"/>
    </contour>
  </outline>
</glyph>
<glyph name="lmiddledot" format="2">
  <advance width="358"/>
  <unicode hex="0140"/>
  <outline>
    <contour>
      <point x="304" y="254" type="qcurve"/>
      <point x="355" y="254"/>
      <point x="355" y="300" type="qcurve"/>
      <point x="355" y="311" type="line"/>
      <point x="355" y="357"/>
      <point x="304" y="357" type="qcurve"/>
      <point x="253" y="357"/>
      <point x="253" y="311" type="qcurve"/>
      <point x="253" y="300" type="line"/>
      <point x="253" y="254"/>
    </contour>
    <contour>
      <point x="241" y="0" type="line"/>
      <point x="241" y="70" type="line"/>
      <point x="165" y="70" type="line"/>
      <point x="165" y="740" type="line"/>
      <point x="85" y="740" type="line"/>
      <point x="85" y="83" type="line"/>
      <point x="85" y="47"/>
      <point x="128" y="0"/>
      <point x="170" y="0" type="qcurve"/>
    </contour>
  </outline>
</glyph>
<glyph name="Ncedilla" format="2">
  <advance width="707"/>
  <unicode hex="0145"/>
  <outline>
    <contour>
      <point x="614" y="0" type="line"/>
      <point x="614" y="698" type="line"/>
      <point x="532" y="698" type="line"/>
      <point x="532" y="117" type="line"/>
      <point x="529" y="117" type="line"/>
      <point x="445" y="272" type="line"/>
      <point x="190" y="698" type="line"/>
      <point x="93" y="698" type="line"/>
      <point x="93" y="0" type="line"/>
      <point x="175" y="0" type="line"/>
      <point x="175" y="581" type="line"/>
      <point x="178" y="581" type="line"/>
      <point x="262" y="426" type="line"/>
      <point x="517" y="0" type="line"/>
    </contour>
    <contour>
      <point x="344" y="-245" type="line"/>
      <point x="404" y="-188"/>
      <point x="404" y="-124" type="qcurve"/>
      <point x="404" y="-113" type="line"/>
      <point x="404" y="-69"/>
      <point x="353" y="-66" type="qcurve"/>
      <point x="304" y="-66"/>
      <point x="302" y="-113" type="qcurve"/>
      <point x="302" y="-123" type="line"/>
      <point x="302" y="-157"/>
      <point x="337" y="-167" type="qcurve"/>
      <point x="330" y="-190"/>
      <point x="306" y="-225"/>
      <point x="286" y="-245" type="qcurve"/>
    </contour>
  </outline>
</glyph>
<glyph name="uni0146" format="2">
  <advance width="568"/>
  <unicode hex="0146"/>
  <outline>
    <contour>
      <point x="408" y="0" type="line"/>
      <point x="408" y="317" type="line" smooth="yes"/>
      <point x="408" y="456"/>
      <point x="291" y="456" type="qcurve" smooth="yes"/>
      <point x="243" y="456"/>
      <point x="165" y="408"/>
      <point x="165" y="358" type="qcurve" smooth="yes"/>
      <point x="165" y="0" type="line"/>
      <point x="85" y="0" type="line"/>
      <point x="85" y="516" type="line"/>
      <point x="165" y="516" type="line"/>
      <point x="165" y="432" type="line"/>
      <point x="169" y="432" type="line"/>
      <point x="208" y="528"/>
      <point x="315" y="528" type="qcurve" smooth="yes"/>
      <point x="395" y="528"/>
      <point x="488" y="425"/>
      <point x="488" y="331" type="qcurve" smooth="yes"/>
      <point x="488" y="0" type="line"/>
    </contour>
    <contour>
      <point x="220" y="-245" type="line"/>
      <point x="240" y="-225"/>
      <point x="264" y="-190"/>
      <point x="271" y="-167" type="qcurve"/>
      <point x="236" y="-157"/>
      <point x="236" y="-123" type="qcurve" smooth="yes"/>
      <point x="236" y="-113" type="line"/>
      <point x="238" y="-66"/>
      <point x="287" y="-66" type="qcurve"/>
      <point x="338" y="-69"/>
      <point x="338" y="-113" type="qcurve" smooth="yes"/>
      <point x="338" y="-124" type="line" smooth="yes"/>
      <point x="338" y="-188"/>
      <point x="278" y="-245" type="qcurve"/>
    </contour>
  </outline>
</glyph>
<glyph name="Ncaron" format="2">
  <advance width="707"/>
  <unicode hex="0147"/>
  <outline>
    <contour>
      <point x="303" y="769" type="line"/>
      <point x="192" y="912" type="line"/>
      <point x="236" y="943" type="line"/>
      <point x="353" y="826" type="line"/>
      <point x="470" y="943" type="line"/>
      <point x="514" y="912" type="line"/>
      <point x="403" y="769" type="line"/>
    </contour>
    <contour>
      <point x="517" y="0" type="line"/>
      <point x="262" y="426" type="line"/>
      <point x="178" y="581" type="line"/>
      <point x="175" y="581" type="line"/>
      <point x="175" y="0" type="line"/>
      <point x="93" y="0" type="line"/>
      <point x="93" y="698" type="line"/>
      <point x="190" y="698" type="line"/>
      <point x="445" y="272" type="line"/>
      <point x="529" y="117" type="line"/>
      <point x="532" y="117" type="line"/>
      <point x="532" y="698" type="line"/>
      <point x="614" y="698" type="line"/>
      <point x="614" y="0" type="line"/>
    </contour>
  </outline>
</glyph>
<glyph name="Obreve" format="2">
  <advance width="708"/>
  <unicode hex="014E"/>
  <outline>
    <contour>
      <point x="354" y="766" type="qcurve" smooth="yes"/>
      <point x="235" y="766"/>
      <point x="202" y="891" type="qcurve"/>
      <point x="247" y="913" type="line"/>
      <point x="268" y="880" type="line"/>
      <point x="280" y="858"/>
      <point x="316" y="829"/>
      <point x="354" y="829" type="qcurve" smooth="yes"/>
      <point x="392" y="829"/>
      <point x="427" y="857"/>
      <point x="440" y="880" type="qcurve"/>
      <point x="461" y="913" type="line"/>
      <point x="506" y="891" type="line"/>
      <point x="495" y="847"/>
      <point x="464" y="808" type="qcurve"/>
      <point x="427" y="766"/>
    </contour>
    <contour>
      <point x="354" y="-12" type="qcurve" smooth="yes"/>
      <point x="218" y="-12"/>
      <point x="139" y="81" type="qcurve"/>
      <point x="58" y="174"/>
      <point x="58" y="349" type="qcurve" smooth="yes"/>
      <point x="58" y="525"/>
      <point x="139" y="617" type="qcurve"/>
      <point x="218" y="710"/>
      <point x="354" y="710" type="qcurve" smooth="yes"/>
      <point x="488" y="710"/>
      <point x="650" y="525"/>
      <point x="650" y="349" type="qcurve" smooth="yes"/>
      <point x="650" y="174"/>
      <point x="488" y="-12"/>
    </contour>
    <contour>
      <point x="354" y="63" type="qcurve" smooth="yes"/>
      <point x="444" y="63"/>
      <point x="560" y="188"/>
      <point x="560" y="291" type="qcurve" smooth="yes"/>
      <point x="560" y="407" type="line" smooth="yes"/>
      <point x="560" y="511"/>
      <point x="444" y="635"/>
      <point x="354" y="635" type="qcurve" smooth="yes"/>
      <point x="264" y="635"/>
      <point x="148" y="511"/>
      <point x="148" y="407" type="qcurve" smooth="yes"/>
      <point x="148" y="291" type="line" smooth="yes"/>
      <point x="148" y="188"/>
      <point x="264" y="63"/>
    </contour>
  </outline>
</glyph>
<glyph name="obreve" format="2">
  <advance width="560"/>
  <unicode hex="014F"/>
  <outline>
    <contour>
      <point x="281" y="596" type="qcurve" smooth="yes"/>
      <point x="162" y="596"/>
      <point x="129" y="721" type="qcurve"/>
      <point x="174" y="743" type="line"/>
      <point x="195" y="710" type="line"/>
      <point x="207" y="688"/>
      <point x="243" y="659"/>
      <point x="281" y="659" type="qcurve" smooth="yes"/>
      <point x="319" y="659"/>
      <point x="354" y="687"/>
      <point x="367" y="710" type="qcurve"/>
      <point x="388" y="743" type="line"/>
      <point x="433" y="721" type="line"/>
      <point x="422" y="677"/>
      <point x="391" y="638" type="qcurve"/>
      <point x="354" y="596"/>
    </contour>
    <contour>
      <point x="280" y="-12" type="qcurve" smooth="yes"/>
      <point x="177" y="-12"/>
      <point x="112" y="62" type="qcurve" smooth="yes"/>
      <point x="47" y="134"/>
      <point x="47" y="258" type="qcurve" smooth="yes"/>
      <point x="47" y="380"/>
      <point x="177" y="528"/>
      <point x="280" y="528" type="qcurve" smooth="yes"/>
      <point x="384" y="528"/>
      <point x="513" y="380"/>
      <point x="513" y="258" type="qcurve" smooth="yes"/>
      <point x="513" y="134"/>
      <point x="448" y="62" type="qcurve"/>
      <point x="384" y="-12"/>
    </contour>
    <contour>
      <point x="280" y="59" type="qcurve" smooth="yes"/>
      <point x="345" y="59"/>
      <point x="427" y="139"/>
      <point x="427" y="221" type="qcurve" smooth="yes"/>
      <point x="427" y="295" type="line" smooth="yes"/>
      <point x="427" y="377"/>
      <point x="345" y="457"/>
      <point x="280" y="457" type="qcurve" smooth="yes"/>
      <point x="215" y="457"/>
      <point x="133" y="377"/>
      <point x="133" y="295" type="qcurve" smooth="yes"/>
      <point x="133" y="221" type="line" smooth="yes"/>
      <point x="133" y="139"/>
      <point x="215" y="59"/>
    </contour>
  </outline>
</glyph>
<glyph name="Odoubleacute" format="2">
  <advance width="708"/>
  <unicode hex="0150"/>
  <outline>
    <contour>
      <point x="354" y="-12" type="qcurve"/>
      <point x="488" y="-12"/>
      <point x="650" y="174"/>
      <point x="650" y="349" type="qcurve"/>
      <point x="650" y="525"/>
      <point x="488" y="710"/>
      <point x="354" y="710" type="qcurve"/>
      <point x="218" y="710"/>
      <point x="139" y="617" type="qcurve"/>
      <point x="58" y="525"/>
      <point x="58" y="349" type="qcurve"/>
      <point x="58" y="174"/>
      <point x="139" y="81" type="qcurve"/>
      <point x="218" y="-12"/>
    </contour>
    <contour>
      <point x="354" y="63" type="qcurve"/>
      <point x="264" y="63"/>
      <point x="148" y="188"/>
      <point x="148" y="291" type="qcurve"/>
      <point x="148" y="407" type="line"/>
      <point x="148" y="511"/>
      <point x="264" y="635"/>
      <point x="354" y="635" type="qcurve"/>
      <point x="444" y="635"/>
      <point x="560" y="511"/>
      <point x="560" y="407" type="qcurve"/>
      <point x="560" y="291" type="line"/>
      <point x="560" y="188"/>
      <point x="444" y="63"/>
    </contour>
    <contour>
      <point x="281" y="756" type="line"/>
      <point x="387" y="915" type="line"/>
      <point x="318" y="948" type="line"/>
      <point x="233" y="778" type="line"/>
    </contour>
    <contour>
      <point x="441" y="756" type="line"/>
      <point x="547" y="915" type="line"/>
      <point x="478" y="948" type="line"/>
      <point x="393" y="778" type="line"/>
    </contour>
  </outline>
</glyph>
<glyph name="Racute" format="2">
  <advance width="640"/>
  <unicode hex="0154"/>
  <outline>
    <contour>
      <point x="586" y="0" type="line"/>
      <point x="426" y="308" type="line"/>
      <point x="495" y="324"/>
      <point x="566" y="423"/>
      <point x="566" y="500" type="qcurve"/>
      <point x="566" y="596"/>
      <point x="463" y="698"/>
      <point x="371" y="698" type="qcurve"/>
      <point x="93" y="698" type="line"/>
      <point x="93" y="0" type="line"/>
      <point x="177" y="0" type="line"/>
      <point x="177" y="300" type="line"/>
      <point x="340" y="300" type="line"/>
      <point x="491" y="0" type="line"/>
    </contour>
    <contour>
      <point x="371" y="372" type="qcurve"/>
      <point x="177" y="372" type="line"/>
      <point x="177" y="624" type="line"/>
      <point x="371" y="624" type="line"/>
      <point x="472" y="624"/>
      <point x="476" y="524" type="qcurve"/>
      <point x="476" y="472" type="line"/>
      <point x="476" y="376"/>
    </contour>
    <contour>
      <point x="314" y="755" type="line"/>
      <point x="420" y="914" type="line"/>
      <point x="347" y="949" type="line"/>
      <point x="262" y="779" type="line"/>
    </contour>
  </outline>
</glyph>
<glyph name="Rcedilla" format="2">
  <advance width="640"/>
  <unicode hex="0156"/>
  <outline>
    <contour>
      <point x="586" y="0" type="line"/>
      <point x="426" y="308" type="line"/>
      <point x="495" y="324"/>
      <point x="566" y="423"/>
      <point x="566" y="500" type="qcurve"/>
      <point x="566" y="596"/>
      <point x="463" y="698"/>
      <point x="371" y="698" type="qcurve"/>
      <point x="93" y="698" type="line"/>
      <point x="93" y="0" type="line"/>
      <point x="177" y="0" type="line"/>
      <point x="177" y="300" type="line"/>
      <point x="340" y="300" type="line"/>
      <point x="491" y="0" type="line"/>
    </contour>
    <contour>
      <point x="371" y="372" type="qcurve"/>
      <point x="177" y="372" type="line"/>
      <point x="177" y="624" type="line"/>
      <point x="371" y="624" type="line"/>
      <point x="472" y="624"/>
      <point x="476" y="524" type="qcurve"/>
      <point x="476" y="472" type="line"/>
      <point x="476" y="376"/>
    </contour>
    <contour>
      <point x="315" y="-245" type="line"/>
      <point x="375" y="-188"/>
      <point x="375" y="-124" type="qcurve"/>
      <point x="375" y="-113" type="line"/>
      <point x="375" y="-69"/>
      <point x="324" y="-66" type="qcurve"/>
      <point x="275" y="-66"/>
      <point x="273" y="-113" type="qcurve"/>
      <point x="273" y="-123" type="line"/>
      <point x="273" y="-157"/>
      <point x="308" y="-167" type="qcurve"/>
      <point x="301" y="-190"/>
      <point x="277" y="-225"/>
      <point x="257" y="-245" type="qcurve"/>
    </contour>
  </outline>
</glyph>
<glyph name="rcedilla" format="2">
  <advance width="367"/>
  <unicode hex="0157"/>
  <outline>
    <contour>
      <point x="165" y="0" type="line"/>
      <point x="165" y="350" type="line"/>
      <point x="165" y="387"/>
      <point x="238" y="436"/>
      <point x="303" y="436" type="qcurve"/>
      <point x="350" y="436" type="line"/>
      <point x="350" y="516" type="line"/>
      <point x="319" y="516" type="line"/>
      <point x="256" y="516"/>
      <point x="184" y="459"/>
      <point x="170" y="421" type="qcurve"/>
      <point x="165" y="421" type="line"/>
      <point x="165" y="516" type="line"/>
      <point x="85" y="516" type="line"/>
      <point x="85" y="0" type="line"/>
    </contour>
    <contour>
      <point x="118" y="-245" type="line"/>
      <point x="178" y="-188"/>
      <point x="178" y="-124" type="qcurve"/>
      <point x="178" y="-113" type="line"/>
      <point x="178" y="-69"/>
      <point x="127" y="-66" type="qcurve"/>
      <point x="78" y="-66"/>
      <point x="76" y="-113" type="qcurve"/>
      <point x="76" y="-123" type="line"/>
      <point x="76" y="-157"/>
      <point x="111" y="-167" type="qcurve"/>
      <point x="104" y="-190"/>
      <point x="80" y="-225"/>
      <point x="60" y="-245" type="qcurve"/>
    </contour>
  </outline>
</glyph>
<glyph name="rcaron" format="2">
  <advance width="367"/>
  <unicode hex="0159"/>
  <outline>
    <contour>
      <point x="165" y="0" type="line"/>
      <point x="165" y="350" type="line"/>
      <point x="165" y="387"/>
      <point x="238" y="436"/>
      <point x="303" y="436" type="qcurve"/>
      <point x="350" y="436" type="line"/>
      <point x="350" y="516" type="line"/>
      <point x="319" y="516" type="line"/>
      <point x="256" y="516"/>
      <point x="184" y="459"/>
      <point x="170" y="421" type="qcurve"/>
      <point x="165" y="421" type="line"/>
      <point x="165" y="516" type="line"/>
      <point x="85" y="516" type="line"/>
      <point x="85" y="0" type="line"/>
    </contour>
    <contour>
      <point x="270" y="599" type="line"/>
      <point x="381" y="742" type="line"/>
      <point x="337" y="773" type="line"/>
      <point x="220" y="656" type="line"/>
      <point x="103" y="773" type="line"/>
      <point x="59" y="742" type="line"/>
      <point x="170" y="599" type="line"/>
    </contour>
  </outline>
</glyph>
<glyph name="Scedilla" format="2">
  <advance width="581"/>
  <unicode hex="015E"/>
  <outline>
    <contour>
      <point x="299" y="-207" type="qcurve"/>
      <point x="343" y="-207"/>
      <point x="410" y="-166"/>
      <point x="410" y="-124" type="qcurve"/>
      <point x="410" y="-92"/>
      <point x="371" y="-58"/>
      <point x="342" y="-58" type="qcurve"/>
      <point x="323" y="-58"/>
      <point x="303" y="-64" type="qcurve"/>
      <point x="300" y="-61" type="line"/>
      <point x="310" y="-11" type="line"/>
      <point x="414" y="-4"/>
      <point x="529" y="107"/>
      <point x="529" y="198" type="qcurve"/>
      <point x="529" y="354"/>
      <point x="334" y="393" type="qcurve"/>
      <point x="277" y="406" type="line"/>
      <point x="211" y="420"/>
      <point x="146" y="472"/>
      <point x="146" y="522" type="qcurve"/>
      <point x="146" y="579"/>
      <point x="223" y="636"/>
      <point x="290" y="636" type="qcurve"/>
      <point x="351" y="636"/>
      <point x="433" y="590"/>
      <point x="462" y="550" type="qcurve"/>
      <point x="525" y="596" type="line"/>
      <point x="447" y="710"/>
      <point x="294" y="710" type="qcurve"/>
      <point x="192" y="710"/>
      <point x="63" y="611"/>
      <point x="63" y="519" type="qcurve"/>
      <point x="63" y="438"/>
      <point x="164" y="348"/>
      <point x="260" y="327" type="qcurve"/>
      <point x="317" y="314" type="line"/>
      <point x="385" y="299"/>
      <point x="446" y="244"/>
      <point x="446" y="194" type="qcurve"/>
      <point x="446" y="134"/>
      <point x="367" y="62"/>
      <point x="292" y="62" type="qcurve"/>
      <point x="231" y="62"/>
      <point x="140" y="113"/>
      <point x="104" y="162" type="qcurve"/>
      <point x="42" y="110" type="line"/>
      <point x="117" y="3"/>
      <point x="260" y="-11" type="qcurve"/>
      <point x="247" y="-77" type="line"/>
      <point x="275" y="-81" type="line"/>
      <point x="317" y="-87"/>
      <point x="343" y="-108"/>
      <point x="343" y="-122" type="qcurve"/>
      <point x="343" y="-138"/>
      <point x="318" y="-153"/>
      <point x="299" y="-153" type="qcurve"/>
      <point x="260" y="-153"/>
      <point x="238" y="-125" type="qcurve"/>
      <point x="200" y="-166" type="line"/>
      <point x="230" y="-207"/>
    </contour>
  </outline>
</glyph>
<glyph name="tbar" format="2">
  <advance width="357"/>
  <unicode hex="0167"/>
  <outline>
    <contour>
      <point x="302" y="0" type="line"/>
      <point x="302" y="70" type="line"/>
      <point x="197" y="70" type="line"/>
      <point x="197" y="248" type="line"/>
      <point x="288" y="248" type="line"/>
      <point x="288" y="310" type="line"/>
      <point x="197" y="310" type="line"/>
      <point x="197" y="446" type="line"/>
      <point x="310" y="446" type="line"/>
      <point x="310" y="516" type="line"/>
      <point x="197" y="516" type="line"/>
      <point x="197" y="659" type="line"/>
      <point x="125" y="659" type="line"/>
      <point x="125" y="563" type="line"/>
      <point x="125" y="537"/>
      <point x="106" y="516"/>
      <point x="80" y="516" type="qcurve"/>
      <point x="32" y="516" type="line"/>
      <point x="32" y="446" type="line"/>
      <point x="117" y="446" type="line"/>
      <point x="117" y="310" type="line"/>
      <point x="53" y="310" type="line"/>
      <point x="53" y="248" type="line"/>
      <point x="117" y="248" type="line"/>
      <point x="117" y="84" type="line"/>
      <point x="117" y="46"/>
      <point x="160" y="0"/>
      <point x="202" y="0" type="qcurve"/>
    </contour>
  </outline>
</glyph>
<glyph name="Utilde" format="2">
  <advance width="678"/>
  <unicode hex="0168"/>
  <outline>
    <contour>
      <point x="336" y="-12" type="qcurve"/>
      <point x="476" y="-12"/>
      <point x="590" y="135"/>
      <point x="590" y="286" type="qcurve"/>
      <point x="590" y="698" type="line"/>
      <point x="506" y="698" type="line"/>
      <point x="506" y="266" type="line"/>
      <point x="506" y="166"/>
      <point x="432" y="63"/>
      <point x="339" y="63" type="qcurve"/>
      <point x="246" y="63"/>
      <point x="172" y="166"/>
      <point x="172" y="266" type="qcurve"/>
      <point x="172" y="698" type="line"/>
      <point x="88" y="698" type="line"/>
      <point x="88" y="286" type="line"/>
      <point x="88" y="130"/>
      <point x="142" y="61" type="qcurve"/>
      <point x="197" y="-12"/>
    </contour>
    <contour>
      <point x="410" y="782" type="qcurve"/>
      <point x="470" y="782"/>
      <point x="505" y="835" type="qcurve"/>
      <point x="472" y="875" type="line"/>
      <point x="457" y="862"/>
      <point x="431" y="848"/>
      <point x="414" y="848" type="qcurve"/>
      <point x="387" y="848"/>
      <point x="337" y="875" type="qcurve"/>
      <point x="323" y="884"/>
      <point x="288" y="898"/>
      <point x="264" y="898" type="qcurve"/>
      <point x="204" y="898"/>
      <point x="169" y="845" type="qcurve"/>
      <point x="202" y="805" type="line"/>
      <point x="217" y="818"/>
      <point x="243" y="832"/>
      <point x="260" y="832" type="qcurve"/>
      <point x="287" y="832"/>
      <point x="337" y="805" type="qcurve"/>
      <point x="351" y="796"/>
      <point x="386" y="782"/>
    </contour>
  </outline>
</glyph>
<glyph name="utilde" format="2">
  <advance width="568"/>
  <unicode hex="0169"/>
  <outline>
    <contour>
      <point x="254" y="-12" type="qcurve"/>
      <point x="361" y="-12"/>
      <point x="399" y="84" type="qcurve"/>
      <point x="403" y="84" type="line"/>
      <point x="403" y="0" type="line"/>
      <point x="483" y="0" type="line"/>
      <point x="483" y="516" type="line"/>
      <point x="403" y="516" type="line"/>
      <point x="403" y="159" type="line"/>
      <point x="403" y="110"/>
      <point x="365" y="84" type="qcurve"/>
      <point x="326" y="60"/>
      <point x="278" y="60" type="qcurve"/>
      <point x="160" y="60"/>
      <point x="160" y="199" type="qcurve"/>
      <point x="160" y="516" type="line"/>
      <point x="80" y="516" type="line"/>
      <point x="80" y="185" type="line"/>
      <point x="80" y="91"/>
      <point x="174" y="-12"/>
    </contour>
    <contour>
      <point x="356" y="612" type="qcurve"/>
      <point x="416" y="612"/>
      <point x="451" y="665" type="qcurve"/>
      <point x="418" y="705" type="line"/>
      <point x="403" y="692"/>
      <point x="377" y="678"/>
      <point x="360" y="678" type="qcurve"/>
      <point x="333" y="678"/>
      <point x="283" y="705" type="qcurve"/>
      <point x="269" y="714"/>
      <point x="234" y="728"/>
      <point x="210" y="728" type="qcurve"/>
      <point x="150" y="728"/>
      <point x="115" y="675" type="qcurve"/>
      <point x="148" y="635" type="line"/>
      <point x="163" y="648"/>
      <point x="189" y="662"/>
      <point x="206" y="662" type="qcurve"/>
      <point x="233" y="662"/>
      <point x="283" y="635" type="qcurve"/>
      <point x="297" y="626"/>
      <point x="332" y="612"/>
    </contour>
  </outline>
</glyph>
<glyph name="Umacron" format="2">
  <advance width="678"/>
  <unicode hex="016A"/>
  <outline>
    <contour>
      <point x="336" y="-12" type="qcurve"/>
      <point x="476" y="-12"/>
      <point x="590" y="135"/>
      <point x="590" y="286" type="qcurve"/>
      <point x="590" y="698" type="line"/>
      <point x="506" y="698" type="line"/>
      <point x="506" y="266" type="line"/>
      <point x="506" y="166"/>
      <point x="432" y="63"/>
      <point x="339" y="63" type="qcurve"/>
      <point x="246" y="63"/>
      <point x="172" y="166"/>
      <point x="172" y="266" type="qcurve"/>
      <point x="172" y="698" type="line"/>
      <point x="88" y="698" type="line"/>
      <point x="88" y="286" type="line"/>
      <point x="88" y="130"/>
      <point x="142" y="61" type="qcurve"/>
      <point x="197" y="-12"/>
    </contour>
    <contour>
      <point x="477" y="807" type="line"/>
      <point x="477" y="875" type="line"/>
      <point x="197" y="875" type="line"/>
      <point x="197" y="807" type="line"/>
    </contour>
  </outline>
</glyph>
<glyph name="Ubreve" format="2">
  <advance width="678"/>
  <unicode hex="016C"/>
  <outline>
    <contour>
      <point x="337" y="766" type="qcurve" smooth="yes"/>
      <point x="218" y="766"/>
      <point x="185" y="891" type="qcurve"/>
      <point x="230" y="913" type="line"/>
      <point x="251" y="880" type="line"/>
      <point x="263" y="858"/>
      <point x="299" y="829"/>
      <point x="337" y="829" type="qcurve" smooth="yes"/>
      <point x="375" y="829"/>
      <point x="410" y="857"/>
      <point x="423" y="880" type="qcurve"/>
      <point x="444" y="913" type="line"/>
      <point x="489" y="891" type="line"/>
      <point x="478" y="847"/>
      <point x="447" y="808" type="qcurve"/>
      <point x="410" y="766"/>
    </contour>
    <contour>
      <point x="336" y="-12" type="qcurve" smooth="yes"/>
      <point x="197" y="-12"/>
      <point x="142" y="61" type="qcurve"/>
      <point x="88" y="130"/>
      <point x="88" y="286" type="qcurve" smooth="yes"/>
      <point x="88" y="698" type="line"/>
      <point x="172" y="698" type="line"/>
      <point x="172" y="266" type="line" smooth="yes"/>
      <point x="172" y="166"/>
      <point x="246" y="63"/>
      <point x="339" y="63" type="qcurve" smooth="yes"/>
      <point x="432" y="63"/>
      <point x="506" y="166"/>
      <point x="506" y="266" type="qcurve" smooth="yes"/>
      <point x="506" y="698" type="line"/>
      <point x="590" y="698" type="line"/>
      <point x="590" y="286" type="line" smooth="yes"/>
      <point x="590" y="135"/>
      <point x="476" y="-12"/>
    </contour>
  </outline>
</glyph>
<glyph name="Uring" format="2">
  <advance width="678"/>
  <unicode hex="016E"/>
  <outline>
    <contour>
      <point x="336" y="-12" type="qcurve"/>
      <point x="476" y="-12"/>
      <point x="590" y="135"/>
      <point x="590" y="286" type="qcurve"/>
      <point x="590" y="698" type="line"/>
      <point x="506" y="698" type="line"/>
      <point x="506" y="266" type="line"/>
      <point x="506" y="166"/>
      <point x="432" y="63"/>
      <point x="339" y="63" type="qcurve"/>
      <point x="246" y="63"/>
      <point x="172" y="166"/>
      <point x="172" y="266" type="qcurve"/>
      <point x="172" y="698" type="line"/>
      <point x="88" y="698" type="line"/>
      <point x="88" y="286" type="line"/>
      <point x="88" y="130"/>
      <point x="142" y="61" type="qcurve"/>
      <point x="197" y="-12"/>
    </contour>
    <contour>
      <point x="337" y="746" type="qcurve"/>
      <point x="385" y="746"/>
      <point x="453" y="812"/>
      <point x="453" y="861" type="qcurve"/>
      <point x="453" y="911"/>
      <point x="420" y="944" type="qcurve"/>
      <point x="385" y="976"/>
      <point x="337" y="976" type="qcurve"/>
      <point x="289" y="976"/>
      <point x="221" y="911"/>
      <point x="221" y="861" type="qcurve"/>
      <point x="221" y="812"/>
      <point x="289" y="746"/>
    </contour>
    <contour>
      <point x="337" y="795" type="qcurve"/>
      <point x="283" y="795"/>
      <point x="279" y="850" type="qcurve"/>
      <point x="279" y="872" type="line"/>
      <point x="279" y="925"/>
      <point x="337" y="927" type="qcurve"/>
      <point x="391" y="927"/>
      <point x="395" y="872" type="qcurve"/>
      <point x="395" y="850" type="line"/>
      <point x="395" y="798"/>
    </contour>
  </outline>
</glyph>
<glyph name="uring" format="2">
  <advance width="568"/>
  <unicode hex="016F"/>
  <outline>
    <contour>
      <point x="254" y="-12" type="qcurve"/>
      <point x="361" y="-12"/>
      <point x="399" y="84" type="qcurve"/>
      <point x="403" y="84" type="line"/>
      <point x="403" y="0" type="line"/>
      <point x="483" y="0" type="line"/>
      <point x="483" y="516" type="line"/>
      <point x="403" y="516" type="line"/>
      <point x="403" y="159" type="line"/>
      <point x="403" y="110"/>
      <point x="365" y="84" type="qcurve"/>
      <point x="326" y="60"/>
      <point x="278" y="60" type="qcurve"/>
      <point x="160" y="60"/>
      <point x="160" y="199" type="qcurve"/>
      <point x="160" y="516" type="line"/>
      <point x="80" y="516" type="line"/>
      <point x="80" y="185" type="line"/>
      <point x="80" y="91"/>
      <point x="174" y="-12"/>
    </contour>
    <contour>
      <point x="283" y="576" type="qcurve"/>
      <point x="331" y="576"/>
      <point x="399" y="642"/>
      <point x="399" y="691" type="qcurve"/>
      <point x="399" y="741"/>
      <point x="366" y="774" type="qcurve"/>
      <point x="331" y="806"/>
      <point x="283" y="806" type="qcurve"/>
      <point x="235" y="806"/>
      <point x="167" y="741"/>
      <point x="167" y="691" type="qcurve"/>
      <point x="167" y="642"/>
      <point x="235" y="576"/>
    </contour>
    <contour>
      <point x="283" y="625" type="qcurve"/>
      <point x="229" y="625"/>
      <point x="225" y="680" type="qcurve"/>
      <point x="225" y="702" type="line"/>
      <point x="225" y="755"/>
      <point x="283" y="757" type="qcurve"/>
      <point x="337" y="757"/>
      <point x="341" y="702" type="qcurve"/>
      <point x="341" y="680" type="line"/>
      <point x="341" y="628"/>
    </contour>
  </outline>
</glyph>
<glyph name="udoubleacute" format="2">
  <advance width="568"/>
  <unicode hex="0171"/>
  <outline>
    <contour>
      <point x="254" y="-12" type="qcurve"/>
      <point x="361" y="-12"/>
      <point x="399" y="84" type="qcurve"/>
      <point x="403" y="84" type="line"/>
      <point x="403" y="0" type="line"/>
      <point x="483" y="0" type="line"/>
      <point x="483" y="516" type="line"/>
      <point x="403" y="516" type="line"/>
      <point x="403" y="159" type="line"/>
      <point x="403" y="110"/>
      <point x="365" y="84" type="qcurve"/>
      <point x="326" y="60"/>
      <point x="278" y="60" type="qcurve"/>
      <point x="160" y="60"/>
      <point x="160" y="199" type="qcurve"/>
      <point x="160" y="516" type="line"/>
      <point x="80" y="516" type="line"/>
      <point x="80" y="185" type="line"/>
      <point x="80" y="91"/>
      <point x="174" y="-12"/>
    </contour>
    <contour>
      <point x="210" y="586" type="line"/>
      <point x="316" y="745" type="line"/>
      <point x="247" y="778" type="line"/>
      <point x="162" y="608" type="line"/>
    </contour>
    <contour>
      <point x="370" y="586" type="line"/>
      <point x="476" y="745" type="line"/>
      <point x="407" y="778" type="line"/>
      <point x="322" y="608" type="line"/>
    </contour>
  </outline>
</glyph>
<glyph name="Uogonek" format="2">
  <advance width="678"/>
  <unicode hex="0172"/>
  <outline>
    <contour>
      <point x="420" y="-207" type="qcurve"/>
      <point x="455" y="-207"/>
      <point x="499" y="-184"/>
      <point x="508" y="-168" type="qcurve"/>
      <point x="468" y="-129" type="line"/>
      <point x="449" y="-153"/>
      <point x="420" y="-153" type="qcurve"/>
      <point x="389" y="-153"/>
      <point x="389" y="-123" type="qcurve"/>
      <point x="389" y="-103"/>
      <point x="426" y="-59"/>
      <point x="475" y="-12" type="qcurve"/>
      <point x="542" y="53"/>
      <point x="567" y="121" type="qcurve"/>
      <point x="590" y="186"/>
      <point x="590" y="286" type="qcurve"/>
      <point x="590" y="698" type="line"/>
      <point x="506" y="698" type="line"/>
      <point x="506" y="266" type="line"/>
      <point x="506" y="166"/>
      <point x="432" y="63"/>
      <point x="339" y="63" type="qcurve"/>
      <point x="246" y="63"/>
      <point x="172" y="166"/>
      <point x="172" y="266" type="qcurve"/>
      <point x="172" y="698" type="line"/>
      <point x="88" y="698" type="line"/>
      <point x="88" y="286" type="line"/>
      <point x="88" y="130"/>
      <point x="142" y="61" type="qcurve"/>
      <point x="197" y="-12"/>
      <point x="336" y="-12" type="qcurve"/>
      <point x="390" y="-12"/>
      <point x="437" y="5" type="qcurve"/>
      <point x="441" y="0" type="line"/>
      <point x="396" y="-32" type="line"/>
      <point x="325" y="-80"/>
      <point x="325" y="-133" type="qcurve"/>
      <point x="325" y="-171"/>
      <point x="382" y="-207"/>
    </contour>
  </outline>
</glyph>
<glyph name="uogonek" format="2">
  <advance width="568"/>
  <unicode hex="0173"/>
  <outline>
    <contour>
      <point x="416" y="-207" type="qcurve"/>
      <point x="451" y="-207"/>
      <point x="495" y="-184"/>
      <point x="504" y="-168" type="qcurve"/>
      <point x="464" y="-129" type="line"/>
      <point x="445" y="-153"/>
      <point x="416" y="-153" type="qcurve"/>
      <point x="385" y="-153"/>
      <point x="385" y="-123" type="qcurve"/>
      <point x="385" y="-106"/>
      <point x="421" y="-57"/>
      <point x="483" y="0" type="qcurve"/>
      <point x="483" y="516" type="line"/>
      <point x="403" y="516" type="line"/>
      <point x="403" y="159" type="line"/>
      <point x="403" y="110"/>
      <point x="365" y="84" type="qcurve"/>
      <point x="326" y="60"/>
      <point x="278" y="60" type="qcurve"/>
      <point x="160" y="60"/>
      <point x="160" y="199" type="qcurve"/>
      <point x="160" y="516" type="line"/>
      <point x="80" y="516" type="line"/>
      <point x="80" y="185" type="line"/>
      <point x="80" y="91"/>
      <point x="174" y="-12"/>
      <point x="254" y="-12" type="qcurve"/>
      <point x="361" y="-12"/>
      <point x="399" y="84" type="qcurve"/>
      <point x="403" y="84" type="line"/>
      <point x="403" y="0" type="line"/>
      <point x="421" y="0" type="line"/>
      <point x="422" y="-3" type="line"/>
      <point x="379" y="-32"/>
      <point x="321" y="-93"/>
      <point x="321" y="-131" type="qcurve"/>
      <point x="321" y="-171"/>
      <point x="377" y="-207"/>
    </contour>
  </outline>
</glyph>
<glyph name="Wcircumflex" format="2">
  <advance width="891"/>
  <unicode hex="0174"/>
  <outline>
    <contour>
      <point x="692" y="0" type="line"/>
      <point x="871" y="698" type="line"/>
      <point x="785" y="698" type="line"/>
      <point x="646" y="102" type="line"/>
      <point x="643" y="102" type="line"/>
      <point x="493" y="698" type="line"/>
      <point x="397" y="698" type="line"/>
      <point x="309" y="362" type="line"/>
      <point x="244" y="101" type="line"/>
      <point x="242" y="101" type="line"/>
      <point x="109" y="698" type="line"/>
      <point x="20" y="698" type="line"/>
      <point x="190" y="0" type="line"/>
      <point x="283" y="0" type="line"/>
      <point x="364" y="302"/>
      <point x="442" y="604" type="qcurve"/>
      <point x="444" y="604" type="line"/>
      <point x="508" y="348" type="line"/>
      <point x="599" y="0" type="line"/>
    </contour>
    <contour>
      <point x="563" y="761" type="line"/>
      <point x="607" y="792" type="line"/>
      <point x="496" y="935" type="line"/>
      <point x="396" y="935" type="line"/>
      <point x="285" y="792" type="line"/>
      <point x="329" y="761" type="line"/>
      <point x="446" y="878" type="line"/>
    </contour>
  </outline>
</glyph>
<glyph name="Ydieresis" format="2">
  <advance width="593"/>
  <unicode hex="0178"/>
  <outline>
    <contour>
      <point x="337" y="0" type="line"/>
      <point x="337" y="279" type="line"/>
      <point x="580" y="698" type="line"/>
      <point x="484" y="698" type="line"/>
      <point x="298" y="362" type="line"/>
      <point x="295" y="362" type="line"/>
      <point x="109" y="698" type="line"/>
      <point x="13" y="698" type="line"/>
      <point x="253" y="276" type="line"/>
      <point x="253" y="0" type="line"/>
    </contour>
    <contour>
      <point x="205" y="788" type="qcurve"/>
      <point x="255" y="788"/>
      <point x="255" y="835" type="qcurve"/>
      <point x="255" y="847" type="line"/>
      <point x="255" y="894"/>
      <point x="205" y="894" type="qcurve"/>
      <point x="155" y="894"/>
      <point x="155" y="847" type="qcurve"/>
      <point x="155" y="835" type="line"/>
      <point x="155" y="788"/>
    </contour>
    <contour>
      <point x="391" y="788" type="qcurve"/>
      <point x="441" y="788"/>
      <point x="441" y="835" type="qcurve"/>
      <point x="441" y="847" type="line"/>
      <point x="441" y="894"/>
      <point x="391" y="894" type="qcurve"/>
      <point x="341" y="894"/>
      <point x="341" y="847" type="qcurve"/>
      <point x="341" y="835" type="line"/>
      <point x="341" y="788"/>
    </contour>
  </outline>
</glyph>
<glyph name="zdotaccent" format="2">
  <advance width="464"/>
  <unicode hex="017C"/>
  <outline>
    <contour>
      <point x="233" y="616" type="qcurve" smooth="yes"/>
      <point x="182" y="616"/>
      <point x="182" y="662" type="qcurve" smooth="yes"/>
      <point x="182" y="673" type="line" smooth="yes"/>
      <point x="182" y="719"/>
      <point x="233" y="719" type="qcurve" smooth="yes"/>
      <point x="284" y="719"/>
      <point x="284" y="673" type="qcurve" smooth="yes"/>
      <point x="284" y="662" type="line" smooth="yes"/>
      <point x="284" y="616"/>
    </contour>
    <contour>
      <point x="33" y="0" type="line"/>
      <point x="33" y="67" type="line"/>
      <point x="326" y="446" type="line"/>
      <point x="42" y="446" type="line"/>
      <point x="42" y="516" type="line"/>
      <point x="423" y="516" type="line"/>
      <point x="423" y="456" type="line"/>
      <point x="124" y="70" type="line"/>
      <point x="431" y="70" type="line"/>
      <point x="431" y="0" type="line"/>
    </contour>
  </outline>
</glyph>
<glyph name="Zcaron" format="2">
  <advance width="580"/>
  <unicode hex="017D"/>
  <outline>
    <contour>
      <point x="248" y="769" type="line"/>
      <point x="137" y="912" type="line"/>
      <point x="181" y="943" type="line"/>
      <point x="298" y="826" type="line"/>
      <point x="415" y="943" type="line"/>
      <point x="459" y="912" type="line"/>
      <point x="348" y="769" type="line"/>
    </contour>
    <contour>
      <point x="36" y="0" type="line"/>
      <point x="36" y="76" type="line"/>
      <point x="439" y="624" type="line"/>
      <point x="57" y="624" type="line"/>
      <point x="57" y="698" type="line"/>
      <point x="530" y="698" type="line"/>
      <point x="530" y="622" type="line"/>
      <point x="126" y="74" type="line"/>
      <point x="544" y="74" type="line"/>
      <point x="544" y="0" type="line"/>
    </contour>
  </outline>
</glyph>
<glyph name="florin" format="2">
  <advance width="485"/>
  <unicode hex="0192"/>
  <outline>
    <contour>
      <point x="-3" y="-134" type="line"/>
      <point x="4" y="-64" type="line"/>
      <point x="149" y="-64" type="line"/>
      <point x="186" y="301" type="line"/>
      <point x="43" y="301" type="line"/>
      <point x="51" y="374" type="line"/>
      <point x="193" y="374" type="line"/>
      <point x="214" y="580" type="line" smooth="yes"/>
      <point x="219" y="634"/>
      <point x="282" y="698"/>
      <point x="340" y="698" type="qcurve" smooth="yes"/>
      <point x="461" y="698" type="line"/>
      <point x="453" y="628" type="line"/>
      <point x="300" y="628" type="line"/>
      <point x="274" y="374" type="line"/>
      <point x="443" y="374" type="line"/>
      <point x="436" y="301" type="line"/>
      <point x="267" y="301" type="line"/>
      <point x="235" y="-16" type="line" smooth="yes"/>
      <point x="230" y="-69"/>
      <point x="168" y="-134"/>
      <point x="109" y="-134" type="qcurve" smooth="yes"/>
    </contour>
  </outline>
</glyph>
<glyph name="Aringacute" format="2">
  <advance width="641"/>
  <unicode hex="01FA"/>
  <outline>
    <contour>
      <point x="618" y="0" type="line"/>
      <point x="374" y="698" type="line"/>
      <point x="267" y="698" type="line"/>
      <point x="23" y="0" type="line"/>
      <point x="108" y="0" type="line"/>
      <point x="178" y="206" type="line"/>
      <point x="460" y="206" type="line"/>
      <point x="530" y="0" type="line"/>
    </contour>
    <contour>
      <point x="439" y="280" type="line"/>
      <point x="198" y="280" type="line"/>
      <point x="316" y="620" type="line"/>
      <point x="321" y="620" type="line"/>
    </contour>
    <contour>
      <point x="336" y="987" type="line"/>
      <point x="432" y="1094" type="line"/>
      <point x="362" y="1119" type="line"/>
      <point x="289" y="1006" type="line"/>
    </contour>
    <contour>
      <point x="322" y="736" type="qcurve"/>
      <point x="370" y="736"/>
      <point x="438" y="802"/>
      <point x="438" y="851" type="qcurve"/>
      <point x="438" y="901"/>
      <point x="405" y="934" type="qcurve"/>
      <point x="370" y="966"/>
      <point x="322" y="966" type="qcurve"/>
      <point x="274" y="966"/>
      <point x="206" y="901"/>
      <point x="206" y="851" type="qcurve"/>
      <point x="206" y="802"/>
      <point x="274" y="736"/>
    </contour>
    <contour>
      <point x="322" y="785" type="qcurve"/>
      <point x="268" y="785"/>
      <point x="264" y="840" type="qcurve"/>
      <point x="264" y="862" type="line"/>
      <point x="264" y="915"/>
      <point x="322" y="917" type="qcurve"/>
      <point x="376" y="917"/>
      <point x="380" y="862" type="qcurve"/>
      <point x="380" y="840" type="line"/>
      <point x="380" y="788"/>
    </contour>
  </outline>
</glyph>
<glyph name="aeacute" format="2">
  <advance width="864"/>
  <unicode hex="01FD"/>
  <outline>
    <contour>
      <point x="231" y="56" type="qcurve"/>
      <point x="183" y="56"/>
      <point x="128" y="98"/>
      <point x="128" y="136" type="qcurve"/>
      <point x="128" y="157" type="line"/>
      <point x="128" y="234"/>
      <point x="260" y="238" type="qcurve"/>
      <point x="366" y="238" type="line"/>
      <point x="366" y="150" type="line"/>
      <point x="366" y="110"/>
      <point x="290" y="56"/>
    </contour>
    <contour>
      <point x="731" y="298" type="line"/>
      <point x="446" y="298" type="line"/>
      <point x="446" y="305" type="line"/>
      <point x="446" y="373"/>
      <point x="528" y="461"/>
      <point x="594" y="461" type="qcurve"/>
      <point x="656" y="461"/>
      <point x="731" y="378"/>
      <point x="731" y="309" type="qcurve"/>
    </contour>
    <contour>
      <point x="603" y="-12" type="qcurve"/>
      <point x="737" y="-12"/>
      <point x="798" y="106" type="qcurve"/>
      <point x="741" y="146" type="line"/>
      <point x="698" y="58"/>
      <point x="599" y="58" type="qcurve"/>
      <point x="527" y="58"/>
      <point x="446" y="148"/>
      <point x="446" y="214" type="qcurve"/>
      <point x="446" y="238" type="line"/>
      <point x="817" y="238" type="line"/>
      <point x="817" y="276" type="line"/>
      <point x="817" y="386"/>
      <point x="701" y="528"/>
      <point x="603" y="528" type="qcurve"/>
      <point x="530" y="528"/>
      <point x="475" y="488" type="qcurve"/>
      <point x="426" y="450"/>
      <point x="417" y="413" type="qcurve"/>
      <point x="411" y="413" type="line"/>
      <point x="405" y="447"/>
      <point x="371" y="486" type="qcurve"/>
      <point x="327" y="528"/>
      <point x="249" y="528" type="qcurve"/>
      <point x="178" y="528"/>
      <point x="85" y="469"/>
      <point x="65" y="427" type="qcurve"/>
      <point x="113" y="383" type="line"/>
      <point x="134" y="419"/>
      <point x="197" y="459"/>
      <point x="247" y="459" type="qcurve"/>
      <point x="366" y="459"/>
      <point x="366" y="346" type="qcurve"/>
      <point x="366" y="298" type="line"/>
      <point x="264" y="298" type="line"/>
      <point x="154" y="298"/>
      <point x="44" y="217"/>
      <point x="44" y="142" type="qcurve"/>
      <point x="44" y="71"/>
      <point x="137" y="-12"/>
      <point x="215" y="-12" type="qcurve"/>
      <point x="295" y="-12"/>
      <point x="350" y="30" type="qcurve"/>
      <point x="399" y="67"/>
      <point x="406" y="104" type="qcurve"/>
      <point x="412" y="104" type="line"/>
      <point x="421" y="67"/>
      <point x="471" y="29" type="qcurve"/>
      <point x="525" y="-12"/>
    </contour>
    <contour>
      <point x="421" y="585" type="line"/>
      <point x="527" y="744" type="line"/>
      <point x="454" y="779" type="line"/>
      <point x="369" y="609" type="line"/>
    </contour>
  </outline>
</glyph>
<glyph name="oslashacute" format="2">
  <advance width="568"/>
  <unicode hex="01FF"/>
  <outline>
    <contour>
      <point x="240" y="609" type="line"/>
      <point x="325" y="779" type="line"/>
      <point x="398" y="744" type="line"/>
      <point x="292" y="585" type="line"/>
    </contour>
    <contour>
      <point x="35" y="-6" type="line"/>
      <point x="102" y="78" type="line"/>
      <point x="51" y="149"/>
      <point x="51" y="258" type="qcurve" smooth="yes"/>
      <point x="51" y="380"/>
      <point x="181" y="528"/>
      <point x="284" y="528" type="qcurve" smooth="yes"/>
      <point x="368" y="528"/>
      <point x="426" y="479" type="qcurve"/>
      <point x="488" y="556" type="line"/>
      <point x="533" y="522" type="line"/>
      <point x="466" y="437" type="line"/>
      <point x="517" y="366"/>
      <point x="517" y="258" type="qcurve" smooth="yes"/>
      <point x="517" y="134"/>
      <point x="452" y="62" type="qcurve"/>
      <point x="388" y="-12"/>
      <point x="284" y="-12" type="qcurve" smooth="yes"/>
      <point x="202" y="-12"/>
      <point x="142" y="36" type="qcurve"/>
      <point x="80" y="-40" type="line"/>
    </contour>
    <contour>
      <point x="382" y="424" type="line"/>
      <point x="343" y="457"/>
      <point x="284" y="457" type="qcurve" smooth="yes"/>
      <point x="219" y="457"/>
      <point x="137" y="377"/>
      <point x="137" y="295" type="qcurve" smooth="yes"/>
      <point x="137" y="221" type="line" smooth="yes"/>
      <point x="137" y="173"/>
      <point x="152" y="139" type="qcurve"/>
    </contour>
    <contour>
      <point x="284" y="59" type="qcurve" smooth="yes"/>
      <point x="349" y="59"/>
      <point x="431" y="139"/>
      <point x="431" y="221" type="qcurve" smooth="yes"/>
      <point x="431" y="295" type="line" smooth="yes"/>
      <point x="431" y="343"/>
      <point x="416" y="376" type="qcurve"/>
      <point x="186" y="92" type="line"/>
      <point x="223" y="59"/>
    </contour>
  </outline>
</glyph>
<glyph name="uni02BB" format="2">
  <advance width="600"/>
  <unicode hex="02BB"/>
  <outline>
    <contour>
      <point x="301" y="595" type="qcurve"/>
      <point x="250" y="599"/>
      <point x="250" y="642" type="qcurve" smooth="yes"/>
      <point x="250" y="653" type="line" smooth="yes"/>
      <point x="250" y="717"/>
      <point x="310" y="774" type="qcurve"/>
      <point x="368" y="774" type="line"/>
      <point x="348" y="754"/>
      <point x="324" y="719"/>
      <point x="317" y="696" type="qcurve"/>
      <point x="352" y="687"/>
      <point x="352" y="652" type="qcurve" smooth="yes"/>
      <point x="352" y="642" type="line"/>
      <point x="351" y="595"/>
    </contour>
  </outline>
</glyph>
<glyph name="apostrophemod" format="2">
  <advance width="600"/>
  <unicode hex="02BC"/>
  <outline>
    <contour>
      <point x="353" y="555" type="line"/>
      <point x="405" y="740" type="line"/>
      <point x="312" y="740" type="line"/>
      <point x="300" y="555" type="line"/>
    </contour>
  </outline>
</glyph>
<glyph name="brevemod" format="2">
  <advance width="600"/>
  <unicode hex="02D8"/>
  <outline>
    <contour>
      <point x="300" y="596" type="qcurve"/>
      <point x="373" y="596"/>
      <point x="410" y="638" type="qcurve"/>
      <point x="441" y="677"/>
      <point x="452" y="721" type="qcurve"/>
      <point x="407" y="743" type="line"/>
      <point x="386" y="710" type="line"/>
      <point x="373" y="687"/>
      <point x="338" y="659"/>
      <point x="300" y="659" type="qcurve"/>
      <point x="262" y="659"/>
      <point x="226" y="688"/>
      <point x="214" y="710" type="qcurve"/>
      <point x="193" y="743" type="line"/>
      <point x="148" y="721" type="line"/>
      <point x="181" y="596"/>
    </contour>
  </outline>
</glyph>
<glyph name="dotaccentmod" format="2">
  <advance width="600"/>
  <unicode hex="02D9"/>
  <outline>
    <contour>
      <point x="300" y="616" type="qcurve"/>
      <point x="351" y="616"/>
      <point x="351" y="662" type="qcurve"/>
      <point x="351" y="673" type="line"/>
      <point x="351" y="719"/>
      <point x="300" y="719" type="qcurve"/>
      <point x="249" y="719"/>
      <point x="249" y="673" type="qcurve"/>
      <point x="249" y="662" type="line"/>
      <point x="249" y="616"/>
    </contour>
  </outline>
</glyph>
<glyph name="ring" format="2">
  <advance width="600"/>
  <unicode hex="02DA"/>
  <outline>
    <contour>
      <point x="300" y="576" type="qcurve" smooth="yes"/>
      <point x="252" y="576"/>
      <point x="184" y="642"/>
      <point x="184" y="691" type="qcurve" smooth="yes"/>
      <point x="184" y="741"/>
      <point x="252" y="806"/>
      <point x="300" y="806" type="qcurve" smooth="yes"/>
      <point x="348" y="806"/>
      <point x="383" y="774" type="qcurve"/>
      <point x="416" y="741"/>
      <point x="416" y="691" type="qcurve" smooth="yes"/>
      <point x="416" y="642"/>
      <point x="348" y="576"/>
    </contour>
    <contour>
      <point x="300" y="625" type="qcurve"/>
      <point x="358" y="628"/>
      <point x="358" y="680" type="qcurve" smooth="yes"/>
      <point x="358" y="702" type="line"/>
      <point x="354" y="757"/>
      <point x="300" y="757" type="qcurve"/>
      <point x="242" y="755"/>
      <point x="242" y="702" type="qcurve" smooth="yes"/>
      <point x="242" y="680" type="line"/>
      <point x="246" y="625"/>
    </contour>
  </outline>
</glyph>
<glyph name="ogonek" format="2">
  <advance width="600"/>
  <unicode hex="02DB"/>
  <outline>
    <contour>
      <point x="261" y="-207" type="qcurve" smooth="yes"/>
      <point x="222" y="-207"/>
      <point x="166" y="-171"/>
      <point x="166" y="-131" type="qcurve" smooth="yes"/>
      <point x="166" y="-91"/>
      <point x="223" y="-29"/>
      <point x="271" y="4" type="qcurve"/>
      <point x="266" y="22" type="line"/>
      <point x="320" y="22" type="line"/>
      <point x="328" y="0" type="line"/>
      <point x="266" y="-57"/>
      <point x="230" y="-106"/>
      <point x="230" y="-123" type="qcurve" smooth="yes"/>
      <point x="230" y="-153"/>
      <point x="261" y="-153" type="qcurve" smooth="yes"/>
      <point x="290" y="-153"/>
      <point x="309" y="-129" type="qcurve"/>
      <point x="349" y="-168" type="line"/>
      <point x="340" y="-184"/>
      <point x="296" y="-207"/>
    </contour>
  </outline>
</glyph>
<glyph name="ogonekmod" format="2">
  <advance width="600"/>
  <unicode hex="02DB"/>
  <outline>
    <contour>
      <point x="261" y="-207" type="qcurve"/>
      <point x="296" y="-207"/>
      <point x="340" y="-184"/>
      <point x="349" y="-168" type="qcurve"/>
      <point x="309" y="-129" type="line"/>
      <point x="290" y="-153"/>
      <point x="261" y="-153" type="qcurve"/>
      <point x="230" y="-153"/>
      <point x="230" y="-123" type="qcurve"/>
      <point x="230" y="-106"/>
      <point x="266" y="-57"/>
      <point x="328" y="0" type="qcurve"/>
      <point x="320" y="22" type="line"/>
      <point x="266" y="22" type="line"/>
      <point x="271" y="4" type="line"/>
      <point x="223" y="-29"/>
      <point x="166" y="-91"/>
      <point x="166" y="-131" type="qcurve"/>
      <point x="166" y="-171"/>
      <point x="222" y="-207"/>
    </contour>
  </outline>
</glyph>
<glyph name="tildemod" format="2">
  <advance width="600"/>
  <unicode hex="02DC"/>
  <outline>
    <contour>
      <point x="373" y="612" type="qcurve"/>
      <point x="433" y="612"/>
      <point x="468" y="665" type="qcurve"/>
      <point x="435" y="705" type="line"/>
      <point x="420" y="692"/>
      <point x="394" y="678"/>
      <point x="377" y="678" type="qcurve"/>
      <point x="350" y="678"/>
      <point x="300" y="705" type="qcurve"/>
      <point x="286" y="714"/>
      <point x="251" y="728"/>
      <point x="227" y="728" type="qcurve"/>
      <point x="167" y="728"/>
      <point x="132" y="675" type="qcurve"/>
      <point x="165" y="635" type="line"/>
      <point x="180" y="648"/>
      <point x="206" y="662"/>
      <point x="223" y="662" type="qcurve"/>
      <point x="250" y="662"/>
      <point x="300" y="635" type="qcurve"/>
      <point x="314" y="626"/>
      <point x="349" y="612"/>
    </contour>
  </outline>
</glyph>
<glyph name="uni0302" format="2">
  <unicode hex="0302"/>
  <outline>
    <contour>
      <point x="1" y="708" type="line"/>
      <point x="-116" y="591" type="line"/>
      <point x="-160" y="622" type="line"/>
      <point x="-49" y="765" type="line"/>
      <point x="51" y="765" type="line"/>
      <point x="162" y="622" type="line"/>
      <point x="118" y="591" type="line"/>
    </contour>
  </outline>
</glyph>
<glyph name="dotaccentcomb" format="2">
  <advance width="0"/>
  <unicode hex="0307"/>
  <outline>
    <contour>
      <point x="1" y="616" type="qcurve"/>
      <point x="52" y="616"/>
      <point x="52" y="662" type="qcurve"/>
      <point x="52" y="673" type="line"/>
      <point x="52" y="719"/>
      <point x="1" y="719" type="qcurve"/>
      <point x="-50" y="719"/>
      <point x="-50" y="673" type="qcurve"/>
      <point x="-50" y="662" type="line"/>
      <point x="-50" y="616"/>
    </contour>
  </outline>
</glyph>
<glyph name="uni0307" format="2">
  <unicode hex="0307"/>
  <outline>
    <contour>
      <point x="1" y="616" type="qcurve" smooth="yes"/>
      <point x="-50" y="616"/>
      <point x="-50" y="662" type="qcurve" smooth="yes"/>
      <point x="-50" y="673" type="line" smooth="yes"/>
      <point x="-50" y="719"/>
      <point x="1" y="719" type="qcurve" smooth="yes"/>
      <point x="52" y="719"/>
      <point x="52" y="673" type="qcurve" smooth="yes"/>
      <point x="52" y="662" type="line" smooth="yes"/>
      <point x="52" y="616"/>
    </contour>
  </outline>
</glyph>
<glyph name="dieresiscomb" format="2">
  <advance width="0"/>
  <unicode hex="0308"/>
  <outline>
    <contour>
      <point x="-92" y="618" type="qcurve"/>
      <point x="-43" y="618"/>
      <point x="-43" y="664" type="qcurve"/>
      <point x="-43" y="675" type="line"/>
      <point x="-43" y="721"/>
      <point x="-92" y="721" type="qcurve"/>
      <point x="-141" y="721"/>
      <point x="-141" y="675" type="qcurve"/>
      <point x="-141" y="664" type="line"/>
      <point x="-141" y="618"/>
    </contour>
    <contour>
      <point x="94" y="618" type="qcurve"/>
      <point x="143" y="618"/>
      <point x="143" y="664" type="qcurve"/>
      <point x="143" y="675" type="line"/>
      <point x="143" y="721"/>
      <point x="94" y="721" type="qcurve"/>
      <point x="45" y="721"/>
      <point x="45" y="675" type="qcurve"/>
      <point x="45" y="664" type="line"/>
      <point x="45" y="618"/>
    </contour>
  </outline>
</glyph>
<glyph name="hookcomb" format="2">
  <advance width="0"/>
  <unicode hex="0309"/>
  <outline>
    <contour>
      <point x="22" y="577" type="line"/>
      <point x="46" y="607" type="line"/>
      <point x="95" y="667"/>
      <point x="95" y="710" type="qcurve"/>
      <point x="95" y="765"/>
      <point x="25" y="765" type="qcurve"/>
      <point x="-84" y="765" type="line"/>
      <point x="-84" y="704" type="line"/>
      <point x="34" y="704" type="line"/>
      <point x="-24" y="600" type="line"/>
    </contour>
  </outline>
</glyph>
<glyph name="doubleacutecomb" format="2">
  <advance width="0"/>
  <unicode hex="030B"/>
  <outline>
    <contour>
      <point x="-72" y="586" type="line"/>
      <point x="34" y="745" type="line"/>
      <point x="-35" y="778" type="line"/>
      <point x="-120" y="608" type="line"/>
    </contour>
    <contour>
      <point x="88" y="586" type="line"/>
      <point x="194" y="745" type="line"/>
      <point x="125" y="778" type="line"/>
      <point x="40" y="608" type="line"/>
    </contour>
  </outline>
</glyph>
<glyph name="turnedcommacomb" format="2">
  <advance width="0"/>
  <unicode hex="0312"/>
  <outline>
    <contour>
      <point x="2" y="595" type="qcurve"/>
      <point x="52" y="595"/>
      <point x="53" y="642" type="qcurve"/>
      <point x="53" y="652" type="line"/>
      <point x="53" y="687"/>
      <point x="18" y="696" type="qcurve"/>
      <point x="25" y="719"/>
      <point x="49" y="754"/>
      <point x="69" y="774" type="qcurve"/>
      <point x="11" y="774" type="line"/>
      <point x="-49" y="717"/>
      <point x="-49" y="653" type="qcurve"/>
      <point x="-49" y="642" type="line"/>
      <point x="-49" y="599"/>
    </contour>
  </outline>
</glyph>
<glyph name="horncomb" format="2">
  <advance width="0"/>
  <unicode hex="031B"/>
  <outline>
    <contour>
      <point x="14" y="463" type="line"/>
      <point x="52" y="463"/>
      <point x="77" y="500"/>
      <point x="77" y="526" type="qcurve"/>
      <point x="77" y="628" type="line"/>
      <point x="6" y="628" type="line"/>
      <point x="6" y="516" type="line"/>
      <point x="-77" y="516" type="line"/>
      <point x="-77" y="463" type="line"/>
    </contour>
  </outline>
</glyph>
<glyph name="cedillacomb" format="2">
  <advance width="0"/>
  <unicode hex="0327"/>
  <outline>
    <contour>
      <point x="13" y="-207" type="qcurve"/>
      <point x="57" y="-207"/>
      <point x="124" y="-166"/>
      <point x="124" y="-124" type="qcurve"/>
      <point x="124" y="-92"/>
      <point x="85" y="-58"/>
      <point x="56" y="-58" type="qcurve"/>
      <point x="37" y="-58"/>
      <point x="17" y="-64" type="qcurve"/>
      <point x="14" y="-61" type="line"/>
      <point x="30" y="20" type="line"/>
      <point x="-20" y="20" type="line"/>
      <point x="-39" y="-77" type="line"/>
      <point x="-11" y="-81" type="line"/>
      <point x="31" y="-87"/>
      <point x="57" y="-108"/>
      <point x="57" y="-122" type="qcurve"/>
      <point x="57" y="-138"/>
      <point x="32" y="-153"/>
      <point x="13" y="-153" type="qcurve"/>
      <point x="-26" y="-153"/>
      <point x="-48" y="-125" type="qcurve"/>
      <point x="-86" y="-166" type="line"/>
      <point x="-56" y="-207"/>
    </contour>
  </outline>
</glyph>
<glyph name="uni0327" format="2">
  <unicode hex="0327"/>
  <outline>
    <contour>
      <point x="13" y="-207" type="qcurve" smooth="yes"/>
      <point x="-56" y="-207"/>
      <point x="-86" y="-166" type="qcurve"/>
      <point x="-48" y="-125" type="line"/>
      <point x="-26" y="-153"/>
      <point x="13" y="-153" type="qcurve" smooth="yes"/>
      <point x="32" y="-153"/>
      <point x="57" y="-138"/>
      <point x="57" y="-122" type="qcurve" smooth="yes"/>
      <point x="57" y="-108"/>
      <point x="31" y="-87"/>
      <point x="-11" y="-81" type="qcurve" smooth="yes"/>
      <point x="-39" y="-77" type="line"/>
      <point x="-20" y="20" type="line"/>
      <point x="30" y="20" type="line"/>
      <point x="14" y="-61" type="line"/>
      <point x="17" y="-64" type="line"/>
      <point x="37" y="-58"/>
      <point x="56" y="-58" type="qcurve" smooth="yes"/>
      <point x="85" y="-58"/>
      <point x="124" y="-92"/>
      <point x="124" y="-124" type="qcurve" smooth="yes"/>
      <point x="124" y="-166"/>
      <point x="57" y="-207"/>
    </contour>
  </outline>
</glyph>
